<svg xmlns="http://www.w3.org/2000/svg" viewBox="0 0 128 128" width="128" height="128">
  <title>IRIS fabrication unit head — east</title>
  <desc>Directional chamfered chassis with its optic on the forward sensor plane.</desc>
  <g id="art" transform="translate(64 44)">
    <path id="art/chassis" d="M -10 -20 H 11 L 17 -13 V 13 L 11 20 H -10 L -17 13 V -13 Z" fill="#FF00FF" fill-rule="nonzero"/>
    <path id="detail/top-vent" d="M -5 -21 H 5 V -18 H -5 Z" fill="#00FF00" fill-rule="nonzero"/>
    <path id="detail/sensor-band" d="M -12 -7 H 14 Q 17 -7 17 -4 V 3 Q 17 6 14 6 H -12 Q -15 6 -15 3 V -4 Q -15 -7 -12 -7 Z" fill="#00FF00" fill-rule="nonzero"/>
    <path id="detail/optic-halo" d="M 3.3 0 A 5.7 5.7 0 1 0 14.7 0 A 5.7 5.7 0 1 0 3.3 0 Z" fill="#5BE08A" fill-rule="nonzero" opacity="0.16"/>
    <path id="detail/optic" d="M 5.8 0 A 3.2 3.2 0 1 0 12.2 0 A 3.2 3.2 0 1 0 5.8 0 Z" fill="#5BE08A" fill-rule="nonzero"/>
  </g>
</svg>
