<svg xmlns="http://www.w3.org/2000/svg" viewBox="0 0 128 128" width="128" height="128">
  <title>Terrarium head-long south authored art</title>
  <desc>Narrow upper face widening at the ear line before a long tapered chin.</desc>
  <g id="art" transform="translate(64 44)">
    <path id="art/silhouette" d="M 0 -21 C 10 -21 17 -15 18 -5 V 8 C 17 17 11 23 4 25 C 2 25.7 -2 25.7 -4 25 C -11 23 -17 17 -18 8 V -5 C -17 -15 -10 -21 0 -21 Z" fill="#FF00FF" fill-rule="nonzero"/>
    <path id="detail/eye-left" d="M -10.6 0 a 2.6 2.6 0 1 0 5.2 0 a 2.6 2.6 0 1 0 -5.2 0 Z" fill="#2C2C2A" fill-rule="nonzero"/>
    <path id="detail/eye-right" d="M 5.4 0 a 2.6 2.6 0 1 0 5.2 0 a 2.6 2.6 0 1 0 -5.2 0 Z" fill="#2C2C2A" fill-rule="nonzero"/>
  </g>
</svg>
