<svg xmlns="http://www.w3.org/2000/svg" viewBox="0 0 128 128" width="128" height="128">
  <title>Terrarium head-long east authored art</title>
  <desc>Elongated profile with fixed ear-line width and a low chin.</desc>
  <g id="art" transform="translate(64 44)">
    <path id="art/silhouette" d="M -2 -21 C 7 -21 14 -15 16 -6 C 20 -4 22 -1 21 2 C 20 4 17 5 17 7 C 16 17 11 23 3 25 C -7 26 -15 20 -18 11 C -19 3 -18 -8 -16 -13 C -13 -19 -8 -21 -2 -21 Z" fill="#FF00FF" fill-rule="nonzero"/>
    <path id="detail/eye" d="M 8.4 0 a 2.6 2.6 0 1 0 5.2 0 a 2.6 2.6 0 1 0 -5.2 0 Z" fill="#2C2C2A" fill-rule="nonzero"/>
  </g>
</svg>
