<svg xmlns="http://www.w3.org/2000/svg" viewBox="0 0 128 128" width="128" height="128">
  <title>Terrarium head-oval east authored art</title>
  <desc>Directional oval profile with a restrained nose and tapered chin.</desc>
  <g id="art" transform="translate(64 44)">
    <path id="art/silhouette" d="M -2 -21 C 8 -21 16 -15 18 -6 C 21 -4 22 -1 21 2 C 20 4 18 5 18 7 C 17 16 11 22 1 23 C -10 23 -18 16 -19 5 L -19 -5 C -18 -15 -11 -21 -2 -21 Z" fill="#FF00FF" fill-rule="nonzero"/>
    <path id="detail/eye" d="M 8.4 0 a 2.6 2.6 0 1 0 5.2 0 a 2.6 2.6 0 1 0 -5.2 0 Z" fill="#2C2C2A" fill-rule="nonzero"/>
  </g>
</svg>
