<svg xmlns="http://www.w3.org/2000/svg" viewBox="0 0 128 128" width="128" height="128">
  <title>Terrarium head-oval south authored art</title>
  <desc>Vertical oval with a gentle cheek and chin taper; eyes remain stable literal-ink detail.</desc>
  <g id="art" transform="translate(64 44)">
    <path id="art/silhouette" d="M 0 -21 C 11 -21 18 -13 19 -2 C 20 9 14 19 5 22 C 2 23 -2 23 -5 22 C -14 19 -20 9 -19 -2 C -18 -13 -11 -21 0 -21 Z" fill="#FF00FF" fill-rule="nonzero"/>
    <path id="detail/eye-left" d="M -10.6 0 a 2.6 2.6 0 1 0 5.2 0 a 2.6 2.6 0 1 0 -5.2 0 Z" fill="#2C2C2A" fill-rule="nonzero"/>
    <path id="detail/eye-right" d="M 5.4 0 a 2.6 2.6 0 1 0 5.2 0 a 2.6 2.6 0 1 0 -5.2 0 Z" fill="#2C2C2A" fill-rule="nonzero"/>
  </g>
</svg>
