<svg xmlns="http://www.w3.org/2000/svg" viewBox="0 0 128 128" width="128" height="128">
  <title>Terrarium head-soft-square east authored art</title>
  <desc>Rounded-square profile with a restrained nose and broad lower face.</desc>
  <g id="art" transform="translate(64 44)">
    <path id="art/silhouette" d="M 0 -21 C 9 -21 16 -17 19 -9 V -6 C 22 -4 23 -1 22 2 C 21 4 19 5 19 7 V 11 C 18 18 13 22 5 22 H -8 C -15 22 -20 18 -20 10 V -9 C -19 -16 -10 -21 0 -21 Z" fill="#FF00FF" fill-rule="nonzero"/>
    <path id="detail/eye" d="M 8.4 0 a 2.6 2.6 0 1 0 5.2 0 a 2.6 2.6 0 1 0 -5.2 0 Z" fill="#2C2C2A" fill-rule="nonzero"/>
  </g>
</svg>
