<svg xmlns="http://www.w3.org/2000/svg" viewBox="0 0 128 128" width="128" height="128">
  <title>Terrarium head-soft-square south authored art</title>
  <desc>Soft crown and rounded jaw held on a clearly squared frame.</desc>
  <g id="art" transform="translate(64 44)">
    <path id="art/silhouette" d="M 0 -21 C 9 -21 16 -17 19 -9 C 20 -3 20 5 19 11 C 18 18 14 21 8 22 H -8 C -14 21 -18 18 -19 11 C -20 5 -20 -3 -19 -9 C -16 -17 -9 -21 0 -21 Z" fill="#FF00FF" fill-rule="nonzero"/>
    <path id="detail/eye-left" d="M -10.6 0 a 2.6 2.6 0 1 0 5.2 0 a 2.6 2.6 0 1 0 -5.2 0 Z" fill="#2C2C2A" fill-rule="nonzero"/>
    <path id="detail/eye-right" d="M 5.4 0 a 2.6 2.6 0 1 0 5.2 0 a 2.6 2.6 0 1 0 -5.2 0 Z" fill="#2C2C2A" fill-rule="nonzero"/>
  </g>
</svg>
