<svg xmlns="http://www.w3.org/2000/svg" width="760" height="776" viewBox="0 0 760 776"><rect width="760" height="776" fill="#F4F1E9"/><text x="18" y="28" font-family="system-ui, sans-serif" font-size="19" font-weight="700" fill="#2F3538">Flat silhouette comparison</text><text x="18" y="49" font-family="system-ui, sans-serif" font-size="11" font-weight="400" fill="#68747A">No head, outfit detail, outline, shadow, or palette variation.</text><text x="223" y="73" font-family="system-ui, sans-serif" font-size="11" font-weight="600" fill="#68747A">south</text><text x="363" y="73" font-family="system-ui, sans-serif" font-size="11" font-weight="600" fill="#68747A">east</text><text x="503" y="73" font-family="system-ui, sans-serif" font-size="11" font-weight="600" fill="#68747A">north</text><text x="643" y="73" font-family="system-ui, sans-serif" font-size="11" font-weight="600" fill="#68747A">west</text><text x="20" y="144" font-family="system-ui, sans-serif" font-size="15" font-weight="700" fill="#2F3538">Compact</text><rect x="178" y="91" width="128" height="128" rx="5" fill="#FFFFFF" stroke="#CFC9BC"/><path d="M 242 91 V 219 M 178 178 H 306" stroke="#CFC9BC" stroke-width="0.7" stroke-dasharray="3 4"/><g transform="translate(178 91) scale(1)"><g transform="translate(64 0) scale(1 1) translate(-64 0)"><g transform="translate(64 87)"><path d="M 0 -24 C -13 -24 -24 -22 -28 -16 C -30 -7 -29 5 -27 14 C -25 23 -19 28 -10 29 C -4 30 4 30 10 29 C 19 28 25 23 27 14 C 29 5 30 -7 28 -16 C 24 -22 13 -24 0 -24 Z" fill="#171A1C"/><path d="M -18 20 a 18 7 0 1 0 36 0 a 18 7 0 1 0 -36 0 Z" fill="#00000012"/></g><g transform="translate(64 87)"><path d="M -12 -17 a 12 4 0 1 0 24 0 a 12 4 0 1 0 -24 0 Z" fill="#00000018"/></g></g></g><rect x="318" y="91" width="128" height="128" rx="5" fill="#FFFFFF" stroke="#CFC9BC"/><path d="M 382 91 V 219 M 318 178 H 446" stroke="#CFC9BC" stroke-width="0.7" stroke-dasharray="3 4"/><g transform="translate(318 91) scale(1)"><g transform="translate(64 0) scale(1 1) translate(-64 0)"><g transform="translate(64 87)"><path d="M 0 -24 C -9 -24 -17 -22 -20 -16 C -23 -7 -22 4 -20 14 C -18 23 -12 28 -4 29 C 3 30 10 29 15 26 C 21 22 23 14 22 5 C 23 -4 23 -12 20 -17 C 16 -23 9 -24 0 -24 Z" fill="#171A1C"/><path d="M -13 20 a 13 7 0 1 0 26 0 a 13 7 0 1 0 -26 0 Z" fill="#00000012"/></g><g transform="translate(64 87)"><path d="M -9 -17 a 9 4 0 1 0 18 0 a 9 4 0 1 0 -18 0 Z" fill="#00000018"/></g></g></g><rect x="458" y="91" width="128" height="128" rx="5" fill="#FFFFFF" stroke="#CFC9BC"/><path d="M 522 91 V 219 M 458 178 H 586" stroke="#CFC9BC" stroke-width="0.7" stroke-dasharray="3 4"/><g transform="translate(458 91) scale(1)"><g transform="translate(64 0) scale(1 1) translate(-64 0)"><g transform="translate(64 87)"><path d="M 0 -24 C -13 -24 -24 -22 -28 -16 C -30 -7 -29 5 -27 14 C -25 23 -19 28 -10 29 C -4 30 4 30 10 29 C 19 28 25 23 27 14 C 29 5 30 -7 28 -16 C 24 -22 13 -24 0 -24 Z" fill="#171A1C"/></g><g transform="translate(64 87)"><path d="M -12 -17 a 12 4 0 1 0 24 0 a 12 4 0 1 0 -24 0 Z" fill="#00000018"/></g></g></g><rect x="598" y="91" width="128" height="128" rx="5" fill="#FFFFFF" stroke="#CFC9BC"/><path d="M 662 91 V 219 M 598 178 H 726" stroke="#CFC9BC" stroke-width="0.7" stroke-dasharray="3 4"/><g transform="translate(598 91) scale(1)"><g transform="translate(128 0) scale(-1 1)"><g transform="translate(64 0) scale(1 1) translate(-64 0)"><g transform="translate(64 87)"><path d="M 0 -24 C -9 -24 -17 -22 -20 -16 C -23 -7 -22 4 -20 14 C -18 23 -12 28 -4 29 C 3 30 10 29 15 26 C 21 22 23 14 22 5 C 23 -4 23 -12 20 -17 C 16 -23 9 -24 0 -24 Z" fill="#171A1C"/><path d="M -13 20 a 13 7 0 1 0 26 0 a 13 7 0 1 0 -26 0 Z" fill="#00000012"/></g><g transform="translate(64 87)"><path d="M -9 -17 a 9 4 0 1 0 18 0 a 9 4 0 1 0 -18 0 Z" fill="#00000018"/></g></g></g></g><text x="20" y="282" font-family="system-ui, sans-serif" font-size="15" font-weight="700" fill="#2F3538">Balanced</text><rect x="178" y="229" width="128" height="128" rx="5" fill="#FFFFFF" stroke="#CFC9BC"/><path d="M 242 229 V 357 M 178 316 H 306" stroke="#CFC9BC" stroke-width="0.7" stroke-dasharray="3 4"/><g transform="translate(178 229) scale(1)"><g transform="translate(64 0) scale(1 1) translate(-64 0)"><g transform="translate(64 87)"><path d="M 0 -29 C -12 -29 -23 -27 -27 -20 C -30 -11 -27 -1 -25 8 C -23 18 -20 26 -11 29 C -4 30 4 30 11 29 C 20 26 23 18 25 8 C 27 -1 30 -11 27 -20 C 23 -27 12 -29 0 -29 Z" fill="#171A1C"/><path d="M -16 20 a 16 7 0 1 0 32 0 a 16 7 0 1 0 -32 0 Z" fill="#00000012"/></g><g transform="translate(64 87)"><path d="M -12 -22 a 12 4 0 1 0 24 0 a 12 4 0 1 0 -24 0 Z" fill="#00000018"/></g></g></g><rect x="318" y="229" width="128" height="128" rx="5" fill="#FFFFFF" stroke="#CFC9BC"/><path d="M 382 229 V 357 M 318 316 H 446" stroke="#CFC9BC" stroke-width="0.7" stroke-dasharray="3 4"/><g transform="translate(318 229) scale(1)"><g transform="translate(64 0) scale(1 1) translate(-64 0)"><g transform="translate(64 87)"><path d="M 1 -29 C -8 -29 -16 -26 -18 -19 C -20 -10 -18 2 -17 12 C -16 22 -11 27 -3 29 C 4 30 11 29 15 26 C 20 21 20 13 19 6 C 21 -2 22 -11 20 -17 C 18 -25 11 -29 1 -29 Z" fill="#171A1C"/><path d="M -11 20 a 11 7 0 1 0 22 0 a 11 7 0 1 0 -22 0 Z" fill="#00000012"/></g><g transform="translate(64 87)"><path d="M -9 -22 a 9 4 0 1 0 18 0 a 9 4 0 1 0 -18 0 Z" fill="#00000018"/></g></g></g><rect x="458" y="229" width="128" height="128" rx="5" fill="#FFFFFF" stroke="#CFC9BC"/><path d="M 522 229 V 357 M 458 316 H 586" stroke="#CFC9BC" stroke-width="0.7" stroke-dasharray="3 4"/><g transform="translate(458 229) scale(1)"><g transform="translate(64 0) scale(1 1) translate(-64 0)"><g transform="translate(64 87)"><path d="M 0 -29 C -12 -29 -23 -27 -27 -20 C -30 -11 -27 -1 -25 8 C -23 18 -20 26 -11 29 C -4 30 4 30 11 29 C 20 26 23 18 25 8 C 27 -1 30 -11 27 -20 C 23 -27 12 -29 0 -29 Z" fill="#171A1C"/></g><g transform="translate(64 87)"><path d="M -12 -22 a 12 4 0 1 0 24 0 a 12 4 0 1 0 -24 0 Z" fill="#00000018"/></g></g></g><rect x="598" y="229" width="128" height="128" rx="5" fill="#FFFFFF" stroke="#CFC9BC"/><path d="M 662 229 V 357 M 598 316 H 726" stroke="#CFC9BC" stroke-width="0.7" stroke-dasharray="3 4"/><g transform="translate(598 229) scale(1)"><g transform="translate(128 0) scale(-1 1)"><g transform="translate(64 0) scale(1 1) translate(-64 0)"><g transform="translate(64 87)"><path d="M 1 -29 C -8 -29 -16 -26 -18 -19 C -20 -10 -18 2 -17 12 C -16 22 -11 27 -3 29 C 4 30 11 29 15 26 C 20 21 20 13 19 6 C 21 -2 22 -11 20 -17 C 18 -25 11 -29 1 -29 Z" fill="#171A1C"/><path d="M -11 20 a 11 7 0 1 0 22 0 a 11 7 0 1 0 -22 0 Z" fill="#00000012"/></g><g transform="translate(64 87)"><path d="M -9 -22 a 9 4 0 1 0 18 0 a 9 4 0 1 0 -18 0 Z" fill="#00000018"/></g></g></g></g><text x="20" y="420" font-family="system-ui, sans-serif" font-size="15" font-weight="700" fill="#2F3538">Large-frame</text><rect x="178" y="367" width="128" height="128" rx="5" fill="#FFFFFF" stroke="#CFC9BC"/><path d="M 242 367 V 495 M 178 454 H 306" stroke="#CFC9BC" stroke-width="0.7" stroke-dasharray="3 4"/><g transform="translate(178 367) scale(1)"><g transform="translate(64 0) scale(1 1) translate(-64 0)"><g transform="translate(64 87)"><path d="M 0 -30 C -15 -30 -28 -28 -34 -22 C -37 -17 -37 -11 -34 -5 C -32 1 -31 7 -29 12 C -27 21 -22 27 -12 29 C -4 30 4 30 12 29 C 22 27 27 21 29 12 C 31 7 32 1 34 -5 C 37 -11 37 -17 34 -22 C 28 -28 15 -30 0 -30 Z" fill="#171A1C"/><path d="M -20 20 a 20 7 0 1 0 40 0 a 20 7 0 1 0 -40 0 Z" fill="#00000012"/></g><g transform="translate(64 87)"><path d="M -12 -23 a 12 4 0 1 0 24 0 a 12 4 0 1 0 -24 0 Z" fill="#00000018"/></g></g></g><rect x="318" y="367" width="128" height="128" rx="5" fill="#FFFFFF" stroke="#CFC9BC"/><path d="M 382 367 V 495 M 318 454 H 446" stroke="#CFC9BC" stroke-width="0.7" stroke-dasharray="3 4"/><g transform="translate(318 367) scale(1)"><g transform="translate(64 0) scale(1 1) translate(-64 0)"><g transform="translate(64 87)"><path d="M 1 -30 C -10 -30 -20 -28 -23 -21 C -26 -12 -24 -1 -22 9 C -22 19 -17 26 -8 29 C 0 31 9 30 16 27 C 24 23 27 15 25 6 C 27 -3 28 -12 25 -19 C 22 -27 13 -30 1 -30 Z" fill="#171A1C"/><path d="M -15 20 a 15 7 0 1 0 30 0 a 15 7 0 1 0 -30 0 Z" fill="#00000012"/></g><g transform="translate(64 87)"><path d="M -9 -23 a 9 4 0 1 0 18 0 a 9 4 0 1 0 -18 0 Z" fill="#00000018"/></g></g></g><rect x="458" y="367" width="128" height="128" rx="5" fill="#FFFFFF" stroke="#CFC9BC"/><path d="M 522 367 V 495 M 458 454 H 586" stroke="#CFC9BC" stroke-width="0.7" stroke-dasharray="3 4"/><g transform="translate(458 367) scale(1)"><g transform="translate(64 0) scale(1 1) translate(-64 0)"><g transform="translate(64 87)"><path d="M 0 -30 C -15 -30 -28 -28 -34 -22 C -37 -17 -37 -11 -34 -5 C -32 1 -31 7 -29 12 C -27 21 -22 27 -12 29 C -4 30 4 30 12 29 C 22 27 27 21 29 12 C 31 7 32 1 34 -5 C 37 -11 37 -17 34 -22 C 28 -28 15 -30 0 -30 Z" fill="#171A1C"/></g><g transform="translate(64 87)"><path d="M -12 -23 a 12 4 0 1 0 24 0 a 12 4 0 1 0 -24 0 Z" fill="#00000018"/></g></g></g><rect x="598" y="367" width="128" height="128" rx="5" fill="#FFFFFF" stroke="#CFC9BC"/><path d="M 662 367 V 495 M 598 454 H 726" stroke="#CFC9BC" stroke-width="0.7" stroke-dasharray="3 4"/><g transform="translate(598 367) scale(1)"><g transform="translate(128 0) scale(-1 1)"><g transform="translate(64 0) scale(1 1) translate(-64 0)"><g transform="translate(64 87)"><path d="M 1 -30 C -10 -30 -20 -28 -23 -21 C -26 -12 -24 -1 -22 9 C -22 19 -17 26 -8 29 C 0 31 9 30 16 27 C 24 23 27 15 25 6 C 27 -3 28 -12 25 -19 C 22 -27 13 -30 1 -30 Z" fill="#171A1C"/><path d="M -15 20 a 15 7 0 1 0 30 0 a 15 7 0 1 0 -30 0 Z" fill="#00000012"/></g><g transform="translate(64 87)"><path d="M -9 -23 a 9 4 0 1 0 18 0 a 9 4 0 1 0 -18 0 Z" fill="#00000018"/></g></g></g></g><text x="20" y="558" font-family="system-ui, sans-serif" font-size="15" font-weight="700" fill="#2F3538">Tall</text><rect x="178" y="505" width="128" height="128" rx="5" fill="#FFFFFF" stroke="#CFC9BC"/><path d="M 242 505 V 633 M 178 592 H 306" stroke="#CFC9BC" stroke-width="0.7" stroke-dasharray="3 4"/><g transform="translate(178 505) scale(1)"><g transform="translate(64 0) scale(1 1) translate(-64 0)"><g transform="translate(64 87)"><path d="M 0 -34 C -10 -34 -21 -32 -24 -25 C -27 -16 -24 -4 -22 7 C -20 18 -17 26 -9 29 C -3 30 3 30 9 29 C 17 26 20 18 22 7 C 24 -4 27 -16 24 -25 C 21 -32 10 -34 0 -34 Z" fill="#171A1C"/><path d="M -13 20 a 13 7 0 1 0 26 0 a 13 7 0 1 0 -26 0 Z" fill="#00000012"/></g><g transform="translate(64 87)"><path d="M -12 -27 a 12 4 0 1 0 24 0 a 12 4 0 1 0 -24 0 Z" fill="#00000018"/></g></g></g><rect x="318" y="505" width="128" height="128" rx="5" fill="#FFFFFF" stroke="#CFC9BC"/><path d="M 382 505 V 633 M 318 592 H 446" stroke="#CFC9BC" stroke-width="0.7" stroke-dasharray="3 4"/><g transform="translate(318 505) scale(1)"><g transform="translate(64 0) scale(1 1) translate(-64 0)"><g transform="translate(64 87)"><path d="M 1 -34 C -7 -34 -14 -31 -16 -25 C -19 -16 -17 -4 -16 8 C -15 19 -11 26 -4 29 C 2 30 8 29 12 26 C 17 22 18 15 17 7 C 19 -3 20 -15 18 -23 C 16 -31 10 -34 1 -34 Z" fill="#171A1C"/><path d="M -10 20 a 10 7 0 1 0 20 0 a 10 7 0 1 0 -20 0 Z" fill="#00000012"/></g><g transform="translate(64 87)"><path d="M -9 -27 a 9 4 0 1 0 18 0 a 9 4 0 1 0 -18 0 Z" fill="#00000018"/></g></g></g><rect x="458" y="505" width="128" height="128" rx="5" fill="#FFFFFF" stroke="#CFC9BC"/><path d="M 522 505 V 633 M 458 592 H 586" stroke="#CFC9BC" stroke-width="0.7" stroke-dasharray="3 4"/><g transform="translate(458 505) scale(1)"><g transform="translate(64 0) scale(1 1) translate(-64 0)"><g transform="translate(64 87)"><path d="M 0 -34 C -10 -34 -21 -32 -24 -25 C -27 -16 -24 -4 -22 7 C -20 18 -17 26 -9 29 C -3 30 3 30 9 29 C 17 26 20 18 22 7 C 24 -4 27 -16 24 -25 C 21 -32 10 -34 0 -34 Z" fill="#171A1C"/></g><g transform="translate(64 87)"><path d="M -12 -27 a 12 4 0 1 0 24 0 a 12 4 0 1 0 -24 0 Z" fill="#00000018"/></g></g></g><rect x="598" y="505" width="128" height="128" rx="5" fill="#FFFFFF" stroke="#CFC9BC"/><path d="M 662 505 V 633 M 598 592 H 726" stroke="#CFC9BC" stroke-width="0.7" stroke-dasharray="3 4"/><g transform="translate(598 505) scale(1)"><g transform="translate(128 0) scale(-1 1)"><g transform="translate(64 0) scale(1 1) translate(-64 0)"><g transform="translate(64 87)"><path d="M 1 -34 C -7 -34 -14 -31 -16 -25 C -19 -16 -17 -4 -16 8 C -15 19 -11 26 -4 29 C 2 30 8 29 12 26 C 17 22 18 15 17 7 C 19 -3 20 -15 18 -23 C 16 -31 10 -34 1 -34 Z" fill="#171A1C"/><path d="M -10 20 a 10 7 0 1 0 20 0 a 10 7 0 1 0 -20 0 Z" fill="#00000012"/></g><g transform="translate(64 87)"><path d="M -9 -27 a 9 4 0 1 0 18 0 a 9 4 0 1 0 -18 0 Z" fill="#00000018"/></g></g></g></g><text x="20" y="696" font-family="system-ui, sans-serif" font-size="15" font-weight="700" fill="#2F3538">Soft</text><rect x="178" y="643" width="128" height="128" rx="5" fill="#FFFFFF" stroke="#CFC9BC"/><path d="M 242 643 V 771 M 178 730 H 306" stroke="#CFC9BC" stroke-width="0.7" stroke-dasharray="3 4"/><g transform="translate(178 643) scale(1)"><g transform="translate(64 0) scale(1 1) translate(-64 0)"><g transform="translate(64 87)"><path d="M 0 -28 C -11 -28 -20 -25 -24 -18 C -27 -10 -27 -1 -30 8 C -33 17 -30 25 -22 28 C -15 31 -6 30 0 29 C 6 30 15 31 22 28 C 30 25 33 17 30 8 C 27 -1 27 -10 24 -18 C 20 -25 11 -28 0 -28 Z" fill="#171A1C"/><path d="M -21 20 a 21 7 0 1 0 42 0 a 21 7 0 1 0 -42 0 Z" fill="#00000012"/></g><g transform="translate(64 87)"><path d="M -12 -21 a 12 4 0 1 0 24 0 a 12 4 0 1 0 -24 0 Z" fill="#00000018"/></g></g></g><rect x="318" y="643" width="128" height="128" rx="5" fill="#FFFFFF" stroke="#CFC9BC"/><path d="M 382 643 V 771 M 318 730 H 446" stroke="#CFC9BC" stroke-width="0.7" stroke-dasharray="3 4"/><g transform="translate(318 643) scale(1)"><g transform="translate(64 0) scale(1 1) translate(-64 0)"><g transform="translate(64 87)"><path d="M 1 -28 C -9 -28 -18 -25 -20 -18 C -23 -9 -21 0 -23 9 C -25 18 -21 26 -13 29 C -5 31 5 30 12 29 C 22 27 28 19 28 10 C 29 1 26 -7 24 -15 C 22 -23 13 -28 1 -28 Z" fill="#171A1C"/><path d="M -16 20 a 16 7 0 1 0 32 0 a 16 7 0 1 0 -32 0 Z" fill="#00000012"/></g><g transform="translate(64 87)"><path d="M -9 -21 a 9 4 0 1 0 18 0 a 9 4 0 1 0 -18 0 Z" fill="#00000018"/></g></g></g><rect x="458" y="643" width="128" height="128" rx="5" fill="#FFFFFF" stroke="#CFC9BC"/><path d="M 522 643 V 771 M 458 730 H 586" stroke="#CFC9BC" stroke-width="0.7" stroke-dasharray="3 4"/><g transform="translate(458 643) scale(1)"><g transform="translate(64 0) scale(1 1) translate(-64 0)"><g transform="translate(64 87)"><path d="M 0 -28 C -11 -28 -20 -25 -24 -18 C -27 -10 -27 -1 -30 8 C -33 17 -30 25 -22 28 C -15 31 -6 30 0 29 C 6 30 15 31 22 28 C 30 25 33 17 30 8 C 27 -1 27 -10 24 -18 C 20 -25 11 -28 0 -28 Z" fill="#171A1C"/></g><g transform="translate(64 87)"><path d="M -12 -21 a 12 4 0 1 0 24 0 a 12 4 0 1 0 -24 0 Z" fill="#00000018"/></g></g></g><rect x="598" y="643" width="128" height="128" rx="5" fill="#FFFFFF" stroke="#CFC9BC"/><path d="M 662 643 V 771 M 598 730 H 726" stroke="#CFC9BC" stroke-width="0.7" stroke-dasharray="3 4"/><g transform="translate(598 643) scale(1)"><g transform="translate(128 0) scale(-1 1)"><g transform="translate(64 0) scale(1 1) translate(-64 0)"><g transform="translate(64 87)"><path d="M 1 -28 C -9 -28 -18 -25 -20 -18 C -23 -9 -21 0 -23 9 C -25 18 -21 26 -13 29 C -5 31 5 30 12 29 C 22 27 28 19 28 10 C 29 1 26 -7 24 -15 C 22 -23 13 -28 1 -28 Z" fill="#171A1C"/><path d="M -16 20 a 16 7 0 1 0 32 0 a 16 7 0 1 0 -32 0 Z" fill="#00000012"/></g><g transform="translate(64 87)"><path d="M -9 -21 a 9 4 0 1 0 18 0 a 9 4 0 1 0 -18 0 Z" fill="#00000018"/></g></g></g></g></svg>