<svg xmlns="http://www.w3.org/2000/svg" width="1060" height="872" viewBox="0 0 1060 872"><rect width="1060" height="872" fill="#F4F1E9"/><text x="18" y="30" font-family="system-ui, sans-serif" font-size="20" font-weight="700" fill="#2F3538">Body archetype trial — active body-owned rig</text><text x="18" y="53" font-family="system-ui, sans-serif" font-size="12" font-weight="400" fill="#68747A">Crew tee, head stack, portraits, and attachments now follow each silhouette-approved body.</text><text x="232" y="78" font-family="system-ui, sans-serif" font-size="11" font-weight="600" fill="#68747A">south</text><text x="370" y="78" font-family="system-ui, sans-serif" font-size="11" font-weight="600" fill="#68747A">east</text><text x="508" y="78" font-family="system-ui, sans-serif" font-size="11" font-weight="600" fill="#68747A">north</text><text x="646" y="78" font-family="system-ui, sans-serif" font-size="11" font-weight="600" fill="#68747A">west</text><text x="764" y="78" font-family="system-ui, sans-serif" font-size="11" font-weight="600" fill="#68747A">distance: 64 / 48 / 32 px</text><rect x="8" y="96" width="1044" height="148" rx="8" fill="#FFFEFA"/><text x="22" y="134" font-family="system-ui, sans-serif" font-size="16" font-weight="700" fill="#2F3538">Compact</text><text x="22" y="154" font-family="system-ui, sans-serif" font-size="10" font-weight="600" fill="#68747A">id: compact</text><text x="22" y="176" font-family="system-ui, sans-serif" font-size="10" font-weight="400" fill="#68747A">Short vertical rhythm,</text><text x="22" y="191" font-family="system-ui, sans-serif" font-size="10" font-weight="400" fill="#68747A">grounded stance, and broad</text><text x="22" y="206" font-family="system-ui, sans-serif" font-size="10" font-weight="400" fill="#68747A">readable shoulders.</text><rect x="188" y="106" width="128" height="128" rx="5" fill="#FFFFFF" stroke="#CFC9BC"/><g transform="translate(188 106) scale(1)"><path d="M 48 113 a 16 4.5 0 1 0 32 0 a 16 4.5 0 1 0 -32 0 Z" fill="#000000" opacity="0.12"/><g transform="translate(64 0) scale(1 1) translate(-64 0)"><g transform="translate(64 87)"><path d="M 0 -24 C -13 -24 -24 -22 -28 -16 C -30 -7 -29 5 -27 14 C -25 23 -19 28 -10 29 C -4 30 4 30 10 29 C 19 28 25 23 27 14 C 29 5 30 -7 28 -16 C 24 -22 13 -24 0 -24 Z" fill="#3A342E" stroke="#3A342E" stroke-width="5" stroke-linejoin="round" stroke-linecap="round"/></g></g><g transform="translate(64 63) scale(1) translate(-64 -63)"><g transform="translate(64 49)"><path d="M -9 -19 h 18 a 9 9 0 0 1 9 9 v 23 a 9 9 0 0 1 -9 9 h -18 a 9 9 0 0 1 -9 -9 v -23 a 9 9 0 0 1 9 -9 Z" fill="#3A342E" stroke="#3A342E" stroke-width="5" stroke-linejoin="round" stroke-linecap="round"/></g><g transform="translate(64 49)"><path d="M -19.79898987322333 -7 A 21 21 0 0 1 19.79898987322333 -7 Z" fill="#3A342E" stroke="#3A342E" stroke-width="5" stroke-linejoin="round" stroke-linecap="round"/><path d="M -19 -6 C -7 -18 8 -19 20 -7 L 15 1 C 5 -7 -6 -8 -17 1 Z" fill="#3A342E" stroke="#3A342E" stroke-width="5" stroke-linejoin="round" stroke-linecap="round"/></g></g><g transform="translate(64 0) scale(1 1) translate(-64 0)"><g transform="translate(64 87)"><path d="M 0 -24 C -13 -24 -24 -22 -28 -16 C -30 -7 -29 5 -27 14 C -25 23 -19 28 -10 29 C -4 30 4 30 10 29 C 19 28 25 23 27 14 C 29 5 30 -7 28 -16 C 24 -22 13 -24 0 -24 Z" fill="#315A78"/><path d="M -18 20 a 18 7 0 1 0 36 0 a 18 7 0 1 0 -36 0 Z" fill="#00000012"/></g><g transform="translate(64 87)"><path d="M -9.180000000000001 -24 Q 0 -17 9.180000000000001 -24 Z" fill="#C68B59"/></g><g transform="translate(64 87)"><path d="M -12 -17 a 12 4 0 1 0 24 0 a 12 4 0 1 0 -24 0 Z" fill="#00000018"/></g></g><g transform="translate(64 63) scale(1) translate(-64 -63)"><g transform="translate(64 49)"><path d="M -9 -19 h 18 a 9 9 0 0 1 9 9 v 23 a 9 9 0 0 1 -9 9 h -18 a 9 9 0 0 1 -9 -9 v -23 a 9 9 0 0 1 9 -9 Z" fill="#C68B59"/><path d="M -10.6 0 a 2.6 2.6 0 1 0 5.2 0 a 2.6 2.6 0 1 0 -5.2 0 Z" fill="#2C2C2A"/><path d="M 5.4 0 a 2.6 2.6 0 1 0 5.2 0 a 2.6 2.6 0 1 0 -5.2 0 Z" fill="#2C2C2A"/></g><g transform="translate(64 49)"><path d="M -19.79898987322333 -7 A 21 21 0 0 1 19.79898987322333 -7 Z" fill="#2B211D"/><path d="M -19 -6 C -7 -18 8 -19 20 -7 L 15 1 C 5 -7 -6 -8 -17 1 Z" fill="#2B211D"/><path d="M -5 -15 C -3 -8 -2 -2 -2 7" fill="none" stroke="#00000024" stroke-width="1.6" stroke-linecap="round" stroke-linejoin="round"/></g></g></g><rect x="326" y="106" width="128" height="128" rx="5" fill="#FFFFFF" stroke="#CFC9BC"/><g transform="translate(326 106) scale(1)"><path d="M 48 113 a 16 4.5 0 1 0 32 0 a 16 4.5 0 1 0 -32 0 Z" fill="#000000" opacity="0.12"/><g transform="translate(64 0) scale(1 1) translate(-64 0)"><g transform="translate(64 87)"><path d="M 0 -24 C -9 -24 -17 -22 -20 -16 C -23 -7 -22 4 -20 14 C -18 23 -12 28 -4 29 C 3 30 10 29 15 26 C 21 22 23 14 22 5 C 23 -4 23 -12 20 -17 C 16 -23 9 -24 0 -24 Z" fill="#3A342E" stroke="#3A342E" stroke-width="5" stroke-linejoin="round" stroke-linecap="round"/></g></g><g transform="translate(64 63) scale(1) translate(-64 -63)"><g transform="translate(67 49)"><path d="M -7 -19 h 15 a 9 9 0 0 1 9 9 v 23 a 9 9 0 0 1 -9 9 h -15 a 9 9 0 0 1 -9 -9 v -23 a 9 9 0 0 1 9 -9 Z" fill="#3A342E" stroke="#3A342E" stroke-width="5" stroke-linejoin="round" stroke-linecap="round"/></g><g transform="translate(67 49)"><path d="M -19.79898987322333 -7 A 21 21 0 0 1 19.79898987322333 -7 Z" fill="#3A342E" stroke="#3A342E" stroke-width="5" stroke-linejoin="round" stroke-linecap="round"/><path d="M -17 -8 h 0 a 4 4 0 0 1 4 4 v 8 a 4 4 0 0 1 -4 4 h 0 a 4 4 0 0 1 -4 -4 v -8 a 4 4 0 0 1 4 -4 Z" fill="#3A342E" stroke="#3A342E" stroke-width="5" stroke-linejoin="round" stroke-linecap="round"/><path d="M -6 -16 C 6 -16 16 -10 19 -3 L 12 2 C 5 -4 -3 -5 -11 0 Z" fill="#3A342E" stroke="#3A342E" stroke-width="5" stroke-linejoin="round" stroke-linecap="round"/></g></g><g transform="translate(64 0) scale(1 1) translate(-64 0)"><g transform="translate(64 87)"><path d="M 0 -24 C -9 -24 -17 -22 -20 -16 C -23 -7 -22 4 -20 14 C -18 23 -12 28 -4 29 C 3 30 10 29 15 26 C 21 22 23 14 22 5 C 23 -4 23 -12 20 -17 C 16 -23 9 -24 0 -24 Z" fill="#315A78"/><path d="M -13 20 a 13 7 0 1 0 26 0 a 13 7 0 1 0 -26 0 Z" fill="#00000012"/></g><g transform="translate(64 87)"><path d="M -4 -24 Q 1 -19 6 -24 Z" fill="#C68B59"/></g><g transform="translate(64 87)"><path d="M -9 -17 a 9 4 0 1 0 18 0 a 9 4 0 1 0 -18 0 Z" fill="#00000018"/></g></g><g transform="translate(64 63) scale(1) translate(-64 -63)"><g transform="translate(67 49)"><path d="M -7 -19 h 15 a 9 9 0 0 1 9 9 v 23 a 9 9 0 0 1 -9 9 h -15 a 9 9 0 0 1 -9 -9 v -23 a 9 9 0 0 1 9 -9 Z" fill="#C68B59"/><path d="M 8.4 0 a 2.6 2.6 0 1 0 5.2 0 a 2.6 2.6 0 1 0 -5.2 0 Z" fill="#2C2C2A"/></g><g transform="translate(67 49)"><path d="M -19.79898987322333 -7 A 21 21 0 0 1 19.79898987322333 -7 Z" fill="#2B211D"/><path d="M -17 -8 h 0 a 4 4 0 0 1 4 4 v 8 a 4 4 0 0 1 -4 4 h 0 a 4 4 0 0 1 -4 -4 v -8 a 4 4 0 0 1 4 -4 Z" fill="#2B211D"/><path d="M -6 -16 C 6 -16 16 -10 19 -3 L 12 2 C 5 -4 -3 -5 -11 0 Z" fill="#2B211D"/></g></g></g><rect x="464" y="106" width="128" height="128" rx="5" fill="#FFFFFF" stroke="#CFC9BC"/><g transform="translate(464 106) scale(1)"><path d="M 48 113 a 16 4.5 0 1 0 32 0 a 16 4.5 0 1 0 -32 0 Z" fill="#000000" opacity="0.12"/><g transform="translate(64 0) scale(1 1) translate(-64 0)"><g transform="translate(64 87)"><path d="M 0 -24 C -13 -24 -24 -22 -28 -16 C -30 -7 -29 5 -27 14 C -25 23 -19 28 -10 29 C -4 30 4 30 10 29 C 19 28 25 23 27 14 C 29 5 30 -7 28 -16 C 24 -22 13 -24 0 -24 Z" fill="#3A342E" stroke="#3A342E" stroke-width="5" stroke-linejoin="round" stroke-linecap="round"/></g></g><g transform="translate(64 63) scale(1) translate(-64 -63)"><g transform="translate(64 49)"><path d="M -9 -19 h 18 a 9 9 0 0 1 9 9 v 23 a 9 9 0 0 1 -9 9 h -18 a 9 9 0 0 1 -9 -9 v -23 a 9 9 0 0 1 9 -9 Z" fill="#3A342E" stroke="#3A342E" stroke-width="5" stroke-linejoin="round" stroke-linecap="round"/></g><g transform="translate(64 49)"><path d="M -20.396078054371138 5 A 21 21 0 1 1 20.396078054371138 5 Z" fill="#3A342E" stroke="#3A342E" stroke-width="5" stroke-linejoin="round" stroke-linecap="round"/><path d="M -19 0 C -7 9 8 9 20 1 L 20 13 L -20 13 Z" fill="#3A342E" stroke="#3A342E" stroke-width="5" stroke-linejoin="round" stroke-linecap="round"/></g></g><g transform="translate(64 0) scale(1 1) translate(-64 0)"><g transform="translate(64 87)"><path d="M 0 -24 C -13 -24 -24 -22 -28 -16 C -30 -7 -29 5 -27 14 C -25 23 -19 28 -10 29 C -4 30 4 30 10 29 C 19 28 25 23 27 14 C 29 5 30 -7 28 -16 C 24 -22 13 -24 0 -24 Z" fill="#315A78"/></g><g transform="translate(64 87)"><path d="M -12 -17 a 12 4 0 1 0 24 0 a 12 4 0 1 0 -24 0 Z" fill="#00000018"/></g></g><g transform="translate(64 63) scale(1) translate(-64 -63)"><g transform="translate(64 49)"><path d="M -9 -19 h 18 a 9 9 0 0 1 9 9 v 23 a 9 9 0 0 1 -9 9 h -18 a 9 9 0 0 1 -9 -9 v -23 a 9 9 0 0 1 9 -9 Z" fill="#C68B59"/></g><g transform="translate(64 49)"><path d="M -20.396078054371138 5 A 21 21 0 1 1 20.396078054371138 5 Z" fill="#2B211D"/><path d="M -19 0 C -7 9 8 9 20 1 L 20 13 L -20 13 Z" fill="#2B211D"/></g></g></g><rect x="602" y="106" width="128" height="128" rx="5" fill="#FFFFFF" stroke="#CFC9BC"/><g transform="translate(602 106) scale(1)"><path d="M 48 113 a 16 4.5 0 1 0 32 0 a 16 4.5 0 1 0 -32 0 Z" fill="#000000" opacity="0.12"/><g transform="translate(128 0) scale(-1 1)"><g transform="translate(64 0) scale(1 1) translate(-64 0)"><g transform="translate(64 87)"><path d="M 0 -24 C -9 -24 -17 -22 -20 -16 C -23 -7 -22 4 -20 14 C -18 23 -12 28 -4 29 C 3 30 10 29 15 26 C 21 22 23 14 22 5 C 23 -4 23 -12 20 -17 C 16 -23 9 -24 0 -24 Z" fill="#3A342E" stroke="#3A342E" stroke-width="5" stroke-linejoin="round" stroke-linecap="round"/></g></g><g transform="translate(64 63) scale(1) translate(-64 -63)"><g transform="translate(67 49)"><path d="M -7 -19 h 15 a 9 9 0 0 1 9 9 v 23 a 9 9 0 0 1 -9 9 h -15 a 9 9 0 0 1 -9 -9 v -23 a 9 9 0 0 1 9 -9 Z" fill="#3A342E" stroke="#3A342E" stroke-width="5" stroke-linejoin="round" stroke-linecap="round"/></g><g transform="translate(67 49)"><path d="M -19.79898987322333 -7 A 21 21 0 0 1 19.79898987322333 -7 Z" fill="#3A342E" stroke="#3A342E" stroke-width="5" stroke-linejoin="round" stroke-linecap="round"/><path d="M -17 -8 h 0 a 4 4 0 0 1 4 4 v 8 a 4 4 0 0 1 -4 4 h 0 a 4 4 0 0 1 -4 -4 v -8 a 4 4 0 0 1 4 -4 Z" fill="#3A342E" stroke="#3A342E" stroke-width="5" stroke-linejoin="round" stroke-linecap="round"/><path d="M -6 -16 C 6 -16 16 -10 19 -3 L 12 2 C 5 -4 -3 -5 -11 0 Z" fill="#3A342E" stroke="#3A342E" stroke-width="5" stroke-linejoin="round" stroke-linecap="round"/></g></g><g transform="translate(64 0) scale(1 1) translate(-64 0)"><g transform="translate(64 87)"><path d="M 0 -24 C -9 -24 -17 -22 -20 -16 C -23 -7 -22 4 -20 14 C -18 23 -12 28 -4 29 C 3 30 10 29 15 26 C 21 22 23 14 22 5 C 23 -4 23 -12 20 -17 C 16 -23 9 -24 0 -24 Z" fill="#315A78"/><path d="M -13 20 a 13 7 0 1 0 26 0 a 13 7 0 1 0 -26 0 Z" fill="#00000012"/></g><g transform="translate(64 87)"><path d="M -4 -24 Q 1 -19 6 -24 Z" fill="#C68B59"/></g><g transform="translate(64 87)"><path d="M -9 -17 a 9 4 0 1 0 18 0 a 9 4 0 1 0 -18 0 Z" fill="#00000018"/></g></g><g transform="translate(64 63) scale(1) translate(-64 -63)"><g transform="translate(67 49)"><path d="M -7 -19 h 15 a 9 9 0 0 1 9 9 v 23 a 9 9 0 0 1 -9 9 h -15 a 9 9 0 0 1 -9 -9 v -23 a 9 9 0 0 1 9 -9 Z" fill="#C68B59"/><path d="M 8.4 0 a 2.6 2.6 0 1 0 5.2 0 a 2.6 2.6 0 1 0 -5.2 0 Z" fill="#2C2C2A"/></g><g transform="translate(67 49)"><path d="M -19.79898987322333 -7 A 21 21 0 0 1 19.79898987322333 -7 Z" fill="#2B211D"/><path d="M -17 -8 h 0 a 4 4 0 0 1 4 4 v 8 a 4 4 0 0 1 -4 4 h 0 a 4 4 0 0 1 -4 -4 v -8 a 4 4 0 0 1 4 -4 Z" fill="#2B211D"/><path d="M -6 -16 C 6 -16 16 -10 19 -3 L 12 2 C 5 -4 -3 -5 -11 0 Z" fill="#2B211D"/></g></g></g></g><rect x="764" y="130" width="72" height="72" rx="5" fill="#FFFFFF" stroke="#CFC9BC"/><g transform="translate(768 134) scale(0.5)"><path d="M 48 113 a 16 4.5 0 1 0 32 0 a 16 4.5 0 1 0 -32 0 Z" fill="#000000" opacity="0.12"/><g transform="translate(64 0) scale(1 1) translate(-64 0)"><g transform="translate(64 87)"><path d="M 0 -24 C -13 -24 -24 -22 -28 -16 C -30 -7 -29 5 -27 14 C -25 23 -19 28 -10 29 C -4 30 4 30 10 29 C 19 28 25 23 27 14 C 29 5 30 -7 28 -16 C 24 -22 13 -24 0 -24 Z" fill="#3A342E" stroke="#3A342E" stroke-width="5" stroke-linejoin="round" stroke-linecap="round"/></g></g><g transform="translate(64 63) scale(1) translate(-64 -63)"><g transform="translate(64 49)"><path d="M -9 -19 h 18 a 9 9 0 0 1 9 9 v 23 a 9 9 0 0 1 -9 9 h -18 a 9 9 0 0 1 -9 -9 v -23 a 9 9 0 0 1 9 -9 Z" fill="#3A342E" stroke="#3A342E" stroke-width="5" stroke-linejoin="round" stroke-linecap="round"/></g><g transform="translate(64 49)"><path d="M -19.79898987322333 -7 A 21 21 0 0 1 19.79898987322333 -7 Z" fill="#3A342E" stroke="#3A342E" stroke-width="5" stroke-linejoin="round" stroke-linecap="round"/><path d="M -19 -6 C -7 -18 8 -19 20 -7 L 15 1 C 5 -7 -6 -8 -17 1 Z" fill="#3A342E" stroke="#3A342E" stroke-width="5" stroke-linejoin="round" stroke-linecap="round"/></g></g><g transform="translate(64 0) scale(1 1) translate(-64 0)"><g transform="translate(64 87)"><path d="M 0 -24 C -13 -24 -24 -22 -28 -16 C -30 -7 -29 5 -27 14 C -25 23 -19 28 -10 29 C -4 30 4 30 10 29 C 19 28 25 23 27 14 C 29 5 30 -7 28 -16 C 24 -22 13 -24 0 -24 Z" fill="#315A78"/><path d="M -18 20 a 18 7 0 1 0 36 0 a 18 7 0 1 0 -36 0 Z" fill="#00000012"/></g><g transform="translate(64 87)"><path d="M -9.180000000000001 -24 Q 0 -17 9.180000000000001 -24 Z" fill="#C68B59"/></g><g transform="translate(64 87)"><path d="M -12 -17 a 12 4 0 1 0 24 0 a 12 4 0 1 0 -24 0 Z" fill="#00000018"/></g></g><g transform="translate(64 63) scale(1) translate(-64 -63)"><g transform="translate(64 49)"><path d="M -9 -19 h 18 a 9 9 0 0 1 9 9 v 23 a 9 9 0 0 1 -9 9 h -18 a 9 9 0 0 1 -9 -9 v -23 a 9 9 0 0 1 9 -9 Z" fill="#C68B59"/><path d="M -10.6 0 a 2.6 2.6 0 1 0 5.2 0 a 2.6 2.6 0 1 0 -5.2 0 Z" fill="#2C2C2A"/><path d="M 5.4 0 a 2.6 2.6 0 1 0 5.2 0 a 2.6 2.6 0 1 0 -5.2 0 Z" fill="#2C2C2A"/></g><g transform="translate(64 49)"><path d="M -19.79898987322333 -7 A 21 21 0 0 1 19.79898987322333 -7 Z" fill="#2B211D"/><path d="M -19 -6 C -7 -18 8 -19 20 -7 L 15 1 C 5 -7 -6 -8 -17 1 Z" fill="#2B211D"/><path d="M -5 -15 C -3 -8 -2 -2 -2 7" fill="none" stroke="#00000024" stroke-width="1.6" stroke-linecap="round" stroke-linejoin="round"/></g></g></g><text x="790" y="220" font-family="system-ui, sans-serif" font-size="9" font-weight="600" fill="#68747A">64</text><rect x="848" y="130" width="72" height="72" rx="5" fill="#FFFFFF" stroke="#CFC9BC"/><g transform="translate(860 142) scale(0.375)"><path d="M 48 113 a 16 4.5 0 1 0 32 0 a 16 4.5 0 1 0 -32 0 Z" fill="#000000" opacity="0.12"/><g transform="translate(64 0) scale(1 1) translate(-64 0)"><g transform="translate(64 87)"><path d="M 0 -24 C -13 -24 -24 -22 -28 -16 C -30 -7 -29 5 -27 14 C -25 23 -19 28 -10 29 C -4 30 4 30 10 29 C 19 28 25 23 27 14 C 29 5 30 -7 28 -16 C 24 -22 13 -24 0 -24 Z" fill="#3A342E" stroke="#3A342E" stroke-width="5" stroke-linejoin="round" stroke-linecap="round"/></g></g><g transform="translate(64 63) scale(1) translate(-64 -63)"><g transform="translate(64 49)"><path d="M -9 -19 h 18 a 9 9 0 0 1 9 9 v 23 a 9 9 0 0 1 -9 9 h -18 a 9 9 0 0 1 -9 -9 v -23 a 9 9 0 0 1 9 -9 Z" fill="#3A342E" stroke="#3A342E" stroke-width="5" stroke-linejoin="round" stroke-linecap="round"/></g><g transform="translate(64 49)"><path d="M -19.79898987322333 -7 A 21 21 0 0 1 19.79898987322333 -7 Z" fill="#3A342E" stroke="#3A342E" stroke-width="5" stroke-linejoin="round" stroke-linecap="round"/><path d="M -19 -6 C -7 -18 8 -19 20 -7 L 15 1 C 5 -7 -6 -8 -17 1 Z" fill="#3A342E" stroke="#3A342E" stroke-width="5" stroke-linejoin="round" stroke-linecap="round"/></g></g><g transform="translate(64 0) scale(1 1) translate(-64 0)"><g transform="translate(64 87)"><path d="M 0 -24 C -13 -24 -24 -22 -28 -16 C -30 -7 -29 5 -27 14 C -25 23 -19 28 -10 29 C -4 30 4 30 10 29 C 19 28 25 23 27 14 C 29 5 30 -7 28 -16 C 24 -22 13 -24 0 -24 Z" fill="#315A78"/><path d="M -18 20 a 18 7 0 1 0 36 0 a 18 7 0 1 0 -36 0 Z" fill="#00000012"/></g><g transform="translate(64 87)"><path d="M -9.180000000000001 -24 Q 0 -17 9.180000000000001 -24 Z" fill="#C68B59"/></g><g transform="translate(64 87)"><path d="M -12 -17 a 12 4 0 1 0 24 0 a 12 4 0 1 0 -24 0 Z" fill="#00000018"/></g></g><g transform="translate(64 63) scale(1) translate(-64 -63)"><g transform="translate(64 49)"><path d="M -9 -19 h 18 a 9 9 0 0 1 9 9 v 23 a 9 9 0 0 1 -9 9 h -18 a 9 9 0 0 1 -9 -9 v -23 a 9 9 0 0 1 9 -9 Z" fill="#C68B59"/><path d="M -10.6 0 a 2.6 2.6 0 1 0 5.2 0 a 2.6 2.6 0 1 0 -5.2 0 Z" fill="#2C2C2A"/><path d="M 5.4 0 a 2.6 2.6 0 1 0 5.2 0 a 2.6 2.6 0 1 0 -5.2 0 Z" fill="#2C2C2A"/></g><g transform="translate(64 49)"><path d="M -19.79898987322333 -7 A 21 21 0 0 1 19.79898987322333 -7 Z" fill="#2B211D"/><path d="M -19 -6 C -7 -18 8 -19 20 -7 L 15 1 C 5 -7 -6 -8 -17 1 Z" fill="#2B211D"/><path d="M -5 -15 C -3 -8 -2 -2 -2 7" fill="none" stroke="#00000024" stroke-width="1.6" stroke-linecap="round" stroke-linejoin="round"/></g></g></g><text x="874" y="220" font-family="system-ui, sans-serif" font-size="9" font-weight="600" fill="#68747A">48</text><rect x="932" y="130" width="72" height="72" rx="5" fill="#FFFFFF" stroke="#CFC9BC"/><g transform="translate(952 150) scale(0.25)"><path d="M 48 113 a 16 4.5 0 1 0 32 0 a 16 4.5 0 1 0 -32 0 Z" fill="#000000" opacity="0.12"/><g transform="translate(64 0) scale(1 1) translate(-64 0)"><g transform="translate(64 87)"><path d="M 0 -24 C -13 -24 -24 -22 -28 -16 C -30 -7 -29 5 -27 14 C -25 23 -19 28 -10 29 C -4 30 4 30 10 29 C 19 28 25 23 27 14 C 29 5 30 -7 28 -16 C 24 -22 13 -24 0 -24 Z" fill="#3A342E" stroke="#3A342E" stroke-width="5" stroke-linejoin="round" stroke-linecap="round"/></g></g><g transform="translate(64 63) scale(1) translate(-64 -63)"><g transform="translate(64 49)"><path d="M -9 -19 h 18 a 9 9 0 0 1 9 9 v 23 a 9 9 0 0 1 -9 9 h -18 a 9 9 0 0 1 -9 -9 v -23 a 9 9 0 0 1 9 -9 Z" fill="#3A342E" stroke="#3A342E" stroke-width="5" stroke-linejoin="round" stroke-linecap="round"/></g><g transform="translate(64 49)"><path d="M -19.79898987322333 -7 A 21 21 0 0 1 19.79898987322333 -7 Z" fill="#3A342E" stroke="#3A342E" stroke-width="5" stroke-linejoin="round" stroke-linecap="round"/><path d="M -19 -6 C -7 -18 8 -19 20 -7 L 15 1 C 5 -7 -6 -8 -17 1 Z" fill="#3A342E" stroke="#3A342E" stroke-width="5" stroke-linejoin="round" stroke-linecap="round"/></g></g><g transform="translate(64 0) scale(1 1) translate(-64 0)"><g transform="translate(64 87)"><path d="M 0 -24 C -13 -24 -24 -22 -28 -16 C -30 -7 -29 5 -27 14 C -25 23 -19 28 -10 29 C -4 30 4 30 10 29 C 19 28 25 23 27 14 C 29 5 30 -7 28 -16 C 24 -22 13 -24 0 -24 Z" fill="#315A78"/><path d="M -18 20 a 18 7 0 1 0 36 0 a 18 7 0 1 0 -36 0 Z" fill="#00000012"/></g><g transform="translate(64 87)"><path d="M -9.180000000000001 -24 Q 0 -17 9.180000000000001 -24 Z" fill="#C68B59"/></g><g transform="translate(64 87)"><path d="M -12 -17 a 12 4 0 1 0 24 0 a 12 4 0 1 0 -24 0 Z" fill="#00000018"/></g></g><g transform="translate(64 63) scale(1) translate(-64 -63)"><g transform="translate(64 49)"><path d="M -9 -19 h 18 a 9 9 0 0 1 9 9 v 23 a 9 9 0 0 1 -9 9 h -18 a 9 9 0 0 1 -9 -9 v -23 a 9 9 0 0 1 9 -9 Z" fill="#C68B59"/><path d="M -10.6 0 a 2.6 2.6 0 1 0 5.2 0 a 2.6 2.6 0 1 0 -5.2 0 Z" fill="#2C2C2A"/><path d="M 5.4 0 a 2.6 2.6 0 1 0 5.2 0 a 2.6 2.6 0 1 0 -5.2 0 Z" fill="#2C2C2A"/></g><g transform="translate(64 49)"><path d="M -19.79898987322333 -7 A 21 21 0 0 1 19.79898987322333 -7 Z" fill="#2B211D"/><path d="M -19 -6 C -7 -18 8 -19 20 -7 L 15 1 C 5 -7 -6 -8 -17 1 Z" fill="#2B211D"/><path d="M -5 -15 C -3 -8 -2 -2 -2 7" fill="none" stroke="#00000024" stroke-width="1.6" stroke-linecap="round" stroke-linejoin="round"/></g></g></g><text x="958" y="220" font-family="system-ui, sans-serif" font-size="9" font-weight="600" fill="#68747A">32</text><rect x="8" y="252" width="1044" height="148" rx="8" fill="#EAE6DC"/><text x="22" y="290" font-family="system-ui, sans-serif" font-size="16" font-weight="700" fill="#2F3538">Balanced</text><text x="22" y="310" font-family="system-ui, sans-serif" font-size="10" font-weight="600" fill="#68747A">id: average</text><text x="22" y="332" font-family="system-ui, sans-serif" font-size="10" font-weight="400" fill="#68747A">Neutral control silhouette</text><text x="22" y="347" font-family="system-ui, sans-serif" font-size="10" font-weight="400" fill="#68747A">without treating it as the</text><text x="22" y="362" font-family="system-ui, sans-serif" font-size="10" font-weight="400" fill="#68747A">normative body.</text><rect x="188" y="262" width="128" height="128" rx="5" fill="#FFFFFF" stroke="#CFC9BC"/><g transform="translate(188 262) scale(1)"><path d="M 48 113 a 16 4.5 0 1 0 32 0 a 16 4.5 0 1 0 -32 0 Z" fill="#000000" opacity="0.12"/><g transform="translate(64 0) scale(1 1) translate(-64 0)"><g transform="translate(64 87)"><path d="M 0 -29 C -12 -29 -23 -27 -27 -20 C -30 -11 -27 -1 -25 8 C -23 18 -20 26 -11 29 C -4 30 4 30 11 29 C 20 26 23 18 25 8 C 27 -1 30 -11 27 -20 C 23 -27 12 -29 0 -29 Z" fill="#3A342E" stroke="#3A342E" stroke-width="5" stroke-linejoin="round" stroke-linecap="round"/></g></g><g transform="translate(64 58) scale(1) translate(-64 -58)"><g transform="translate(64 44)"><path d="M -9 -19 h 18 a 9 9 0 0 1 9 9 v 23 a 9 9 0 0 1 -9 9 h -18 a 9 9 0 0 1 -9 -9 v -23 a 9 9 0 0 1 9 -9 Z" fill="#3A342E" stroke="#3A342E" stroke-width="5" stroke-linejoin="round" stroke-linecap="round"/></g><g transform="translate(64 44)"><path d="M -19.79898987322333 -7 A 21 21 0 0 1 19.79898987322333 -7 Z" fill="#3A342E" stroke="#3A342E" stroke-width="5" stroke-linejoin="round" stroke-linecap="round"/><path d="M -19 -6 C -7 -18 8 -19 20 -7 L 15 1 C 5 -7 -6 -8 -17 1 Z" fill="#3A342E" stroke="#3A342E" stroke-width="5" stroke-linejoin="round" stroke-linecap="round"/></g></g><g transform="translate(64 0) scale(1 1) translate(-64 0)"><g transform="translate(64 87)"><path d="M 0 -29 C -12 -29 -23 -27 -27 -20 C -30 -11 -27 -1 -25 8 C -23 18 -20 26 -11 29 C -4 30 4 30 11 29 C 20 26 23 18 25 8 C 27 -1 30 -11 27 -20 C 23 -27 12 -29 0 -29 Z" fill="#315A78"/><path d="M -16 20 a 16 7 0 1 0 32 0 a 16 7 0 1 0 -32 0 Z" fill="#00000012"/></g><g transform="translate(64 87)"><path d="M -8.84 -29 Q 0 -22 8.84 -29 Z" fill="#C68B59"/></g><g transform="translate(64 87)"><path d="M -12 -22 a 12 4 0 1 0 24 0 a 12 4 0 1 0 -24 0 Z" fill="#00000018"/></g></g><g transform="translate(64 58) scale(1) translate(-64 -58)"><g transform="translate(64 44)"><path d="M -9 -19 h 18 a 9 9 0 0 1 9 9 v 23 a 9 9 0 0 1 -9 9 h -18 a 9 9 0 0 1 -9 -9 v -23 a 9 9 0 0 1 9 -9 Z" fill="#C68B59"/><path d="M -10.6 0 a 2.6 2.6 0 1 0 5.2 0 a 2.6 2.6 0 1 0 -5.2 0 Z" fill="#2C2C2A"/><path d="M 5.4 0 a 2.6 2.6 0 1 0 5.2 0 a 2.6 2.6 0 1 0 -5.2 0 Z" fill="#2C2C2A"/></g><g transform="translate(64 44)"><path d="M -19.79898987322333 -7 A 21 21 0 0 1 19.79898987322333 -7 Z" fill="#2B211D"/><path d="M -19 -6 C -7 -18 8 -19 20 -7 L 15 1 C 5 -7 -6 -8 -17 1 Z" fill="#2B211D"/><path d="M -5 -15 C -3 -8 -2 -2 -2 7" fill="none" stroke="#00000024" stroke-width="1.6" stroke-linecap="round" stroke-linejoin="round"/></g></g></g><rect x="326" y="262" width="128" height="128" rx="5" fill="#FFFFFF" stroke="#CFC9BC"/><g transform="translate(326 262) scale(1)"><path d="M 48 113 a 16 4.5 0 1 0 32 0 a 16 4.5 0 1 0 -32 0 Z" fill="#000000" opacity="0.12"/><g transform="translate(64 0) scale(1 1) translate(-64 0)"><g transform="translate(64 87)"><path d="M 1 -29 C -8 -29 -16 -26 -18 -19 C -20 -10 -18 2 -17 12 C -16 22 -11 27 -3 29 C 4 30 11 29 15 26 C 20 21 20 13 19 6 C 21 -2 22 -11 20 -17 C 18 -25 11 -29 1 -29 Z" fill="#3A342E" stroke="#3A342E" stroke-width="5" stroke-linejoin="round" stroke-linecap="round"/></g></g><g transform="translate(64 58) scale(1) translate(-64 -58)"><g transform="translate(67 44)"><path d="M -7 -19 h 15 a 9 9 0 0 1 9 9 v 23 a 9 9 0 0 1 -9 9 h -15 a 9 9 0 0 1 -9 -9 v -23 a 9 9 0 0 1 9 -9 Z" fill="#3A342E" stroke="#3A342E" stroke-width="5" stroke-linejoin="round" stroke-linecap="round"/></g><g transform="translate(67 44)"><path d="M -19.79898987322333 -7 A 21 21 0 0 1 19.79898987322333 -7 Z" fill="#3A342E" stroke="#3A342E" stroke-width="5" stroke-linejoin="round" stroke-linecap="round"/><path d="M -17 -8 h 0 a 4 4 0 0 1 4 4 v 8 a 4 4 0 0 1 -4 4 h 0 a 4 4 0 0 1 -4 -4 v -8 a 4 4 0 0 1 4 -4 Z" fill="#3A342E" stroke="#3A342E" stroke-width="5" stroke-linejoin="round" stroke-linecap="round"/><path d="M -6 -16 C 6 -16 16 -10 19 -3 L 12 2 C 5 -4 -3 -5 -11 0 Z" fill="#3A342E" stroke="#3A342E" stroke-width="5" stroke-linejoin="round" stroke-linecap="round"/></g></g><g transform="translate(64 0) scale(1 1) translate(-64 0)"><g transform="translate(64 87)"><path d="M 1 -29 C -8 -29 -16 -26 -18 -19 C -20 -10 -18 2 -17 12 C -16 22 -11 27 -3 29 C 4 30 11 29 15 26 C 20 21 20 13 19 6 C 21 -2 22 -11 20 -17 C 18 -25 11 -29 1 -29 Z" fill="#315A78"/><path d="M -11 20 a 11 7 0 1 0 22 0 a 11 7 0 1 0 -22 0 Z" fill="#00000012"/></g><g transform="translate(64 87)"><path d="M -4 -29 Q 1 -24 6 -29 Z" fill="#C68B59"/></g><g transform="translate(64 87)"><path d="M -9 -22 a 9 4 0 1 0 18 0 a 9 4 0 1 0 -18 0 Z" fill="#00000018"/></g></g><g transform="translate(64 58) scale(1) translate(-64 -58)"><g transform="translate(67 44)"><path d="M -7 -19 h 15 a 9 9 0 0 1 9 9 v 23 a 9 9 0 0 1 -9 9 h -15 a 9 9 0 0 1 -9 -9 v -23 a 9 9 0 0 1 9 -9 Z" fill="#C68B59"/><path d="M 8.4 0 a 2.6 2.6 0 1 0 5.2 0 a 2.6 2.6 0 1 0 -5.2 0 Z" fill="#2C2C2A"/></g><g transform="translate(67 44)"><path d="M -19.79898987322333 -7 A 21 21 0 0 1 19.79898987322333 -7 Z" fill="#2B211D"/><path d="M -17 -8 h 0 a 4 4 0 0 1 4 4 v 8 a 4 4 0 0 1 -4 4 h 0 a 4 4 0 0 1 -4 -4 v -8 a 4 4 0 0 1 4 -4 Z" fill="#2B211D"/><path d="M -6 -16 C 6 -16 16 -10 19 -3 L 12 2 C 5 -4 -3 -5 -11 0 Z" fill="#2B211D"/></g></g></g><rect x="464" y="262" width="128" height="128" rx="5" fill="#FFFFFF" stroke="#CFC9BC"/><g transform="translate(464 262) scale(1)"><path d="M 48 113 a 16 4.5 0 1 0 32 0 a 16 4.5 0 1 0 -32 0 Z" fill="#000000" opacity="0.12"/><g transform="translate(64 0) scale(1 1) translate(-64 0)"><g transform="translate(64 87)"><path d="M 0 -29 C -12 -29 -23 -27 -27 -20 C -30 -11 -27 -1 -25 8 C -23 18 -20 26 -11 29 C -4 30 4 30 11 29 C 20 26 23 18 25 8 C 27 -1 30 -11 27 -20 C 23 -27 12 -29 0 -29 Z" fill="#3A342E" stroke="#3A342E" stroke-width="5" stroke-linejoin="round" stroke-linecap="round"/></g></g><g transform="translate(64 58) scale(1) translate(-64 -58)"><g transform="translate(64 44)"><path d="M -9 -19 h 18 a 9 9 0 0 1 9 9 v 23 a 9 9 0 0 1 -9 9 h -18 a 9 9 0 0 1 -9 -9 v -23 a 9 9 0 0 1 9 -9 Z" fill="#3A342E" stroke="#3A342E" stroke-width="5" stroke-linejoin="round" stroke-linecap="round"/></g><g transform="translate(64 44)"><path d="M -20.396078054371138 5 A 21 21 0 1 1 20.396078054371138 5 Z" fill="#3A342E" stroke="#3A342E" stroke-width="5" stroke-linejoin="round" stroke-linecap="round"/><path d="M -19 0 C -7 9 8 9 20 1 L 20 13 L -20 13 Z" fill="#3A342E" stroke="#3A342E" stroke-width="5" stroke-linejoin="round" stroke-linecap="round"/></g></g><g transform="translate(64 0) scale(1 1) translate(-64 0)"><g transform="translate(64 87)"><path d="M 0 -29 C -12 -29 -23 -27 -27 -20 C -30 -11 -27 -1 -25 8 C -23 18 -20 26 -11 29 C -4 30 4 30 11 29 C 20 26 23 18 25 8 C 27 -1 30 -11 27 -20 C 23 -27 12 -29 0 -29 Z" fill="#315A78"/></g><g transform="translate(64 87)"><path d="M -12 -22 a 12 4 0 1 0 24 0 a 12 4 0 1 0 -24 0 Z" fill="#00000018"/></g></g><g transform="translate(64 58) scale(1) translate(-64 -58)"><g transform="translate(64 44)"><path d="M -9 -19 h 18 a 9 9 0 0 1 9 9 v 23 a 9 9 0 0 1 -9 9 h -18 a 9 9 0 0 1 -9 -9 v -23 a 9 9 0 0 1 9 -9 Z" fill="#C68B59"/></g><g transform="translate(64 44)"><path d="M -20.396078054371138 5 A 21 21 0 1 1 20.396078054371138 5 Z" fill="#2B211D"/><path d="M -19 0 C -7 9 8 9 20 1 L 20 13 L -20 13 Z" fill="#2B211D"/></g></g></g><rect x="602" y="262" width="128" height="128" rx="5" fill="#FFFFFF" stroke="#CFC9BC"/><g transform="translate(602 262) scale(1)"><path d="M 48 113 a 16 4.5 0 1 0 32 0 a 16 4.5 0 1 0 -32 0 Z" fill="#000000" opacity="0.12"/><g transform="translate(128 0) scale(-1 1)"><g transform="translate(64 0) scale(1 1) translate(-64 0)"><g transform="translate(64 87)"><path d="M 1 -29 C -8 -29 -16 -26 -18 -19 C -20 -10 -18 2 -17 12 C -16 22 -11 27 -3 29 C 4 30 11 29 15 26 C 20 21 20 13 19 6 C 21 -2 22 -11 20 -17 C 18 -25 11 -29 1 -29 Z" fill="#3A342E" stroke="#3A342E" stroke-width="5" stroke-linejoin="round" stroke-linecap="round"/></g></g><g transform="translate(64 58) scale(1) translate(-64 -58)"><g transform="translate(67 44)"><path d="M -7 -19 h 15 a 9 9 0 0 1 9 9 v 23 a 9 9 0 0 1 -9 9 h -15 a 9 9 0 0 1 -9 -9 v -23 a 9 9 0 0 1 9 -9 Z" fill="#3A342E" stroke="#3A342E" stroke-width="5" stroke-linejoin="round" stroke-linecap="round"/></g><g transform="translate(67 44)"><path d="M -19.79898987322333 -7 A 21 21 0 0 1 19.79898987322333 -7 Z" fill="#3A342E" stroke="#3A342E" stroke-width="5" stroke-linejoin="round" stroke-linecap="round"/><path d="M -17 -8 h 0 a 4 4 0 0 1 4 4 v 8 a 4 4 0 0 1 -4 4 h 0 a 4 4 0 0 1 -4 -4 v -8 a 4 4 0 0 1 4 -4 Z" fill="#3A342E" stroke="#3A342E" stroke-width="5" stroke-linejoin="round" stroke-linecap="round"/><path d="M -6 -16 C 6 -16 16 -10 19 -3 L 12 2 C 5 -4 -3 -5 -11 0 Z" fill="#3A342E" stroke="#3A342E" stroke-width="5" stroke-linejoin="round" stroke-linecap="round"/></g></g><g transform="translate(64 0) scale(1 1) translate(-64 0)"><g transform="translate(64 87)"><path d="M 1 -29 C -8 -29 -16 -26 -18 -19 C -20 -10 -18 2 -17 12 C -16 22 -11 27 -3 29 C 4 30 11 29 15 26 C 20 21 20 13 19 6 C 21 -2 22 -11 20 -17 C 18 -25 11 -29 1 -29 Z" fill="#315A78"/><path d="M -11 20 a 11 7 0 1 0 22 0 a 11 7 0 1 0 -22 0 Z" fill="#00000012"/></g><g transform="translate(64 87)"><path d="M -4 -29 Q 1 -24 6 -29 Z" fill="#C68B59"/></g><g transform="translate(64 87)"><path d="M -9 -22 a 9 4 0 1 0 18 0 a 9 4 0 1 0 -18 0 Z" fill="#00000018"/></g></g><g transform="translate(64 58) scale(1) translate(-64 -58)"><g transform="translate(67 44)"><path d="M -7 -19 h 15 a 9 9 0 0 1 9 9 v 23 a 9 9 0 0 1 -9 9 h -15 a 9 9 0 0 1 -9 -9 v -23 a 9 9 0 0 1 9 -9 Z" fill="#C68B59"/><path d="M 8.4 0 a 2.6 2.6 0 1 0 5.2 0 a 2.6 2.6 0 1 0 -5.2 0 Z" fill="#2C2C2A"/></g><g transform="translate(67 44)"><path d="M -19.79898987322333 -7 A 21 21 0 0 1 19.79898987322333 -7 Z" fill="#2B211D"/><path d="M -17 -8 h 0 a 4 4 0 0 1 4 4 v 8 a 4 4 0 0 1 -4 4 h 0 a 4 4 0 0 1 -4 -4 v -8 a 4 4 0 0 1 4 -4 Z" fill="#2B211D"/><path d="M -6 -16 C 6 -16 16 -10 19 -3 L 12 2 C 5 -4 -3 -5 -11 0 Z" fill="#2B211D"/></g></g></g></g><rect x="764" y="286" width="72" height="72" rx="5" fill="#FFFFFF" stroke="#CFC9BC"/><g transform="translate(768 290) scale(0.5)"><path d="M 48 113 a 16 4.5 0 1 0 32 0 a 16 4.5 0 1 0 -32 0 Z" fill="#000000" opacity="0.12"/><g transform="translate(64 0) scale(1 1) translate(-64 0)"><g transform="translate(64 87)"><path d="M 0 -29 C -12 -29 -23 -27 -27 -20 C -30 -11 -27 -1 -25 8 C -23 18 -20 26 -11 29 C -4 30 4 30 11 29 C 20 26 23 18 25 8 C 27 -1 30 -11 27 -20 C 23 -27 12 -29 0 -29 Z" fill="#3A342E" stroke="#3A342E" stroke-width="5" stroke-linejoin="round" stroke-linecap="round"/></g></g><g transform="translate(64 58) scale(1) translate(-64 -58)"><g transform="translate(64 44)"><path d="M -9 -19 h 18 a 9 9 0 0 1 9 9 v 23 a 9 9 0 0 1 -9 9 h -18 a 9 9 0 0 1 -9 -9 v -23 a 9 9 0 0 1 9 -9 Z" fill="#3A342E" stroke="#3A342E" stroke-width="5" stroke-linejoin="round" stroke-linecap="round"/></g><g transform="translate(64 44)"><path d="M -19.79898987322333 -7 A 21 21 0 0 1 19.79898987322333 -7 Z" fill="#3A342E" stroke="#3A342E" stroke-width="5" stroke-linejoin="round" stroke-linecap="round"/><path d="M -19 -6 C -7 -18 8 -19 20 -7 L 15 1 C 5 -7 -6 -8 -17 1 Z" fill="#3A342E" stroke="#3A342E" stroke-width="5" stroke-linejoin="round" stroke-linecap="round"/></g></g><g transform="translate(64 0) scale(1 1) translate(-64 0)"><g transform="translate(64 87)"><path d="M 0 -29 C -12 -29 -23 -27 -27 -20 C -30 -11 -27 -1 -25 8 C -23 18 -20 26 -11 29 C -4 30 4 30 11 29 C 20 26 23 18 25 8 C 27 -1 30 -11 27 -20 C 23 -27 12 -29 0 -29 Z" fill="#315A78"/><path d="M -16 20 a 16 7 0 1 0 32 0 a 16 7 0 1 0 -32 0 Z" fill="#00000012"/></g><g transform="translate(64 87)"><path d="M -8.84 -29 Q 0 -22 8.84 -29 Z" fill="#C68B59"/></g><g transform="translate(64 87)"><path d="M -12 -22 a 12 4 0 1 0 24 0 a 12 4 0 1 0 -24 0 Z" fill="#00000018"/></g></g><g transform="translate(64 58) scale(1) translate(-64 -58)"><g transform="translate(64 44)"><path d="M -9 -19 h 18 a 9 9 0 0 1 9 9 v 23 a 9 9 0 0 1 -9 9 h -18 a 9 9 0 0 1 -9 -9 v -23 a 9 9 0 0 1 9 -9 Z" fill="#C68B59"/><path d="M -10.6 0 a 2.6 2.6 0 1 0 5.2 0 a 2.6 2.6 0 1 0 -5.2 0 Z" fill="#2C2C2A"/><path d="M 5.4 0 a 2.6 2.6 0 1 0 5.2 0 a 2.6 2.6 0 1 0 -5.2 0 Z" fill="#2C2C2A"/></g><g transform="translate(64 44)"><path d="M -19.79898987322333 -7 A 21 21 0 0 1 19.79898987322333 -7 Z" fill="#2B211D"/><path d="M -19 -6 C -7 -18 8 -19 20 -7 L 15 1 C 5 -7 -6 -8 -17 1 Z" fill="#2B211D"/><path d="M -5 -15 C -3 -8 -2 -2 -2 7" fill="none" stroke="#00000024" stroke-width="1.6" stroke-linecap="round" stroke-linejoin="round"/></g></g></g><text x="790" y="376" font-family="system-ui, sans-serif" font-size="9" font-weight="600" fill="#68747A">64</text><rect x="848" y="286" width="72" height="72" rx="5" fill="#FFFFFF" stroke="#CFC9BC"/><g transform="translate(860 298) scale(0.375)"><path d="M 48 113 a 16 4.5 0 1 0 32 0 a 16 4.5 0 1 0 -32 0 Z" fill="#000000" opacity="0.12"/><g transform="translate(64 0) scale(1 1) translate(-64 0)"><g transform="translate(64 87)"><path d="M 0 -29 C -12 -29 -23 -27 -27 -20 C -30 -11 -27 -1 -25 8 C -23 18 -20 26 -11 29 C -4 30 4 30 11 29 C 20 26 23 18 25 8 C 27 -1 30 -11 27 -20 C 23 -27 12 -29 0 -29 Z" fill="#3A342E" stroke="#3A342E" stroke-width="5" stroke-linejoin="round" stroke-linecap="round"/></g></g><g transform="translate(64 58) scale(1) translate(-64 -58)"><g transform="translate(64 44)"><path d="M -9 -19 h 18 a 9 9 0 0 1 9 9 v 23 a 9 9 0 0 1 -9 9 h -18 a 9 9 0 0 1 -9 -9 v -23 a 9 9 0 0 1 9 -9 Z" fill="#3A342E" stroke="#3A342E" stroke-width="5" stroke-linejoin="round" stroke-linecap="round"/></g><g transform="translate(64 44)"><path d="M -19.79898987322333 -7 A 21 21 0 0 1 19.79898987322333 -7 Z" fill="#3A342E" stroke="#3A342E" stroke-width="5" stroke-linejoin="round" stroke-linecap="round"/><path d="M -19 -6 C -7 -18 8 -19 20 -7 L 15 1 C 5 -7 -6 -8 -17 1 Z" fill="#3A342E" stroke="#3A342E" stroke-width="5" stroke-linejoin="round" stroke-linecap="round"/></g></g><g transform="translate(64 0) scale(1 1) translate(-64 0)"><g transform="translate(64 87)"><path d="M 0 -29 C -12 -29 -23 -27 -27 -20 C -30 -11 -27 -1 -25 8 C -23 18 -20 26 -11 29 C -4 30 4 30 11 29 C 20 26 23 18 25 8 C 27 -1 30 -11 27 -20 C 23 -27 12 -29 0 -29 Z" fill="#315A78"/><path d="M -16 20 a 16 7 0 1 0 32 0 a 16 7 0 1 0 -32 0 Z" fill="#00000012"/></g><g transform="translate(64 87)"><path d="M -8.84 -29 Q 0 -22 8.84 -29 Z" fill="#C68B59"/></g><g transform="translate(64 87)"><path d="M -12 -22 a 12 4 0 1 0 24 0 a 12 4 0 1 0 -24 0 Z" fill="#00000018"/></g></g><g transform="translate(64 58) scale(1) translate(-64 -58)"><g transform="translate(64 44)"><path d="M -9 -19 h 18 a 9 9 0 0 1 9 9 v 23 a 9 9 0 0 1 -9 9 h -18 a 9 9 0 0 1 -9 -9 v -23 a 9 9 0 0 1 9 -9 Z" fill="#C68B59"/><path d="M -10.6 0 a 2.6 2.6 0 1 0 5.2 0 a 2.6 2.6 0 1 0 -5.2 0 Z" fill="#2C2C2A"/><path d="M 5.4 0 a 2.6 2.6 0 1 0 5.2 0 a 2.6 2.6 0 1 0 -5.2 0 Z" fill="#2C2C2A"/></g><g transform="translate(64 44)"><path d="M -19.79898987322333 -7 A 21 21 0 0 1 19.79898987322333 -7 Z" fill="#2B211D"/><path d="M -19 -6 C -7 -18 8 -19 20 -7 L 15 1 C 5 -7 -6 -8 -17 1 Z" fill="#2B211D"/><path d="M -5 -15 C -3 -8 -2 -2 -2 7" fill="none" stroke="#00000024" stroke-width="1.6" stroke-linecap="round" stroke-linejoin="round"/></g></g></g><text x="874" y="376" font-family="system-ui, sans-serif" font-size="9" font-weight="600" fill="#68747A">48</text><rect x="932" y="286" width="72" height="72" rx="5" fill="#FFFFFF" stroke="#CFC9BC"/><g transform="translate(952 306) scale(0.25)"><path d="M 48 113 a 16 4.5 0 1 0 32 0 a 16 4.5 0 1 0 -32 0 Z" fill="#000000" opacity="0.12"/><g transform="translate(64 0) scale(1 1) translate(-64 0)"><g transform="translate(64 87)"><path d="M 0 -29 C -12 -29 -23 -27 -27 -20 C -30 -11 -27 -1 -25 8 C -23 18 -20 26 -11 29 C -4 30 4 30 11 29 C 20 26 23 18 25 8 C 27 -1 30 -11 27 -20 C 23 -27 12 -29 0 -29 Z" fill="#3A342E" stroke="#3A342E" stroke-width="5" stroke-linejoin="round" stroke-linecap="round"/></g></g><g transform="translate(64 58) scale(1) translate(-64 -58)"><g transform="translate(64 44)"><path d="M -9 -19 h 18 a 9 9 0 0 1 9 9 v 23 a 9 9 0 0 1 -9 9 h -18 a 9 9 0 0 1 -9 -9 v -23 a 9 9 0 0 1 9 -9 Z" fill="#3A342E" stroke="#3A342E" stroke-width="5" stroke-linejoin="round" stroke-linecap="round"/></g><g transform="translate(64 44)"><path d="M -19.79898987322333 -7 A 21 21 0 0 1 19.79898987322333 -7 Z" fill="#3A342E" stroke="#3A342E" stroke-width="5" stroke-linejoin="round" stroke-linecap="round"/><path d="M -19 -6 C -7 -18 8 -19 20 -7 L 15 1 C 5 -7 -6 -8 -17 1 Z" fill="#3A342E" stroke="#3A342E" stroke-width="5" stroke-linejoin="round" stroke-linecap="round"/></g></g><g transform="translate(64 0) scale(1 1) translate(-64 0)"><g transform="translate(64 87)"><path d="M 0 -29 C -12 -29 -23 -27 -27 -20 C -30 -11 -27 -1 -25 8 C -23 18 -20 26 -11 29 C -4 30 4 30 11 29 C 20 26 23 18 25 8 C 27 -1 30 -11 27 -20 C 23 -27 12 -29 0 -29 Z" fill="#315A78"/><path d="M -16 20 a 16 7 0 1 0 32 0 a 16 7 0 1 0 -32 0 Z" fill="#00000012"/></g><g transform="translate(64 87)"><path d="M -8.84 -29 Q 0 -22 8.84 -29 Z" fill="#C68B59"/></g><g transform="translate(64 87)"><path d="M -12 -22 a 12 4 0 1 0 24 0 a 12 4 0 1 0 -24 0 Z" fill="#00000018"/></g></g><g transform="translate(64 58) scale(1) translate(-64 -58)"><g transform="translate(64 44)"><path d="M -9 -19 h 18 a 9 9 0 0 1 9 9 v 23 a 9 9 0 0 1 -9 9 h -18 a 9 9 0 0 1 -9 -9 v -23 a 9 9 0 0 1 9 -9 Z" fill="#C68B59"/><path d="M -10.6 0 a 2.6 2.6 0 1 0 5.2 0 a 2.6 2.6 0 1 0 -5.2 0 Z" fill="#2C2C2A"/><path d="M 5.4 0 a 2.6 2.6 0 1 0 5.2 0 a 2.6 2.6 0 1 0 -5.2 0 Z" fill="#2C2C2A"/></g><g transform="translate(64 44)"><path d="M -19.79898987322333 -7 A 21 21 0 0 1 19.79898987322333 -7 Z" fill="#2B211D"/><path d="M -19 -6 C -7 -18 8 -19 20 -7 L 15 1 C 5 -7 -6 -8 -17 1 Z" fill="#2B211D"/><path d="M -5 -15 C -3 -8 -2 -2 -2 7" fill="none" stroke="#00000024" stroke-width="1.6" stroke-linecap="round" stroke-linejoin="round"/></g></g></g><text x="958" y="376" font-family="system-ui, sans-serif" font-size="9" font-weight="600" fill="#68747A">32</text><rect x="8" y="408" width="1044" height="148" rx="8" fill="#FFFEFA"/><text x="22" y="446" font-family="system-ui, sans-serif" font-size="16" font-weight="700" fill="#2F3538">Large-frame</text><text x="22" y="466" font-family="system-ui, sans-serif" font-size="10" font-weight="600" fill="#68747A">id: large-frame</text><text x="22" y="488" font-family="system-ui, sans-serif" font-size="10" font-weight="400" fill="#68747A">Width concentrated at the</text><text x="22" y="503" font-family="system-ui, sans-serif" font-size="10" font-weight="400" fill="#68747A">shoulder line, with a</text><text x="22" y="518" font-family="system-ui, sans-serif" font-size="10" font-weight="400" fill="#68747A">strong taper toward the</text><rect x="188" y="418" width="128" height="128" rx="5" fill="#FFFFFF" stroke="#CFC9BC"/><g transform="translate(188 418) scale(1)"><path d="M 48 113 a 16 4.5 0 1 0 32 0 a 16 4.5 0 1 0 -32 0 Z" fill="#000000" opacity="0.12"/><g transform="translate(64 0) scale(1 1) translate(-64 0)"><g transform="translate(64 87)"><path d="M 0 -30 C -15 -30 -28 -28 -34 -22 C -37 -17 -37 -11 -34 -5 C -32 1 -31 7 -29 12 C -27 21 -22 27 -12 29 C -4 30 4 30 12 29 C 22 27 27 21 29 12 C 31 7 32 1 34 -5 C 37 -11 37 -17 34 -22 C 28 -28 15 -30 0 -30 Z" fill="#3A342E" stroke="#3A342E" stroke-width="5" stroke-linejoin="round" stroke-linecap="round"/></g></g><g transform="translate(64 57) scale(1) translate(-64 -57)"><g transform="translate(64 43)"><path d="M -9 -19 h 18 a 9 9 0 0 1 9 9 v 23 a 9 9 0 0 1 -9 9 h -18 a 9 9 0 0 1 -9 -9 v -23 a 9 9 0 0 1 9 -9 Z" fill="#3A342E" stroke="#3A342E" stroke-width="5" stroke-linejoin="round" stroke-linecap="round"/></g><g transform="translate(64 43)"><path d="M -19.79898987322333 -7 A 21 21 0 0 1 19.79898987322333 -7 Z" fill="#3A342E" stroke="#3A342E" stroke-width="5" stroke-linejoin="round" stroke-linecap="round"/><path d="M -19 -6 C -7 -18 8 -19 20 -7 L 15 1 C 5 -7 -6 -8 -17 1 Z" fill="#3A342E" stroke="#3A342E" stroke-width="5" stroke-linejoin="round" stroke-linecap="round"/></g></g><g transform="translate(64 0) scale(1 1) translate(-64 0)"><g transform="translate(64 87)"><path d="M 0 -30 C -15 -30 -28 -28 -34 -22 C -37 -17 -37 -11 -34 -5 C -32 1 -31 7 -29 12 C -27 21 -22 27 -12 29 C -4 30 4 30 12 29 C 22 27 27 21 29 12 C 31 7 32 1 34 -5 C 37 -11 37 -17 34 -22 C 28 -28 15 -30 0 -30 Z" fill="#315A78"/><path d="M -20 20 a 20 7 0 1 0 40 0 a 20 7 0 1 0 -40 0 Z" fill="#00000012"/></g><g transform="translate(64 87)"><path d="M -10 -30 Q 0 -23 10 -30 Z" fill="#C68B59"/></g><g transform="translate(64 87)"><path d="M -12 -23 a 12 4 0 1 0 24 0 a 12 4 0 1 0 -24 0 Z" fill="#00000018"/></g></g><g transform="translate(64 57) scale(1) translate(-64 -57)"><g transform="translate(64 43)"><path d="M -9 -19 h 18 a 9 9 0 0 1 9 9 v 23 a 9 9 0 0 1 -9 9 h -18 a 9 9 0 0 1 -9 -9 v -23 a 9 9 0 0 1 9 -9 Z" fill="#C68B59"/><path d="M -10.6 0 a 2.6 2.6 0 1 0 5.2 0 a 2.6 2.6 0 1 0 -5.2 0 Z" fill="#2C2C2A"/><path d="M 5.4 0 a 2.6 2.6 0 1 0 5.2 0 a 2.6 2.6 0 1 0 -5.2 0 Z" fill="#2C2C2A"/></g><g transform="translate(64 43)"><path d="M -19.79898987322333 -7 A 21 21 0 0 1 19.79898987322333 -7 Z" fill="#2B211D"/><path d="M -19 -6 C -7 -18 8 -19 20 -7 L 15 1 C 5 -7 -6 -8 -17 1 Z" fill="#2B211D"/><path d="M -5 -15 C -3 -8 -2 -2 -2 7" fill="none" stroke="#00000024" stroke-width="1.6" stroke-linecap="round" stroke-linejoin="round"/></g></g></g><rect x="326" y="418" width="128" height="128" rx="5" fill="#FFFFFF" stroke="#CFC9BC"/><g transform="translate(326 418) scale(1)"><path d="M 48 113 a 16 4.5 0 1 0 32 0 a 16 4.5 0 1 0 -32 0 Z" fill="#000000" opacity="0.12"/><g transform="translate(64 0) scale(1 1) translate(-64 0)"><g transform="translate(64 87)"><path d="M 1 -30 C -10 -30 -20 -28 -23 -21 C -26 -12 -24 -1 -22 9 C -22 19 -17 26 -8 29 C 0 31 9 30 16 27 C 24 23 27 15 25 6 C 27 -3 28 -12 25 -19 C 22 -27 13 -30 1 -30 Z" fill="#3A342E" stroke="#3A342E" stroke-width="5" stroke-linejoin="round" stroke-linecap="round"/></g></g><g transform="translate(64 57) scale(1) translate(-64 -57)"><g transform="translate(68 43)"><path d="M -7 -19 h 15 a 9 9 0 0 1 9 9 v 23 a 9 9 0 0 1 -9 9 h -15 a 9 9 0 0 1 -9 -9 v -23 a 9 9 0 0 1 9 -9 Z" fill="#3A342E" stroke="#3A342E" stroke-width="5" stroke-linejoin="round" stroke-linecap="round"/></g><g transform="translate(68 43)"><path d="M -19.79898987322333 -7 A 21 21 0 0 1 19.79898987322333 -7 Z" fill="#3A342E" stroke="#3A342E" stroke-width="5" stroke-linejoin="round" stroke-linecap="round"/><path d="M -17 -8 h 0 a 4 4 0 0 1 4 4 v 8 a 4 4 0 0 1 -4 4 h 0 a 4 4 0 0 1 -4 -4 v -8 a 4 4 0 0 1 4 -4 Z" fill="#3A342E" stroke="#3A342E" stroke-width="5" stroke-linejoin="round" stroke-linecap="round"/><path d="M -6 -16 C 6 -16 16 -10 19 -3 L 12 2 C 5 -4 -3 -5 -11 0 Z" fill="#3A342E" stroke="#3A342E" stroke-width="5" stroke-linejoin="round" stroke-linecap="round"/></g></g><g transform="translate(64 0) scale(1 1) translate(-64 0)"><g transform="translate(64 87)"><path d="M 1 -30 C -10 -30 -20 -28 -23 -21 C -26 -12 -24 -1 -22 9 C -22 19 -17 26 -8 29 C 0 31 9 30 16 27 C 24 23 27 15 25 6 C 27 -3 28 -12 25 -19 C 22 -27 13 -30 1 -30 Z" fill="#315A78"/><path d="M -15 20 a 15 7 0 1 0 30 0 a 15 7 0 1 0 -30 0 Z" fill="#00000012"/></g><g transform="translate(64 87)"><path d="M -4 -30 Q 1 -25 6 -30 Z" fill="#C68B59"/></g><g transform="translate(64 87)"><path d="M -9 -23 a 9 4 0 1 0 18 0 a 9 4 0 1 0 -18 0 Z" fill="#00000018"/></g></g><g transform="translate(64 57) scale(1) translate(-64 -57)"><g transform="translate(68 43)"><path d="M -7 -19 h 15 a 9 9 0 0 1 9 9 v 23 a 9 9 0 0 1 -9 9 h -15 a 9 9 0 0 1 -9 -9 v -23 a 9 9 0 0 1 9 -9 Z" fill="#C68B59"/><path d="M 8.4 0 a 2.6 2.6 0 1 0 5.2 0 a 2.6 2.6 0 1 0 -5.2 0 Z" fill="#2C2C2A"/></g><g transform="translate(68 43)"><path d="M -19.79898987322333 -7 A 21 21 0 0 1 19.79898987322333 -7 Z" fill="#2B211D"/><path d="M -17 -8 h 0 a 4 4 0 0 1 4 4 v 8 a 4 4 0 0 1 -4 4 h 0 a 4 4 0 0 1 -4 -4 v -8 a 4 4 0 0 1 4 -4 Z" fill="#2B211D"/><path d="M -6 -16 C 6 -16 16 -10 19 -3 L 12 2 C 5 -4 -3 -5 -11 0 Z" fill="#2B211D"/></g></g></g><rect x="464" y="418" width="128" height="128" rx="5" fill="#FFFFFF" stroke="#CFC9BC"/><g transform="translate(464 418) scale(1)"><path d="M 48 113 a 16 4.5 0 1 0 32 0 a 16 4.5 0 1 0 -32 0 Z" fill="#000000" opacity="0.12"/><g transform="translate(64 0) scale(1 1) translate(-64 0)"><g transform="translate(64 87)"><path d="M 0 -30 C -15 -30 -28 -28 -34 -22 C -37 -17 -37 -11 -34 -5 C -32 1 -31 7 -29 12 C -27 21 -22 27 -12 29 C -4 30 4 30 12 29 C 22 27 27 21 29 12 C 31 7 32 1 34 -5 C 37 -11 37 -17 34 -22 C 28 -28 15 -30 0 -30 Z" fill="#3A342E" stroke="#3A342E" stroke-width="5" stroke-linejoin="round" stroke-linecap="round"/></g></g><g transform="translate(64 57) scale(1) translate(-64 -57)"><g transform="translate(64 43)"><path d="M -9 -19 h 18 a 9 9 0 0 1 9 9 v 23 a 9 9 0 0 1 -9 9 h -18 a 9 9 0 0 1 -9 -9 v -23 a 9 9 0 0 1 9 -9 Z" fill="#3A342E" stroke="#3A342E" stroke-width="5" stroke-linejoin="round" stroke-linecap="round"/></g><g transform="translate(64 43)"><path d="M -20.396078054371138 5 A 21 21 0 1 1 20.396078054371138 5 Z" fill="#3A342E" stroke="#3A342E" stroke-width="5" stroke-linejoin="round" stroke-linecap="round"/><path d="M -19 0 C -7 9 8 9 20 1 L 20 13 L -20 13 Z" fill="#3A342E" stroke="#3A342E" stroke-width="5" stroke-linejoin="round" stroke-linecap="round"/></g></g><g transform="translate(64 0) scale(1 1) translate(-64 0)"><g transform="translate(64 87)"><path d="M 0 -30 C -15 -30 -28 -28 -34 -22 C -37 -17 -37 -11 -34 -5 C -32 1 -31 7 -29 12 C -27 21 -22 27 -12 29 C -4 30 4 30 12 29 C 22 27 27 21 29 12 C 31 7 32 1 34 -5 C 37 -11 37 -17 34 -22 C 28 -28 15 -30 0 -30 Z" fill="#315A78"/></g><g transform="translate(64 87)"><path d="M -12 -23 a 12 4 0 1 0 24 0 a 12 4 0 1 0 -24 0 Z" fill="#00000018"/></g></g><g transform="translate(64 57) scale(1) translate(-64 -57)"><g transform="translate(64 43)"><path d="M -9 -19 h 18 a 9 9 0 0 1 9 9 v 23 a 9 9 0 0 1 -9 9 h -18 a 9 9 0 0 1 -9 -9 v -23 a 9 9 0 0 1 9 -9 Z" fill="#C68B59"/></g><g transform="translate(64 43)"><path d="M -20.396078054371138 5 A 21 21 0 1 1 20.396078054371138 5 Z" fill="#2B211D"/><path d="M -19 0 C -7 9 8 9 20 1 L 20 13 L -20 13 Z" fill="#2B211D"/></g></g></g><rect x="602" y="418" width="128" height="128" rx="5" fill="#FFFFFF" stroke="#CFC9BC"/><g transform="translate(602 418) scale(1)"><path d="M 48 113 a 16 4.5 0 1 0 32 0 a 16 4.5 0 1 0 -32 0 Z" fill="#000000" opacity="0.12"/><g transform="translate(128 0) scale(-1 1)"><g transform="translate(64 0) scale(1 1) translate(-64 0)"><g transform="translate(64 87)"><path d="M 1 -30 C -10 -30 -20 -28 -23 -21 C -26 -12 -24 -1 -22 9 C -22 19 -17 26 -8 29 C 0 31 9 30 16 27 C 24 23 27 15 25 6 C 27 -3 28 -12 25 -19 C 22 -27 13 -30 1 -30 Z" fill="#3A342E" stroke="#3A342E" stroke-width="5" stroke-linejoin="round" stroke-linecap="round"/></g></g><g transform="translate(64 57) scale(1) translate(-64 -57)"><g transform="translate(68 43)"><path d="M -7 -19 h 15 a 9 9 0 0 1 9 9 v 23 a 9 9 0 0 1 -9 9 h -15 a 9 9 0 0 1 -9 -9 v -23 a 9 9 0 0 1 9 -9 Z" fill="#3A342E" stroke="#3A342E" stroke-width="5" stroke-linejoin="round" stroke-linecap="round"/></g><g transform="translate(68 43)"><path d="M -19.79898987322333 -7 A 21 21 0 0 1 19.79898987322333 -7 Z" fill="#3A342E" stroke="#3A342E" stroke-width="5" stroke-linejoin="round" stroke-linecap="round"/><path d="M -17 -8 h 0 a 4 4 0 0 1 4 4 v 8 a 4 4 0 0 1 -4 4 h 0 a 4 4 0 0 1 -4 -4 v -8 a 4 4 0 0 1 4 -4 Z" fill="#3A342E" stroke="#3A342E" stroke-width="5" stroke-linejoin="round" stroke-linecap="round"/><path d="M -6 -16 C 6 -16 16 -10 19 -3 L 12 2 C 5 -4 -3 -5 -11 0 Z" fill="#3A342E" stroke="#3A342E" stroke-width="5" stroke-linejoin="round" stroke-linecap="round"/></g></g><g transform="translate(64 0) scale(1 1) translate(-64 0)"><g transform="translate(64 87)"><path d="M 1 -30 C -10 -30 -20 -28 -23 -21 C -26 -12 -24 -1 -22 9 C -22 19 -17 26 -8 29 C 0 31 9 30 16 27 C 24 23 27 15 25 6 C 27 -3 28 -12 25 -19 C 22 -27 13 -30 1 -30 Z" fill="#315A78"/><path d="M -15 20 a 15 7 0 1 0 30 0 a 15 7 0 1 0 -30 0 Z" fill="#00000012"/></g><g transform="translate(64 87)"><path d="M -4 -30 Q 1 -25 6 -30 Z" fill="#C68B59"/></g><g transform="translate(64 87)"><path d="M -9 -23 a 9 4 0 1 0 18 0 a 9 4 0 1 0 -18 0 Z" fill="#00000018"/></g></g><g transform="translate(64 57) scale(1) translate(-64 -57)"><g transform="translate(68 43)"><path d="M -7 -19 h 15 a 9 9 0 0 1 9 9 v 23 a 9 9 0 0 1 -9 9 h -15 a 9 9 0 0 1 -9 -9 v -23 a 9 9 0 0 1 9 -9 Z" fill="#C68B59"/><path d="M 8.4 0 a 2.6 2.6 0 1 0 5.2 0 a 2.6 2.6 0 1 0 -5.2 0 Z" fill="#2C2C2A"/></g><g transform="translate(68 43)"><path d="M -19.79898987322333 -7 A 21 21 0 0 1 19.79898987322333 -7 Z" fill="#2B211D"/><path d="M -17 -8 h 0 a 4 4 0 0 1 4 4 v 8 a 4 4 0 0 1 -4 4 h 0 a 4 4 0 0 1 -4 -4 v -8 a 4 4 0 0 1 4 -4 Z" fill="#2B211D"/><path d="M -6 -16 C 6 -16 16 -10 19 -3 L 12 2 C 5 -4 -3 -5 -11 0 Z" fill="#2B211D"/></g></g></g></g><rect x="764" y="442" width="72" height="72" rx="5" fill="#FFFFFF" stroke="#CFC9BC"/><g transform="translate(768 446) scale(0.5)"><path d="M 48 113 a 16 4.5 0 1 0 32 0 a 16 4.5 0 1 0 -32 0 Z" fill="#000000" opacity="0.12"/><g transform="translate(64 0) scale(1 1) translate(-64 0)"><g transform="translate(64 87)"><path d="M 0 -30 C -15 -30 -28 -28 -34 -22 C -37 -17 -37 -11 -34 -5 C -32 1 -31 7 -29 12 C -27 21 -22 27 -12 29 C -4 30 4 30 12 29 C 22 27 27 21 29 12 C 31 7 32 1 34 -5 C 37 -11 37 -17 34 -22 C 28 -28 15 -30 0 -30 Z" fill="#3A342E" stroke="#3A342E" stroke-width="5" stroke-linejoin="round" stroke-linecap="round"/></g></g><g transform="translate(64 57) scale(1) translate(-64 -57)"><g transform="translate(64 43)"><path d="M -9 -19 h 18 a 9 9 0 0 1 9 9 v 23 a 9 9 0 0 1 -9 9 h -18 a 9 9 0 0 1 -9 -9 v -23 a 9 9 0 0 1 9 -9 Z" fill="#3A342E" stroke="#3A342E" stroke-width="5" stroke-linejoin="round" stroke-linecap="round"/></g><g transform="translate(64 43)"><path d="M -19.79898987322333 -7 A 21 21 0 0 1 19.79898987322333 -7 Z" fill="#3A342E" stroke="#3A342E" stroke-width="5" stroke-linejoin="round" stroke-linecap="round"/><path d="M -19 -6 C -7 -18 8 -19 20 -7 L 15 1 C 5 -7 -6 -8 -17 1 Z" fill="#3A342E" stroke="#3A342E" stroke-width="5" stroke-linejoin="round" stroke-linecap="round"/></g></g><g transform="translate(64 0) scale(1 1) translate(-64 0)"><g transform="translate(64 87)"><path d="M 0 -30 C -15 -30 -28 -28 -34 -22 C -37 -17 -37 -11 -34 -5 C -32 1 -31 7 -29 12 C -27 21 -22 27 -12 29 C -4 30 4 30 12 29 C 22 27 27 21 29 12 C 31 7 32 1 34 -5 C 37 -11 37 -17 34 -22 C 28 -28 15 -30 0 -30 Z" fill="#315A78"/><path d="M -20 20 a 20 7 0 1 0 40 0 a 20 7 0 1 0 -40 0 Z" fill="#00000012"/></g><g transform="translate(64 87)"><path d="M -10 -30 Q 0 -23 10 -30 Z" fill="#C68B59"/></g><g transform="translate(64 87)"><path d="M -12 -23 a 12 4 0 1 0 24 0 a 12 4 0 1 0 -24 0 Z" fill="#00000018"/></g></g><g transform="translate(64 57) scale(1) translate(-64 -57)"><g transform="translate(64 43)"><path d="M -9 -19 h 18 a 9 9 0 0 1 9 9 v 23 a 9 9 0 0 1 -9 9 h -18 a 9 9 0 0 1 -9 -9 v -23 a 9 9 0 0 1 9 -9 Z" fill="#C68B59"/><path d="M -10.6 0 a 2.6 2.6 0 1 0 5.2 0 a 2.6 2.6 0 1 0 -5.2 0 Z" fill="#2C2C2A"/><path d="M 5.4 0 a 2.6 2.6 0 1 0 5.2 0 a 2.6 2.6 0 1 0 -5.2 0 Z" fill="#2C2C2A"/></g><g transform="translate(64 43)"><path d="M -19.79898987322333 -7 A 21 21 0 0 1 19.79898987322333 -7 Z" fill="#2B211D"/><path d="M -19 -6 C -7 -18 8 -19 20 -7 L 15 1 C 5 -7 -6 -8 -17 1 Z" fill="#2B211D"/><path d="M -5 -15 C -3 -8 -2 -2 -2 7" fill="none" stroke="#00000024" stroke-width="1.6" stroke-linecap="round" stroke-linejoin="round"/></g></g></g><text x="790" y="532" font-family="system-ui, sans-serif" font-size="9" font-weight="600" fill="#68747A">64</text><rect x="848" y="442" width="72" height="72" rx="5" fill="#FFFFFF" stroke="#CFC9BC"/><g transform="translate(860 454) scale(0.375)"><path d="M 48 113 a 16 4.5 0 1 0 32 0 a 16 4.5 0 1 0 -32 0 Z" fill="#000000" opacity="0.12"/><g transform="translate(64 0) scale(1 1) translate(-64 0)"><g transform="translate(64 87)"><path d="M 0 -30 C -15 -30 -28 -28 -34 -22 C -37 -17 -37 -11 -34 -5 C -32 1 -31 7 -29 12 C -27 21 -22 27 -12 29 C -4 30 4 30 12 29 C 22 27 27 21 29 12 C 31 7 32 1 34 -5 C 37 -11 37 -17 34 -22 C 28 -28 15 -30 0 -30 Z" fill="#3A342E" stroke="#3A342E" stroke-width="5" stroke-linejoin="round" stroke-linecap="round"/></g></g><g transform="translate(64 57) scale(1) translate(-64 -57)"><g transform="translate(64 43)"><path d="M -9 -19 h 18 a 9 9 0 0 1 9 9 v 23 a 9 9 0 0 1 -9 9 h -18 a 9 9 0 0 1 -9 -9 v -23 a 9 9 0 0 1 9 -9 Z" fill="#3A342E" stroke="#3A342E" stroke-width="5" stroke-linejoin="round" stroke-linecap="round"/></g><g transform="translate(64 43)"><path d="M -19.79898987322333 -7 A 21 21 0 0 1 19.79898987322333 -7 Z" fill="#3A342E" stroke="#3A342E" stroke-width="5" stroke-linejoin="round" stroke-linecap="round"/><path d="M -19 -6 C -7 -18 8 -19 20 -7 L 15 1 C 5 -7 -6 -8 -17 1 Z" fill="#3A342E" stroke="#3A342E" stroke-width="5" stroke-linejoin="round" stroke-linecap="round"/></g></g><g transform="translate(64 0) scale(1 1) translate(-64 0)"><g transform="translate(64 87)"><path d="M 0 -30 C -15 -30 -28 -28 -34 -22 C -37 -17 -37 -11 -34 -5 C -32 1 -31 7 -29 12 C -27 21 -22 27 -12 29 C -4 30 4 30 12 29 C 22 27 27 21 29 12 C 31 7 32 1 34 -5 C 37 -11 37 -17 34 -22 C 28 -28 15 -30 0 -30 Z" fill="#315A78"/><path d="M -20 20 a 20 7 0 1 0 40 0 a 20 7 0 1 0 -40 0 Z" fill="#00000012"/></g><g transform="translate(64 87)"><path d="M -10 -30 Q 0 -23 10 -30 Z" fill="#C68B59"/></g><g transform="translate(64 87)"><path d="M -12 -23 a 12 4 0 1 0 24 0 a 12 4 0 1 0 -24 0 Z" fill="#00000018"/></g></g><g transform="translate(64 57) scale(1) translate(-64 -57)"><g transform="translate(64 43)"><path d="M -9 -19 h 18 a 9 9 0 0 1 9 9 v 23 a 9 9 0 0 1 -9 9 h -18 a 9 9 0 0 1 -9 -9 v -23 a 9 9 0 0 1 9 -9 Z" fill="#C68B59"/><path d="M -10.6 0 a 2.6 2.6 0 1 0 5.2 0 a 2.6 2.6 0 1 0 -5.2 0 Z" fill="#2C2C2A"/><path d="M 5.4 0 a 2.6 2.6 0 1 0 5.2 0 a 2.6 2.6 0 1 0 -5.2 0 Z" fill="#2C2C2A"/></g><g transform="translate(64 43)"><path d="M -19.79898987322333 -7 A 21 21 0 0 1 19.79898987322333 -7 Z" fill="#2B211D"/><path d="M -19 -6 C -7 -18 8 -19 20 -7 L 15 1 C 5 -7 -6 -8 -17 1 Z" fill="#2B211D"/><path d="M -5 -15 C -3 -8 -2 -2 -2 7" fill="none" stroke="#00000024" stroke-width="1.6" stroke-linecap="round" stroke-linejoin="round"/></g></g></g><text x="874" y="532" font-family="system-ui, sans-serif" font-size="9" font-weight="600" fill="#68747A">48</text><rect x="932" y="442" width="72" height="72" rx="5" fill="#FFFFFF" stroke="#CFC9BC"/><g transform="translate(952 462) scale(0.25)"><path d="M 48 113 a 16 4.5 0 1 0 32 0 a 16 4.5 0 1 0 -32 0 Z" fill="#000000" opacity="0.12"/><g transform="translate(64 0) scale(1 1) translate(-64 0)"><g transform="translate(64 87)"><path d="M 0 -30 C -15 -30 -28 -28 -34 -22 C -37 -17 -37 -11 -34 -5 C -32 1 -31 7 -29 12 C -27 21 -22 27 -12 29 C -4 30 4 30 12 29 C 22 27 27 21 29 12 C 31 7 32 1 34 -5 C 37 -11 37 -17 34 -22 C 28 -28 15 -30 0 -30 Z" fill="#3A342E" stroke="#3A342E" stroke-width="5" stroke-linejoin="round" stroke-linecap="round"/></g></g><g transform="translate(64 57) scale(1) translate(-64 -57)"><g transform="translate(64 43)"><path d="M -9 -19 h 18 a 9 9 0 0 1 9 9 v 23 a 9 9 0 0 1 -9 9 h -18 a 9 9 0 0 1 -9 -9 v -23 a 9 9 0 0 1 9 -9 Z" fill="#3A342E" stroke="#3A342E" stroke-width="5" stroke-linejoin="round" stroke-linecap="round"/></g><g transform="translate(64 43)"><path d="M -19.79898987322333 -7 A 21 21 0 0 1 19.79898987322333 -7 Z" fill="#3A342E" stroke="#3A342E" stroke-width="5" stroke-linejoin="round" stroke-linecap="round"/><path d="M -19 -6 C -7 -18 8 -19 20 -7 L 15 1 C 5 -7 -6 -8 -17 1 Z" fill="#3A342E" stroke="#3A342E" stroke-width="5" stroke-linejoin="round" stroke-linecap="round"/></g></g><g transform="translate(64 0) scale(1 1) translate(-64 0)"><g transform="translate(64 87)"><path d="M 0 -30 C -15 -30 -28 -28 -34 -22 C -37 -17 -37 -11 -34 -5 C -32 1 -31 7 -29 12 C -27 21 -22 27 -12 29 C -4 30 4 30 12 29 C 22 27 27 21 29 12 C 31 7 32 1 34 -5 C 37 -11 37 -17 34 -22 C 28 -28 15 -30 0 -30 Z" fill="#315A78"/><path d="M -20 20 a 20 7 0 1 0 40 0 a 20 7 0 1 0 -40 0 Z" fill="#00000012"/></g><g transform="translate(64 87)"><path d="M -10 -30 Q 0 -23 10 -30 Z" fill="#C68B59"/></g><g transform="translate(64 87)"><path d="M -12 -23 a 12 4 0 1 0 24 0 a 12 4 0 1 0 -24 0 Z" fill="#00000018"/></g></g><g transform="translate(64 57) scale(1) translate(-64 -57)"><g transform="translate(64 43)"><path d="M -9 -19 h 18 a 9 9 0 0 1 9 9 v 23 a 9 9 0 0 1 -9 9 h -18 a 9 9 0 0 1 -9 -9 v -23 a 9 9 0 0 1 9 -9 Z" fill="#C68B59"/><path d="M -10.6 0 a 2.6 2.6 0 1 0 5.2 0 a 2.6 2.6 0 1 0 -5.2 0 Z" fill="#2C2C2A"/><path d="M 5.4 0 a 2.6 2.6 0 1 0 5.2 0 a 2.6 2.6 0 1 0 -5.2 0 Z" fill="#2C2C2A"/></g><g transform="translate(64 43)"><path d="M -19.79898987322333 -7 A 21 21 0 0 1 19.79898987322333 -7 Z" fill="#2B211D"/><path d="M -19 -6 C -7 -18 8 -19 20 -7 L 15 1 C 5 -7 -6 -8 -17 1 Z" fill="#2B211D"/><path d="M -5 -15 C -3 -8 -2 -2 -2 7" fill="none" stroke="#00000024" stroke-width="1.6" stroke-linecap="round" stroke-linejoin="round"/></g></g></g><text x="958" y="532" font-family="system-ui, sans-serif" font-size="9" font-weight="600" fill="#68747A">32</text><rect x="8" y="564" width="1044" height="148" rx="8" fill="#EAE6DC"/><text x="22" y="602" font-family="system-ui, sans-serif" font-size="16" font-weight="700" fill="#2F3538">Tall</text><text x="22" y="622" font-family="system-ui, sans-serif" font-size="10" font-weight="600" fill="#68747A">id: tall</text><text x="22" y="644" font-family="system-ui, sans-serif" font-size="10" font-weight="400" fill="#68747A">Long, narrow vertical</text><text x="22" y="659" font-family="system-ui, sans-serif" font-size="10" font-weight="400" fill="#68747A">rhythm rather than a</text><text x="22" y="674" font-family="system-ui, sans-serif" font-size="10" font-weight="400" fill="#68747A">stretched balanced capsule.</text><rect x="188" y="574" width="128" height="128" rx="5" fill="#FFFFFF" stroke="#CFC9BC"/><g transform="translate(188 574) scale(1)"><path d="M 48 113 a 16 4.5 0 1 0 32 0 a 16 4.5 0 1 0 -32 0 Z" fill="#000000" opacity="0.12"/><g transform="translate(64 0) scale(1 1) translate(-64 0)"><g transform="translate(64 87)"><path d="M 0 -34 C -10 -34 -21 -32 -24 -25 C -27 -16 -24 -4 -22 7 C -20 18 -17 26 -9 29 C -3 30 3 30 9 29 C 17 26 20 18 22 7 C 24 -4 27 -16 24 -25 C 21 -32 10 -34 0 -34 Z" fill="#3A342E" stroke="#3A342E" stroke-width="5" stroke-linejoin="round" stroke-linecap="round"/></g></g><g transform="translate(64 53) scale(1) translate(-64 -53)"><g transform="translate(64 39)"><path d="M -9 -19 h 18 a 9 9 0 0 1 9 9 v 23 a 9 9 0 0 1 -9 9 h -18 a 9 9 0 0 1 -9 -9 v -23 a 9 9 0 0 1 9 -9 Z" fill="#3A342E" stroke="#3A342E" stroke-width="5" stroke-linejoin="round" stroke-linecap="round"/></g><g transform="translate(64 39)"><path d="M -19.79898987322333 -7 A 21 21 0 0 1 19.79898987322333 -7 Z" fill="#3A342E" stroke="#3A342E" stroke-width="5" stroke-linejoin="round" stroke-linecap="round"/><path d="M -19 -6 C -7 -18 8 -19 20 -7 L 15 1 C 5 -7 -6 -8 -17 1 Z" fill="#3A342E" stroke="#3A342E" stroke-width="5" stroke-linejoin="round" stroke-linecap="round"/></g></g><g transform="translate(64 0) scale(1 1) translate(-64 0)"><g transform="translate(64 87)"><path d="M 0 -34 C -10 -34 -21 -32 -24 -25 C -27 -16 -24 -4 -22 7 C -20 18 -17 26 -9 29 C -3 30 3 30 9 29 C 17 26 20 18 22 7 C 24 -4 27 -16 24 -25 C 21 -32 10 -34 0 -34 Z" fill="#315A78"/><path d="M -13 20 a 13 7 0 1 0 26 0 a 13 7 0 1 0 -26 0 Z" fill="#00000012"/></g><g transform="translate(64 87)"><path d="M -7.82 -34 Q 0 -27 7.82 -34 Z" fill="#C68B59"/></g><g transform="translate(64 87)"><path d="M -12 -27 a 12 4 0 1 0 24 0 a 12 4 0 1 0 -24 0 Z" fill="#00000018"/></g></g><g transform="translate(64 53) scale(1) translate(-64 -53)"><g transform="translate(64 39)"><path d="M -9 -19 h 18 a 9 9 0 0 1 9 9 v 23 a 9 9 0 0 1 -9 9 h -18 a 9 9 0 0 1 -9 -9 v -23 a 9 9 0 0 1 9 -9 Z" fill="#C68B59"/><path d="M -10.6 0 a 2.6 2.6 0 1 0 5.2 0 a 2.6 2.6 0 1 0 -5.2 0 Z" fill="#2C2C2A"/><path d="M 5.4 0 a 2.6 2.6 0 1 0 5.2 0 a 2.6 2.6 0 1 0 -5.2 0 Z" fill="#2C2C2A"/></g><g transform="translate(64 39)"><path d="M -19.79898987322333 -7 A 21 21 0 0 1 19.79898987322333 -7 Z" fill="#2B211D"/><path d="M -19 -6 C -7 -18 8 -19 20 -7 L 15 1 C 5 -7 -6 -8 -17 1 Z" fill="#2B211D"/><path d="M -5 -15 C -3 -8 -2 -2 -2 7" fill="none" stroke="#00000024" stroke-width="1.6" stroke-linecap="round" stroke-linejoin="round"/></g></g></g><rect x="326" y="574" width="128" height="128" rx="5" fill="#FFFFFF" stroke="#CFC9BC"/><g transform="translate(326 574) scale(1)"><path d="M 48 113 a 16 4.5 0 1 0 32 0 a 16 4.5 0 1 0 -32 0 Z" fill="#000000" opacity="0.12"/><g transform="translate(64 0) scale(1 1) translate(-64 0)"><g transform="translate(64 87)"><path d="M 1 -34 C -7 -34 -14 -31 -16 -25 C -19 -16 -17 -4 -16 8 C -15 19 -11 26 -4 29 C 2 30 8 29 12 26 C 17 22 18 15 17 7 C 19 -3 20 -15 18 -23 C 16 -31 10 -34 1 -34 Z" fill="#3A342E" stroke="#3A342E" stroke-width="5" stroke-linejoin="round" stroke-linecap="round"/></g></g><g transform="translate(64 53) scale(1) translate(-64 -53)"><g transform="translate(67 39)"><path d="M -7 -19 h 15 a 9 9 0 0 1 9 9 v 23 a 9 9 0 0 1 -9 9 h -15 a 9 9 0 0 1 -9 -9 v -23 a 9 9 0 0 1 9 -9 Z" fill="#3A342E" stroke="#3A342E" stroke-width="5" stroke-linejoin="round" stroke-linecap="round"/></g><g transform="translate(67 39)"><path d="M -19.79898987322333 -7 A 21 21 0 0 1 19.79898987322333 -7 Z" fill="#3A342E" stroke="#3A342E" stroke-width="5" stroke-linejoin="round" stroke-linecap="round"/><path d="M -17 -8 h 0 a 4 4 0 0 1 4 4 v 8 a 4 4 0 0 1 -4 4 h 0 a 4 4 0 0 1 -4 -4 v -8 a 4 4 0 0 1 4 -4 Z" fill="#3A342E" stroke="#3A342E" stroke-width="5" stroke-linejoin="round" stroke-linecap="round"/><path d="M -6 -16 C 6 -16 16 -10 19 -3 L 12 2 C 5 -4 -3 -5 -11 0 Z" fill="#3A342E" stroke="#3A342E" stroke-width="5" stroke-linejoin="round" stroke-linecap="round"/></g></g><g transform="translate(64 0) scale(1 1) translate(-64 0)"><g transform="translate(64 87)"><path d="M 1 -34 C -7 -34 -14 -31 -16 -25 C -19 -16 -17 -4 -16 8 C -15 19 -11 26 -4 29 C 2 30 8 29 12 26 C 17 22 18 15 17 7 C 19 -3 20 -15 18 -23 C 16 -31 10 -34 1 -34 Z" fill="#315A78"/><path d="M -10 20 a 10 7 0 1 0 20 0 a 10 7 0 1 0 -20 0 Z" fill="#00000012"/></g><g transform="translate(64 87)"><path d="M -4 -34 Q 1 -29 6 -34 Z" fill="#C68B59"/></g><g transform="translate(64 87)"><path d="M -9 -27 a 9 4 0 1 0 18 0 a 9 4 0 1 0 -18 0 Z" fill="#00000018"/></g></g><g transform="translate(64 53) scale(1) translate(-64 -53)"><g transform="translate(67 39)"><path d="M -7 -19 h 15 a 9 9 0 0 1 9 9 v 23 a 9 9 0 0 1 -9 9 h -15 a 9 9 0 0 1 -9 -9 v -23 a 9 9 0 0 1 9 -9 Z" fill="#C68B59"/><path d="M 8.4 0 a 2.6 2.6 0 1 0 5.2 0 a 2.6 2.6 0 1 0 -5.2 0 Z" fill="#2C2C2A"/></g><g transform="translate(67 39)"><path d="M -19.79898987322333 -7 A 21 21 0 0 1 19.79898987322333 -7 Z" fill="#2B211D"/><path d="M -17 -8 h 0 a 4 4 0 0 1 4 4 v 8 a 4 4 0 0 1 -4 4 h 0 a 4 4 0 0 1 -4 -4 v -8 a 4 4 0 0 1 4 -4 Z" fill="#2B211D"/><path d="M -6 -16 C 6 -16 16 -10 19 -3 L 12 2 C 5 -4 -3 -5 -11 0 Z" fill="#2B211D"/></g></g></g><rect x="464" y="574" width="128" height="128" rx="5" fill="#FFFFFF" stroke="#CFC9BC"/><g transform="translate(464 574) scale(1)"><path d="M 48 113 a 16 4.5 0 1 0 32 0 a 16 4.5 0 1 0 -32 0 Z" fill="#000000" opacity="0.12"/><g transform="translate(64 0) scale(1 1) translate(-64 0)"><g transform="translate(64 87)"><path d="M 0 -34 C -10 -34 -21 -32 -24 -25 C -27 -16 -24 -4 -22 7 C -20 18 -17 26 -9 29 C -3 30 3 30 9 29 C 17 26 20 18 22 7 C 24 -4 27 -16 24 -25 C 21 -32 10 -34 0 -34 Z" fill="#3A342E" stroke="#3A342E" stroke-width="5" stroke-linejoin="round" stroke-linecap="round"/></g></g><g transform="translate(64 53) scale(1) translate(-64 -53)"><g transform="translate(64 39)"><path d="M -9 -19 h 18 a 9 9 0 0 1 9 9 v 23 a 9 9 0 0 1 -9 9 h -18 a 9 9 0 0 1 -9 -9 v -23 a 9 9 0 0 1 9 -9 Z" fill="#3A342E" stroke="#3A342E" stroke-width="5" stroke-linejoin="round" stroke-linecap="round"/></g><g transform="translate(64 39)"><path d="M -20.396078054371138 5 A 21 21 0 1 1 20.396078054371138 5 Z" fill="#3A342E" stroke="#3A342E" stroke-width="5" stroke-linejoin="round" stroke-linecap="round"/><path d="M -19 0 C -7 9 8 9 20 1 L 20 13 L -20 13 Z" fill="#3A342E" stroke="#3A342E" stroke-width="5" stroke-linejoin="round" stroke-linecap="round"/></g></g><g transform="translate(64 0) scale(1 1) translate(-64 0)"><g transform="translate(64 87)"><path d="M 0 -34 C -10 -34 -21 -32 -24 -25 C -27 -16 -24 -4 -22 7 C -20 18 -17 26 -9 29 C -3 30 3 30 9 29 C 17 26 20 18 22 7 C 24 -4 27 -16 24 -25 C 21 -32 10 -34 0 -34 Z" fill="#315A78"/></g><g transform="translate(64 87)"><path d="M -12 -27 a 12 4 0 1 0 24 0 a 12 4 0 1 0 -24 0 Z" fill="#00000018"/></g></g><g transform="translate(64 53) scale(1) translate(-64 -53)"><g transform="translate(64 39)"><path d="M -9 -19 h 18 a 9 9 0 0 1 9 9 v 23 a 9 9 0 0 1 -9 9 h -18 a 9 9 0 0 1 -9 -9 v -23 a 9 9 0 0 1 9 -9 Z" fill="#C68B59"/></g><g transform="translate(64 39)"><path d="M -20.396078054371138 5 A 21 21 0 1 1 20.396078054371138 5 Z" fill="#2B211D"/><path d="M -19 0 C -7 9 8 9 20 1 L 20 13 L -20 13 Z" fill="#2B211D"/></g></g></g><rect x="602" y="574" width="128" height="128" rx="5" fill="#FFFFFF" stroke="#CFC9BC"/><g transform="translate(602 574) scale(1)"><path d="M 48 113 a 16 4.5 0 1 0 32 0 a 16 4.5 0 1 0 -32 0 Z" fill="#000000" opacity="0.12"/><g transform="translate(128 0) scale(-1 1)"><g transform="translate(64 0) scale(1 1) translate(-64 0)"><g transform="translate(64 87)"><path d="M 1 -34 C -7 -34 -14 -31 -16 -25 C -19 -16 -17 -4 -16 8 C -15 19 -11 26 -4 29 C 2 30 8 29 12 26 C 17 22 18 15 17 7 C 19 -3 20 -15 18 -23 C 16 -31 10 -34 1 -34 Z" fill="#3A342E" stroke="#3A342E" stroke-width="5" stroke-linejoin="round" stroke-linecap="round"/></g></g><g transform="translate(64 53) scale(1) translate(-64 -53)"><g transform="translate(67 39)"><path d="M -7 -19 h 15 a 9 9 0 0 1 9 9 v 23 a 9 9 0 0 1 -9 9 h -15 a 9 9 0 0 1 -9 -9 v -23 a 9 9 0 0 1 9 -9 Z" fill="#3A342E" stroke="#3A342E" stroke-width="5" stroke-linejoin="round" stroke-linecap="round"/></g><g transform="translate(67 39)"><path d="M -19.79898987322333 -7 A 21 21 0 0 1 19.79898987322333 -7 Z" fill="#3A342E" stroke="#3A342E" stroke-width="5" stroke-linejoin="round" stroke-linecap="round"/><path d="M -17 -8 h 0 a 4 4 0 0 1 4 4 v 8 a 4 4 0 0 1 -4 4 h 0 a 4 4 0 0 1 -4 -4 v -8 a 4 4 0 0 1 4 -4 Z" fill="#3A342E" stroke="#3A342E" stroke-width="5" stroke-linejoin="round" stroke-linecap="round"/><path d="M -6 -16 C 6 -16 16 -10 19 -3 L 12 2 C 5 -4 -3 -5 -11 0 Z" fill="#3A342E" stroke="#3A342E" stroke-width="5" stroke-linejoin="round" stroke-linecap="round"/></g></g><g transform="translate(64 0) scale(1 1) translate(-64 0)"><g transform="translate(64 87)"><path d="M 1 -34 C -7 -34 -14 -31 -16 -25 C -19 -16 -17 -4 -16 8 C -15 19 -11 26 -4 29 C 2 30 8 29 12 26 C 17 22 18 15 17 7 C 19 -3 20 -15 18 -23 C 16 -31 10 -34 1 -34 Z" fill="#315A78"/><path d="M -10 20 a 10 7 0 1 0 20 0 a 10 7 0 1 0 -20 0 Z" fill="#00000012"/></g><g transform="translate(64 87)"><path d="M -4 -34 Q 1 -29 6 -34 Z" fill="#C68B59"/></g><g transform="translate(64 87)"><path d="M -9 -27 a 9 4 0 1 0 18 0 a 9 4 0 1 0 -18 0 Z" fill="#00000018"/></g></g><g transform="translate(64 53) scale(1) translate(-64 -53)"><g transform="translate(67 39)"><path d="M -7 -19 h 15 a 9 9 0 0 1 9 9 v 23 a 9 9 0 0 1 -9 9 h -15 a 9 9 0 0 1 -9 -9 v -23 a 9 9 0 0 1 9 -9 Z" fill="#C68B59"/><path d="M 8.4 0 a 2.6 2.6 0 1 0 5.2 0 a 2.6 2.6 0 1 0 -5.2 0 Z" fill="#2C2C2A"/></g><g transform="translate(67 39)"><path d="M -19.79898987322333 -7 A 21 21 0 0 1 19.79898987322333 -7 Z" fill="#2B211D"/><path d="M -17 -8 h 0 a 4 4 0 0 1 4 4 v 8 a 4 4 0 0 1 -4 4 h 0 a 4 4 0 0 1 -4 -4 v -8 a 4 4 0 0 1 4 -4 Z" fill="#2B211D"/><path d="M -6 -16 C 6 -16 16 -10 19 -3 L 12 2 C 5 -4 -3 -5 -11 0 Z" fill="#2B211D"/></g></g></g></g><rect x="764" y="598" width="72" height="72" rx="5" fill="#FFFFFF" stroke="#CFC9BC"/><g transform="translate(768 602) scale(0.5)"><path d="M 48 113 a 16 4.5 0 1 0 32 0 a 16 4.5 0 1 0 -32 0 Z" fill="#000000" opacity="0.12"/><g transform="translate(64 0) scale(1 1) translate(-64 0)"><g transform="translate(64 87)"><path d="M 0 -34 C -10 -34 -21 -32 -24 -25 C -27 -16 -24 -4 -22 7 C -20 18 -17 26 -9 29 C -3 30 3 30 9 29 C 17 26 20 18 22 7 C 24 -4 27 -16 24 -25 C 21 -32 10 -34 0 -34 Z" fill="#3A342E" stroke="#3A342E" stroke-width="5" stroke-linejoin="round" stroke-linecap="round"/></g></g><g transform="translate(64 53) scale(1) translate(-64 -53)"><g transform="translate(64 39)"><path d="M -9 -19 h 18 a 9 9 0 0 1 9 9 v 23 a 9 9 0 0 1 -9 9 h -18 a 9 9 0 0 1 -9 -9 v -23 a 9 9 0 0 1 9 -9 Z" fill="#3A342E" stroke="#3A342E" stroke-width="5" stroke-linejoin="round" stroke-linecap="round"/></g><g transform="translate(64 39)"><path d="M -19.79898987322333 -7 A 21 21 0 0 1 19.79898987322333 -7 Z" fill="#3A342E" stroke="#3A342E" stroke-width="5" stroke-linejoin="round" stroke-linecap="round"/><path d="M -19 -6 C -7 -18 8 -19 20 -7 L 15 1 C 5 -7 -6 -8 -17 1 Z" fill="#3A342E" stroke="#3A342E" stroke-width="5" stroke-linejoin="round" stroke-linecap="round"/></g></g><g transform="translate(64 0) scale(1 1) translate(-64 0)"><g transform="translate(64 87)"><path d="M 0 -34 C -10 -34 -21 -32 -24 -25 C -27 -16 -24 -4 -22 7 C -20 18 -17 26 -9 29 C -3 30 3 30 9 29 C 17 26 20 18 22 7 C 24 -4 27 -16 24 -25 C 21 -32 10 -34 0 -34 Z" fill="#315A78"/><path d="M -13 20 a 13 7 0 1 0 26 0 a 13 7 0 1 0 -26 0 Z" fill="#00000012"/></g><g transform="translate(64 87)"><path d="M -7.82 -34 Q 0 -27 7.82 -34 Z" fill="#C68B59"/></g><g transform="translate(64 87)"><path d="M -12 -27 a 12 4 0 1 0 24 0 a 12 4 0 1 0 -24 0 Z" fill="#00000018"/></g></g><g transform="translate(64 53) scale(1) translate(-64 -53)"><g transform="translate(64 39)"><path d="M -9 -19 h 18 a 9 9 0 0 1 9 9 v 23 a 9 9 0 0 1 -9 9 h -18 a 9 9 0 0 1 -9 -9 v -23 a 9 9 0 0 1 9 -9 Z" fill="#C68B59"/><path d="M -10.6 0 a 2.6 2.6 0 1 0 5.2 0 a 2.6 2.6 0 1 0 -5.2 0 Z" fill="#2C2C2A"/><path d="M 5.4 0 a 2.6 2.6 0 1 0 5.2 0 a 2.6 2.6 0 1 0 -5.2 0 Z" fill="#2C2C2A"/></g><g transform="translate(64 39)"><path d="M -19.79898987322333 -7 A 21 21 0 0 1 19.79898987322333 -7 Z" fill="#2B211D"/><path d="M -19 -6 C -7 -18 8 -19 20 -7 L 15 1 C 5 -7 -6 -8 -17 1 Z" fill="#2B211D"/><path d="M -5 -15 C -3 -8 -2 -2 -2 7" fill="none" stroke="#00000024" stroke-width="1.6" stroke-linecap="round" stroke-linejoin="round"/></g></g></g><text x="790" y="688" font-family="system-ui, sans-serif" font-size="9" font-weight="600" fill="#68747A">64</text><rect x="848" y="598" width="72" height="72" rx="5" fill="#FFFFFF" stroke="#CFC9BC"/><g transform="translate(860 610) scale(0.375)"><path d="M 48 113 a 16 4.5 0 1 0 32 0 a 16 4.5 0 1 0 -32 0 Z" fill="#000000" opacity="0.12"/><g transform="translate(64 0) scale(1 1) translate(-64 0)"><g transform="translate(64 87)"><path d="M 0 -34 C -10 -34 -21 -32 -24 -25 C -27 -16 -24 -4 -22 7 C -20 18 -17 26 -9 29 C -3 30 3 30 9 29 C 17 26 20 18 22 7 C 24 -4 27 -16 24 -25 C 21 -32 10 -34 0 -34 Z" fill="#3A342E" stroke="#3A342E" stroke-width="5" stroke-linejoin="round" stroke-linecap="round"/></g></g><g transform="translate(64 53) scale(1) translate(-64 -53)"><g transform="translate(64 39)"><path d="M -9 -19 h 18 a 9 9 0 0 1 9 9 v 23 a 9 9 0 0 1 -9 9 h -18 a 9 9 0 0 1 -9 -9 v -23 a 9 9 0 0 1 9 -9 Z" fill="#3A342E" stroke="#3A342E" stroke-width="5" stroke-linejoin="round" stroke-linecap="round"/></g><g transform="translate(64 39)"><path d="M -19.79898987322333 -7 A 21 21 0 0 1 19.79898987322333 -7 Z" fill="#3A342E" stroke="#3A342E" stroke-width="5" stroke-linejoin="round" stroke-linecap="round"/><path d="M -19 -6 C -7 -18 8 -19 20 -7 L 15 1 C 5 -7 -6 -8 -17 1 Z" fill="#3A342E" stroke="#3A342E" stroke-width="5" stroke-linejoin="round" stroke-linecap="round"/></g></g><g transform="translate(64 0) scale(1 1) translate(-64 0)"><g transform="translate(64 87)"><path d="M 0 -34 C -10 -34 -21 -32 -24 -25 C -27 -16 -24 -4 -22 7 C -20 18 -17 26 -9 29 C -3 30 3 30 9 29 C 17 26 20 18 22 7 C 24 -4 27 -16 24 -25 C 21 -32 10 -34 0 -34 Z" fill="#315A78"/><path d="M -13 20 a 13 7 0 1 0 26 0 a 13 7 0 1 0 -26 0 Z" fill="#00000012"/></g><g transform="translate(64 87)"><path d="M -7.82 -34 Q 0 -27 7.82 -34 Z" fill="#C68B59"/></g><g transform="translate(64 87)"><path d="M -12 -27 a 12 4 0 1 0 24 0 a 12 4 0 1 0 -24 0 Z" fill="#00000018"/></g></g><g transform="translate(64 53) scale(1) translate(-64 -53)"><g transform="translate(64 39)"><path d="M -9 -19 h 18 a 9 9 0 0 1 9 9 v 23 a 9 9 0 0 1 -9 9 h -18 a 9 9 0 0 1 -9 -9 v -23 a 9 9 0 0 1 9 -9 Z" fill="#C68B59"/><path d="M -10.6 0 a 2.6 2.6 0 1 0 5.2 0 a 2.6 2.6 0 1 0 -5.2 0 Z" fill="#2C2C2A"/><path d="M 5.4 0 a 2.6 2.6 0 1 0 5.2 0 a 2.6 2.6 0 1 0 -5.2 0 Z" fill="#2C2C2A"/></g><g transform="translate(64 39)"><path d="M -19.79898987322333 -7 A 21 21 0 0 1 19.79898987322333 -7 Z" fill="#2B211D"/><path d="M -19 -6 C -7 -18 8 -19 20 -7 L 15 1 C 5 -7 -6 -8 -17 1 Z" fill="#2B211D"/><path d="M -5 -15 C -3 -8 -2 -2 -2 7" fill="none" stroke="#00000024" stroke-width="1.6" stroke-linecap="round" stroke-linejoin="round"/></g></g></g><text x="874" y="688" font-family="system-ui, sans-serif" font-size="9" font-weight="600" fill="#68747A">48</text><rect x="932" y="598" width="72" height="72" rx="5" fill="#FFFFFF" stroke="#CFC9BC"/><g transform="translate(952 618) scale(0.25)"><path d="M 48 113 a 16 4.5 0 1 0 32 0 a 16 4.5 0 1 0 -32 0 Z" fill="#000000" opacity="0.12"/><g transform="translate(64 0) scale(1 1) translate(-64 0)"><g transform="translate(64 87)"><path d="M 0 -34 C -10 -34 -21 -32 -24 -25 C -27 -16 -24 -4 -22 7 C -20 18 -17 26 -9 29 C -3 30 3 30 9 29 C 17 26 20 18 22 7 C 24 -4 27 -16 24 -25 C 21 -32 10 -34 0 -34 Z" fill="#3A342E" stroke="#3A342E" stroke-width="5" stroke-linejoin="round" stroke-linecap="round"/></g></g><g transform="translate(64 53) scale(1) translate(-64 -53)"><g transform="translate(64 39)"><path d="M -9 -19 h 18 a 9 9 0 0 1 9 9 v 23 a 9 9 0 0 1 -9 9 h -18 a 9 9 0 0 1 -9 -9 v -23 a 9 9 0 0 1 9 -9 Z" fill="#3A342E" stroke="#3A342E" stroke-width="5" stroke-linejoin="round" stroke-linecap="round"/></g><g transform="translate(64 39)"><path d="M -19.79898987322333 -7 A 21 21 0 0 1 19.79898987322333 -7 Z" fill="#3A342E" stroke="#3A342E" stroke-width="5" stroke-linejoin="round" stroke-linecap="round"/><path d="M -19 -6 C -7 -18 8 -19 20 -7 L 15 1 C 5 -7 -6 -8 -17 1 Z" fill="#3A342E" stroke="#3A342E" stroke-width="5" stroke-linejoin="round" stroke-linecap="round"/></g></g><g transform="translate(64 0) scale(1 1) translate(-64 0)"><g transform="translate(64 87)"><path d="M 0 -34 C -10 -34 -21 -32 -24 -25 C -27 -16 -24 -4 -22 7 C -20 18 -17 26 -9 29 C -3 30 3 30 9 29 C 17 26 20 18 22 7 C 24 -4 27 -16 24 -25 C 21 -32 10 -34 0 -34 Z" fill="#315A78"/><path d="M -13 20 a 13 7 0 1 0 26 0 a 13 7 0 1 0 -26 0 Z" fill="#00000012"/></g><g transform="translate(64 87)"><path d="M -7.82 -34 Q 0 -27 7.82 -34 Z" fill="#C68B59"/></g><g transform="translate(64 87)"><path d="M -12 -27 a 12 4 0 1 0 24 0 a 12 4 0 1 0 -24 0 Z" fill="#00000018"/></g></g><g transform="translate(64 53) scale(1) translate(-64 -53)"><g transform="translate(64 39)"><path d="M -9 -19 h 18 a 9 9 0 0 1 9 9 v 23 a 9 9 0 0 1 -9 9 h -18 a 9 9 0 0 1 -9 -9 v -23 a 9 9 0 0 1 9 -9 Z" fill="#C68B59"/><path d="M -10.6 0 a 2.6 2.6 0 1 0 5.2 0 a 2.6 2.6 0 1 0 -5.2 0 Z" fill="#2C2C2A"/><path d="M 5.4 0 a 2.6 2.6 0 1 0 5.2 0 a 2.6 2.6 0 1 0 -5.2 0 Z" fill="#2C2C2A"/></g><g transform="translate(64 39)"><path d="M -19.79898987322333 -7 A 21 21 0 0 1 19.79898987322333 -7 Z" fill="#2B211D"/><path d="M -19 -6 C -7 -18 8 -19 20 -7 L 15 1 C 5 -7 -6 -8 -17 1 Z" fill="#2B211D"/><path d="M -5 -15 C -3 -8 -2 -2 -2 7" fill="none" stroke="#00000024" stroke-width="1.6" stroke-linecap="round" stroke-linejoin="round"/></g></g></g><text x="958" y="688" font-family="system-ui, sans-serif" font-size="9" font-weight="600" fill="#68747A">32</text><rect x="8" y="720" width="1044" height="148" rx="8" fill="#FFFEFA"/><text x="22" y="758" font-family="system-ui, sans-serif" font-size="16" font-weight="700" fill="#2F3538">Soft</text><text x="22" y="778" font-family="system-ui, sans-serif" font-size="10" font-weight="600" fill="#68747A">id: soft</text><text x="22" y="800" font-family="system-ui, sans-serif" font-size="10" font-weight="400" fill="#68747A">Sloped shoulders and</text><text x="22" y="815" font-family="system-ui, sans-serif" font-size="10" font-weight="400" fill="#68747A">lower-volume roundness</text><text x="22" y="830" font-family="system-ui, sans-serif" font-size="10" font-weight="400" fill="#68747A">without caricature.</text><rect x="188" y="730" width="128" height="128" rx="5" fill="#FFFFFF" stroke="#CFC9BC"/><g transform="translate(188 730) scale(1)"><path d="M 48 113 a 16 4.5 0 1 0 32 0 a 16 4.5 0 1 0 -32 0 Z" fill="#000000" opacity="0.12"/><g transform="translate(64 0) scale(1 1) translate(-64 0)"><g transform="translate(64 87)"><path d="M 0 -28 C -11 -28 -20 -25 -24 -18 C -27 -10 -27 -1 -30 8 C -33 17 -30 25 -22 28 C -15 31 -6 30 0 29 C 6 30 15 31 22 28 C 30 25 33 17 30 8 C 27 -1 27 -10 24 -18 C 20 -25 11 -28 0 -28 Z" fill="#3A342E" stroke="#3A342E" stroke-width="5" stroke-linejoin="round" stroke-linecap="round"/></g></g><g transform="translate(64 59) scale(1) translate(-64 -59)"><g transform="translate(64 45)"><path d="M -9 -19 h 18 a 9 9 0 0 1 9 9 v 23 a 9 9 0 0 1 -9 9 h -18 a 9 9 0 0 1 -9 -9 v -23 a 9 9 0 0 1 9 -9 Z" fill="#3A342E" stroke="#3A342E" stroke-width="5" stroke-linejoin="round" stroke-linecap="round"/></g><g transform="translate(64 45)"><path d="M -19.79898987322333 -7 A 21 21 0 0 1 19.79898987322333 -7 Z" fill="#3A342E" stroke="#3A342E" stroke-width="5" stroke-linejoin="round" stroke-linecap="round"/><path d="M -19 -6 C -7 -18 8 -19 20 -7 L 15 1 C 5 -7 -6 -8 -17 1 Z" fill="#3A342E" stroke="#3A342E" stroke-width="5" stroke-linejoin="round" stroke-linecap="round"/></g></g><g transform="translate(64 0) scale(1 1) translate(-64 0)"><g transform="translate(64 87)"><path d="M 0 -28 C -11 -28 -20 -25 -24 -18 C -27 -10 -27 -1 -30 8 C -33 17 -30 25 -22 28 C -15 31 -6 30 0 29 C 6 30 15 31 22 28 C 30 25 33 17 30 8 C 27 -1 27 -10 24 -18 C 20 -25 11 -28 0 -28 Z" fill="#315A78"/><path d="M -21 20 a 21 7 0 1 0 42 0 a 21 7 0 1 0 -42 0 Z" fill="#00000012"/></g><g transform="translate(64 87)"><path d="M -7.82 -28 Q 0 -21 7.82 -28 Z" fill="#C68B59"/></g><g transform="translate(64 87)"><path d="M -12 -21 a 12 4 0 1 0 24 0 a 12 4 0 1 0 -24 0 Z" fill="#00000018"/></g></g><g transform="translate(64 59) scale(1) translate(-64 -59)"><g transform="translate(64 45)"><path d="M -9 -19 h 18 a 9 9 0 0 1 9 9 v 23 a 9 9 0 0 1 -9 9 h -18 a 9 9 0 0 1 -9 -9 v -23 a 9 9 0 0 1 9 -9 Z" fill="#C68B59"/><path d="M -10.6 0 a 2.6 2.6 0 1 0 5.2 0 a 2.6 2.6 0 1 0 -5.2 0 Z" fill="#2C2C2A"/><path d="M 5.4 0 a 2.6 2.6 0 1 0 5.2 0 a 2.6 2.6 0 1 0 -5.2 0 Z" fill="#2C2C2A"/></g><g transform="translate(64 45)"><path d="M -19.79898987322333 -7 A 21 21 0 0 1 19.79898987322333 -7 Z" fill="#2B211D"/><path d="M -19 -6 C -7 -18 8 -19 20 -7 L 15 1 C 5 -7 -6 -8 -17 1 Z" fill="#2B211D"/><path d="M -5 -15 C -3 -8 -2 -2 -2 7" fill="none" stroke="#00000024" stroke-width="1.6" stroke-linecap="round" stroke-linejoin="round"/></g></g></g><rect x="326" y="730" width="128" height="128" rx="5" fill="#FFFFFF" stroke="#CFC9BC"/><g transform="translate(326 730) scale(1)"><path d="M 48 113 a 16 4.5 0 1 0 32 0 a 16 4.5 0 1 0 -32 0 Z" fill="#000000" opacity="0.12"/><g transform="translate(64 0) scale(1 1) translate(-64 0)"><g transform="translate(64 87)"><path d="M 1 -28 C -9 -28 -18 -25 -20 -18 C -23 -9 -21 0 -23 9 C -25 18 -21 26 -13 29 C -5 31 5 30 12 29 C 22 27 28 19 28 10 C 29 1 26 -7 24 -15 C 22 -23 13 -28 1 -28 Z" fill="#3A342E" stroke="#3A342E" stroke-width="5" stroke-linejoin="round" stroke-linecap="round"/></g></g><g transform="translate(64 59) scale(1) translate(-64 -59)"><g transform="translate(67 45)"><path d="M -7 -19 h 15 a 9 9 0 0 1 9 9 v 23 a 9 9 0 0 1 -9 9 h -15 a 9 9 0 0 1 -9 -9 v -23 a 9 9 0 0 1 9 -9 Z" fill="#3A342E" stroke="#3A342E" stroke-width="5" stroke-linejoin="round" stroke-linecap="round"/></g><g transform="translate(67 45)"><path d="M -19.79898987322333 -7 A 21 21 0 0 1 19.79898987322333 -7 Z" fill="#3A342E" stroke="#3A342E" stroke-width="5" stroke-linejoin="round" stroke-linecap="round"/><path d="M -17 -8 h 0 a 4 4 0 0 1 4 4 v 8 a 4 4 0 0 1 -4 4 h 0 a 4 4 0 0 1 -4 -4 v -8 a 4 4 0 0 1 4 -4 Z" fill="#3A342E" stroke="#3A342E" stroke-width="5" stroke-linejoin="round" stroke-linecap="round"/><path d="M -6 -16 C 6 -16 16 -10 19 -3 L 12 2 C 5 -4 -3 -5 -11 0 Z" fill="#3A342E" stroke="#3A342E" stroke-width="5" stroke-linejoin="round" stroke-linecap="round"/></g></g><g transform="translate(64 0) scale(1 1) translate(-64 0)"><g transform="translate(64 87)"><path d="M 1 -28 C -9 -28 -18 -25 -20 -18 C -23 -9 -21 0 -23 9 C -25 18 -21 26 -13 29 C -5 31 5 30 12 29 C 22 27 28 19 28 10 C 29 1 26 -7 24 -15 C 22 -23 13 -28 1 -28 Z" fill="#315A78"/><path d="M -16 20 a 16 7 0 1 0 32 0 a 16 7 0 1 0 -32 0 Z" fill="#00000012"/></g><g transform="translate(64 87)"><path d="M -4 -28 Q 1 -23 6 -28 Z" fill="#C68B59"/></g><g transform="translate(64 87)"><path d="M -9 -21 a 9 4 0 1 0 18 0 a 9 4 0 1 0 -18 0 Z" fill="#00000018"/></g></g><g transform="translate(64 59) scale(1) translate(-64 -59)"><g transform="translate(67 45)"><path d="M -7 -19 h 15 a 9 9 0 0 1 9 9 v 23 a 9 9 0 0 1 -9 9 h -15 a 9 9 0 0 1 -9 -9 v -23 a 9 9 0 0 1 9 -9 Z" fill="#C68B59"/><path d="M 8.4 0 a 2.6 2.6 0 1 0 5.2 0 a 2.6 2.6 0 1 0 -5.2 0 Z" fill="#2C2C2A"/></g><g transform="translate(67 45)"><path d="M -19.79898987322333 -7 A 21 21 0 0 1 19.79898987322333 -7 Z" fill="#2B211D"/><path d="M -17 -8 h 0 a 4 4 0 0 1 4 4 v 8 a 4 4 0 0 1 -4 4 h 0 a 4 4 0 0 1 -4 -4 v -8 a 4 4 0 0 1 4 -4 Z" fill="#2B211D"/><path d="M -6 -16 C 6 -16 16 -10 19 -3 L 12 2 C 5 -4 -3 -5 -11 0 Z" fill="#2B211D"/></g></g></g><rect x="464" y="730" width="128" height="128" rx="5" fill="#FFFFFF" stroke="#CFC9BC"/><g transform="translate(464 730) scale(1)"><path d="M 48 113 a 16 4.5 0 1 0 32 0 a 16 4.5 0 1 0 -32 0 Z" fill="#000000" opacity="0.12"/><g transform="translate(64 0) scale(1 1) translate(-64 0)"><g transform="translate(64 87)"><path d="M 0 -28 C -11 -28 -20 -25 -24 -18 C -27 -10 -27 -1 -30 8 C -33 17 -30 25 -22 28 C -15 31 -6 30 0 29 C 6 30 15 31 22 28 C 30 25 33 17 30 8 C 27 -1 27 -10 24 -18 C 20 -25 11 -28 0 -28 Z" fill="#3A342E" stroke="#3A342E" stroke-width="5" stroke-linejoin="round" stroke-linecap="round"/></g></g><g transform="translate(64 59) scale(1) translate(-64 -59)"><g transform="translate(64 45)"><path d="M -9 -19 h 18 a 9 9 0 0 1 9 9 v 23 a 9 9 0 0 1 -9 9 h -18 a 9 9 0 0 1 -9 -9 v -23 a 9 9 0 0 1 9 -9 Z" fill="#3A342E" stroke="#3A342E" stroke-width="5" stroke-linejoin="round" stroke-linecap="round"/></g><g transform="translate(64 45)"><path d="M -20.396078054371138 5 A 21 21 0 1 1 20.396078054371138 5 Z" fill="#3A342E" stroke="#3A342E" stroke-width="5" stroke-linejoin="round" stroke-linecap="round"/><path d="M -19 0 C -7 9 8 9 20 1 L 20 13 L -20 13 Z" fill="#3A342E" stroke="#3A342E" stroke-width="5" stroke-linejoin="round" stroke-linecap="round"/></g></g><g transform="translate(64 0) scale(1 1) translate(-64 0)"><g transform="translate(64 87)"><path d="M 0 -28 C -11 -28 -20 -25 -24 -18 C -27 -10 -27 -1 -30 8 C -33 17 -30 25 -22 28 C -15 31 -6 30 0 29 C 6 30 15 31 22 28 C 30 25 33 17 30 8 C 27 -1 27 -10 24 -18 C 20 -25 11 -28 0 -28 Z" fill="#315A78"/></g><g transform="translate(64 87)"><path d="M -12 -21 a 12 4 0 1 0 24 0 a 12 4 0 1 0 -24 0 Z" fill="#00000018"/></g></g><g transform="translate(64 59) scale(1) translate(-64 -59)"><g transform="translate(64 45)"><path d="M -9 -19 h 18 a 9 9 0 0 1 9 9 v 23 a 9 9 0 0 1 -9 9 h -18 a 9 9 0 0 1 -9 -9 v -23 a 9 9 0 0 1 9 -9 Z" fill="#C68B59"/></g><g transform="translate(64 45)"><path d="M -20.396078054371138 5 A 21 21 0 1 1 20.396078054371138 5 Z" fill="#2B211D"/><path d="M -19 0 C -7 9 8 9 20 1 L 20 13 L -20 13 Z" fill="#2B211D"/></g></g></g><rect x="602" y="730" width="128" height="128" rx="5" fill="#FFFFFF" stroke="#CFC9BC"/><g transform="translate(602 730) scale(1)"><path d="M 48 113 a 16 4.5 0 1 0 32 0 a 16 4.5 0 1 0 -32 0 Z" fill="#000000" opacity="0.12"/><g transform="translate(128 0) scale(-1 1)"><g transform="translate(64 0) scale(1 1) translate(-64 0)"><g transform="translate(64 87)"><path d="M 1 -28 C -9 -28 -18 -25 -20 -18 C -23 -9 -21 0 -23 9 C -25 18 -21 26 -13 29 C -5 31 5 30 12 29 C 22 27 28 19 28 10 C 29 1 26 -7 24 -15 C 22 -23 13 -28 1 -28 Z" fill="#3A342E" stroke="#3A342E" stroke-width="5" stroke-linejoin="round" stroke-linecap="round"/></g></g><g transform="translate(64 59) scale(1) translate(-64 -59)"><g transform="translate(67 45)"><path d="M -7 -19 h 15 a 9 9 0 0 1 9 9 v 23 a 9 9 0 0 1 -9 9 h -15 a 9 9 0 0 1 -9 -9 v -23 a 9 9 0 0 1 9 -9 Z" fill="#3A342E" stroke="#3A342E" stroke-width="5" stroke-linejoin="round" stroke-linecap="round"/></g><g transform="translate(67 45)"><path d="M -19.79898987322333 -7 A 21 21 0 0 1 19.79898987322333 -7 Z" fill="#3A342E" stroke="#3A342E" stroke-width="5" stroke-linejoin="round" stroke-linecap="round"/><path d="M -17 -8 h 0 a 4 4 0 0 1 4 4 v 8 a 4 4 0 0 1 -4 4 h 0 a 4 4 0 0 1 -4 -4 v -8 a 4 4 0 0 1 4 -4 Z" fill="#3A342E" stroke="#3A342E" stroke-width="5" stroke-linejoin="round" stroke-linecap="round"/><path d="M -6 -16 C 6 -16 16 -10 19 -3 L 12 2 C 5 -4 -3 -5 -11 0 Z" fill="#3A342E" stroke="#3A342E" stroke-width="5" stroke-linejoin="round" stroke-linecap="round"/></g></g><g transform="translate(64 0) scale(1 1) translate(-64 0)"><g transform="translate(64 87)"><path d="M 1 -28 C -9 -28 -18 -25 -20 -18 C -23 -9 -21 0 -23 9 C -25 18 -21 26 -13 29 C -5 31 5 30 12 29 C 22 27 28 19 28 10 C 29 1 26 -7 24 -15 C 22 -23 13 -28 1 -28 Z" fill="#315A78"/><path d="M -16 20 a 16 7 0 1 0 32 0 a 16 7 0 1 0 -32 0 Z" fill="#00000012"/></g><g transform="translate(64 87)"><path d="M -4 -28 Q 1 -23 6 -28 Z" fill="#C68B59"/></g><g transform="translate(64 87)"><path d="M -9 -21 a 9 4 0 1 0 18 0 a 9 4 0 1 0 -18 0 Z" fill="#00000018"/></g></g><g transform="translate(64 59) scale(1) translate(-64 -59)"><g transform="translate(67 45)"><path d="M -7 -19 h 15 a 9 9 0 0 1 9 9 v 23 a 9 9 0 0 1 -9 9 h -15 a 9 9 0 0 1 -9 -9 v -23 a 9 9 0 0 1 9 -9 Z" fill="#C68B59"/><path d="M 8.4 0 a 2.6 2.6 0 1 0 5.2 0 a 2.6 2.6 0 1 0 -5.2 0 Z" fill="#2C2C2A"/></g><g transform="translate(67 45)"><path d="M -19.79898987322333 -7 A 21 21 0 0 1 19.79898987322333 -7 Z" fill="#2B211D"/><path d="M -17 -8 h 0 a 4 4 0 0 1 4 4 v 8 a 4 4 0 0 1 -4 4 h 0 a 4 4 0 0 1 -4 -4 v -8 a 4 4 0 0 1 4 -4 Z" fill="#2B211D"/><path d="M -6 -16 C 6 -16 16 -10 19 -3 L 12 2 C 5 -4 -3 -5 -11 0 Z" fill="#2B211D"/></g></g></g></g><rect x="764" y="754" width="72" height="72" rx="5" fill="#FFFFFF" stroke="#CFC9BC"/><g transform="translate(768 758) scale(0.5)"><path d="M 48 113 a 16 4.5 0 1 0 32 0 a 16 4.5 0 1 0 -32 0 Z" fill="#000000" opacity="0.12"/><g transform="translate(64 0) scale(1 1) translate(-64 0)"><g transform="translate(64 87)"><path d="M 0 -28 C -11 -28 -20 -25 -24 -18 C -27 -10 -27 -1 -30 8 C -33 17 -30 25 -22 28 C -15 31 -6 30 0 29 C 6 30 15 31 22 28 C 30 25 33 17 30 8 C 27 -1 27 -10 24 -18 C 20 -25 11 -28 0 -28 Z" fill="#3A342E" stroke="#3A342E" stroke-width="5" stroke-linejoin="round" stroke-linecap="round"/></g></g><g transform="translate(64 59) scale(1) translate(-64 -59)"><g transform="translate(64 45)"><path d="M -9 -19 h 18 a 9 9 0 0 1 9 9 v 23 a 9 9 0 0 1 -9 9 h -18 a 9 9 0 0 1 -9 -9 v -23 a 9 9 0 0 1 9 -9 Z" fill="#3A342E" stroke="#3A342E" stroke-width="5" stroke-linejoin="round" stroke-linecap="round"/></g><g transform="translate(64 45)"><path d="M -19.79898987322333 -7 A 21 21 0 0 1 19.79898987322333 -7 Z" fill="#3A342E" stroke="#3A342E" stroke-width="5" stroke-linejoin="round" stroke-linecap="round"/><path d="M -19 -6 C -7 -18 8 -19 20 -7 L 15 1 C 5 -7 -6 -8 -17 1 Z" fill="#3A342E" stroke="#3A342E" stroke-width="5" stroke-linejoin="round" stroke-linecap="round"/></g></g><g transform="translate(64 0) scale(1 1) translate(-64 0)"><g transform="translate(64 87)"><path d="M 0 -28 C -11 -28 -20 -25 -24 -18 C -27 -10 -27 -1 -30 8 C -33 17 -30 25 -22 28 C -15 31 -6 30 0 29 C 6 30 15 31 22 28 C 30 25 33 17 30 8 C 27 -1 27 -10 24 -18 C 20 -25 11 -28 0 -28 Z" fill="#315A78"/><path d="M -21 20 a 21 7 0 1 0 42 0 a 21 7 0 1 0 -42 0 Z" fill="#00000012"/></g><g transform="translate(64 87)"><path d="M -7.82 -28 Q 0 -21 7.82 -28 Z" fill="#C68B59"/></g><g transform="translate(64 87)"><path d="M -12 -21 a 12 4 0 1 0 24 0 a 12 4 0 1 0 -24 0 Z" fill="#00000018"/></g></g><g transform="translate(64 59) scale(1) translate(-64 -59)"><g transform="translate(64 45)"><path d="M -9 -19 h 18 a 9 9 0 0 1 9 9 v 23 a 9 9 0 0 1 -9 9 h -18 a 9 9 0 0 1 -9 -9 v -23 a 9 9 0 0 1 9 -9 Z" fill="#C68B59"/><path d="M -10.6 0 a 2.6 2.6 0 1 0 5.2 0 a 2.6 2.6 0 1 0 -5.2 0 Z" fill="#2C2C2A"/><path d="M 5.4 0 a 2.6 2.6 0 1 0 5.2 0 a 2.6 2.6 0 1 0 -5.2 0 Z" fill="#2C2C2A"/></g><g transform="translate(64 45)"><path d="M -19.79898987322333 -7 A 21 21 0 0 1 19.79898987322333 -7 Z" fill="#2B211D"/><path d="M -19 -6 C -7 -18 8 -19 20 -7 L 15 1 C 5 -7 -6 -8 -17 1 Z" fill="#2B211D"/><path d="M -5 -15 C -3 -8 -2 -2 -2 7" fill="none" stroke="#00000024" stroke-width="1.6" stroke-linecap="round" stroke-linejoin="round"/></g></g></g><text x="790" y="844" font-family="system-ui, sans-serif" font-size="9" font-weight="600" fill="#68747A">64</text><rect x="848" y="754" width="72" height="72" rx="5" fill="#FFFFFF" stroke="#CFC9BC"/><g transform="translate(860 766) scale(0.375)"><path d="M 48 113 a 16 4.5 0 1 0 32 0 a 16 4.5 0 1 0 -32 0 Z" fill="#000000" opacity="0.12"/><g transform="translate(64 0) scale(1 1) translate(-64 0)"><g transform="translate(64 87)"><path d="M 0 -28 C -11 -28 -20 -25 -24 -18 C -27 -10 -27 -1 -30 8 C -33 17 -30 25 -22 28 C -15 31 -6 30 0 29 C 6 30 15 31 22 28 C 30 25 33 17 30 8 C 27 -1 27 -10 24 -18 C 20 -25 11 -28 0 -28 Z" fill="#3A342E" stroke="#3A342E" stroke-width="5" stroke-linejoin="round" stroke-linecap="round"/></g></g><g transform="translate(64 59) scale(1) translate(-64 -59)"><g transform="translate(64 45)"><path d="M -9 -19 h 18 a 9 9 0 0 1 9 9 v 23 a 9 9 0 0 1 -9 9 h -18 a 9 9 0 0 1 -9 -9 v -23 a 9 9 0 0 1 9 -9 Z" fill="#3A342E" stroke="#3A342E" stroke-width="5" stroke-linejoin="round" stroke-linecap="round"/></g><g transform="translate(64 45)"><path d="M -19.79898987322333 -7 A 21 21 0 0 1 19.79898987322333 -7 Z" fill="#3A342E" stroke="#3A342E" stroke-width="5" stroke-linejoin="round" stroke-linecap="round"/><path d="M -19 -6 C -7 -18 8 -19 20 -7 L 15 1 C 5 -7 -6 -8 -17 1 Z" fill="#3A342E" stroke="#3A342E" stroke-width="5" stroke-linejoin="round" stroke-linecap="round"/></g></g><g transform="translate(64 0) scale(1 1) translate(-64 0)"><g transform="translate(64 87)"><path d="M 0 -28 C -11 -28 -20 -25 -24 -18 C -27 -10 -27 -1 -30 8 C -33 17 -30 25 -22 28 C -15 31 -6 30 0 29 C 6 30 15 31 22 28 C 30 25 33 17 30 8 C 27 -1 27 -10 24 -18 C 20 -25 11 -28 0 -28 Z" fill="#315A78"/><path d="M -21 20 a 21 7 0 1 0 42 0 a 21 7 0 1 0 -42 0 Z" fill="#00000012"/></g><g transform="translate(64 87)"><path d="M -7.82 -28 Q 0 -21 7.82 -28 Z" fill="#C68B59"/></g><g transform="translate(64 87)"><path d="M -12 -21 a 12 4 0 1 0 24 0 a 12 4 0 1 0 -24 0 Z" fill="#00000018"/></g></g><g transform="translate(64 59) scale(1) translate(-64 -59)"><g transform="translate(64 45)"><path d="M -9 -19 h 18 a 9 9 0 0 1 9 9 v 23 a 9 9 0 0 1 -9 9 h -18 a 9 9 0 0 1 -9 -9 v -23 a 9 9 0 0 1 9 -9 Z" fill="#C68B59"/><path d="M -10.6 0 a 2.6 2.6 0 1 0 5.2 0 a 2.6 2.6 0 1 0 -5.2 0 Z" fill="#2C2C2A"/><path d="M 5.4 0 a 2.6 2.6 0 1 0 5.2 0 a 2.6 2.6 0 1 0 -5.2 0 Z" fill="#2C2C2A"/></g><g transform="translate(64 45)"><path d="M -19.79898987322333 -7 A 21 21 0 0 1 19.79898987322333 -7 Z" fill="#2B211D"/><path d="M -19 -6 C -7 -18 8 -19 20 -7 L 15 1 C 5 -7 -6 -8 -17 1 Z" fill="#2B211D"/><path d="M -5 -15 C -3 -8 -2 -2 -2 7" fill="none" stroke="#00000024" stroke-width="1.6" stroke-linecap="round" stroke-linejoin="round"/></g></g></g><text x="874" y="844" font-family="system-ui, sans-serif" font-size="9" font-weight="600" fill="#68747A">48</text><rect x="932" y="754" width="72" height="72" rx="5" fill="#FFFFFF" stroke="#CFC9BC"/><g transform="translate(952 774) scale(0.25)"><path d="M 48 113 a 16 4.5 0 1 0 32 0 a 16 4.5 0 1 0 -32 0 Z" fill="#000000" opacity="0.12"/><g transform="translate(64 0) scale(1 1) translate(-64 0)"><g transform="translate(64 87)"><path d="M 0 -28 C -11 -28 -20 -25 -24 -18 C -27 -10 -27 -1 -30 8 C -33 17 -30 25 -22 28 C -15 31 -6 30 0 29 C 6 30 15 31 22 28 C 30 25 33 17 30 8 C 27 -1 27 -10 24 -18 C 20 -25 11 -28 0 -28 Z" fill="#3A342E" stroke="#3A342E" stroke-width="5" stroke-linejoin="round" stroke-linecap="round"/></g></g><g transform="translate(64 59) scale(1) translate(-64 -59)"><g transform="translate(64 45)"><path d="M -9 -19 h 18 a 9 9 0 0 1 9 9 v 23 a 9 9 0 0 1 -9 9 h -18 a 9 9 0 0 1 -9 -9 v -23 a 9 9 0 0 1 9 -9 Z" fill="#3A342E" stroke="#3A342E" stroke-width="5" stroke-linejoin="round" stroke-linecap="round"/></g><g transform="translate(64 45)"><path d="M -19.79898987322333 -7 A 21 21 0 0 1 19.79898987322333 -7 Z" fill="#3A342E" stroke="#3A342E" stroke-width="5" stroke-linejoin="round" stroke-linecap="round"/><path d="M -19 -6 C -7 -18 8 -19 20 -7 L 15 1 C 5 -7 -6 -8 -17 1 Z" fill="#3A342E" stroke="#3A342E" stroke-width="5" stroke-linejoin="round" stroke-linecap="round"/></g></g><g transform="translate(64 0) scale(1 1) translate(-64 0)"><g transform="translate(64 87)"><path d="M 0 -28 C -11 -28 -20 -25 -24 -18 C -27 -10 -27 -1 -30 8 C -33 17 -30 25 -22 28 C -15 31 -6 30 0 29 C 6 30 15 31 22 28 C 30 25 33 17 30 8 C 27 -1 27 -10 24 -18 C 20 -25 11 -28 0 -28 Z" fill="#315A78"/><path d="M -21 20 a 21 7 0 1 0 42 0 a 21 7 0 1 0 -42 0 Z" fill="#00000012"/></g><g transform="translate(64 87)"><path d="M -7.82 -28 Q 0 -21 7.82 -28 Z" fill="#C68B59"/></g><g transform="translate(64 87)"><path d="M -12 -21 a 12 4 0 1 0 24 0 a 12 4 0 1 0 -24 0 Z" fill="#00000018"/></g></g><g transform="translate(64 59) scale(1) translate(-64 -59)"><g transform="translate(64 45)"><path d="M -9 -19 h 18 a 9 9 0 0 1 9 9 v 23 a 9 9 0 0 1 -9 9 h -18 a 9 9 0 0 1 -9 -9 v -23 a 9 9 0 0 1 9 -9 Z" fill="#C68B59"/><path d="M -10.6 0 a 2.6 2.6 0 1 0 5.2 0 a 2.6 2.6 0 1 0 -5.2 0 Z" fill="#2C2C2A"/><path d="M 5.4 0 a 2.6 2.6 0 1 0 5.2 0 a 2.6 2.6 0 1 0 -5.2 0 Z" fill="#2C2C2A"/></g><g transform="translate(64 45)"><path d="M -19.79898987322333 -7 A 21 21 0 0 1 19.79898987322333 -7 Z" fill="#2B211D"/><path d="M -19 -6 C -7 -18 8 -19 20 -7 L 15 1 C 5 -7 -6 -8 -17 1 Z" fill="#2B211D"/><path d="M -5 -15 C -3 -8 -2 -2 -2 7" fill="none" stroke="#00000024" stroke-width="1.6" stroke-linecap="round" stroke-linejoin="round"/></g></g></g><text x="958" y="844" font-family="system-ui, sans-serif" font-size="9" font-weight="600" fill="#68747A">32</text></svg>