<svg xmlns="http://www.w3.org/2000/svg" width="690" height="1012" viewBox="0 0 690 1012"><rect width="690" height="1012" fill="#F4F1E9"/><text x="18" y="28" font-family="system-ui, sans-serif" font-size="19" font-weight="700" fill="#2F3538">Active body-owned sub-anchor rigs</text><text x="18" y="49" font-family="system-ui, sans-serif" font-size="11" font-weight="400" fill="#68747A">These exact anchors now drive heads, garments, attachments, portraits, and the complete pose catalog.</text><circle cx="22" cy="72" r="4" fill="#D94A6A"/><text x="30" y="76" font-family="system-ui, sans-serif" font-size="10" font-weight="600" fill="#68747A">head</text><circle cx="88" cy="72" r="4" fill="#2E9D67"/><text x="96" y="76" font-family="system-ui, sans-serif" font-size="10" font-weight="600" fill="#68747A">neck</text><circle cx="154" cy="72" r="4" fill="#D98532"/><text x="162" y="76" font-family="system-ui, sans-serif" font-size="10" font-weight="600" fill="#68747A">shoulders</text><circle cx="255" cy="72" r="4" fill="#278AA0"/><text x="263" y="76" font-family="system-ui, sans-serif" font-size="10" font-weight="600" fill="#68747A">waist</text><circle cx="328" cy="72" r="4" fill="#7D62B3"/><text x="336" y="76" font-family="system-ui, sans-serif" font-size="10" font-weight="600" fill="#68747A">hem</text><circle cx="387" cy="72" r="4" fill="#C79A22"/><text x="395" y="76" font-family="system-ui, sans-serif" font-size="10" font-weight="600" fill="#68747A">chest</text><circle cx="460" cy="72" r="4" fill="#4169A8"/><text x="468" y="76" font-family="system-ui, sans-serif" font-size="10" font-weight="600" fill="#68747A">hip</text><text x="20" y="160" font-family="system-ui, sans-serif" font-size="15" font-weight="700" fill="#2F3538">Compact</text><rect x="180" y="100" width="160" height="160" rx="5" fill="#FFFFFF" stroke="#CFC9BC"/><text x="350" y="120" font-family="system-ui, sans-serif" font-size="11" font-weight="600" fill="#68747A">south</text><g transform="translate(180 100) scale(1.25)"><g transform="translate(64 0) scale(1 1) translate(-64 0)"><g transform="translate(64 87)"><path d="M 0 -24 C -13 -24 -24 -22 -28 -16 C -30 -7 -29 5 -27 14 C -25 23 -19 28 -10 29 C -4 30 4 30 10 29 C 19 28 25 23 27 14 C 29 5 30 -7 28 -16 C 24 -22 13 -24 0 -24 Z" fill="#171A1C"/><path d="M -18 20 a 18 7 0 1 0 36 0 a 18 7 0 1 0 -36 0 Z" fill="#00000012"/></g><g transform="translate(64 87)"><path d="M -12 -17 a 12 4 0 1 0 24 0 a 12 4 0 1 0 -24 0 Z" fill="#00000018"/></g></g></g><g transform="translate(180 100) scale(1.25)"><circle cx="64" cy="49" r="21" fill="none" stroke="#D94A6A" stroke-width="1.2" opacity="0.52"/><circle cx="64" cy="49" r="2.6" fill="#D94A6A" stroke="#FFFFFF" stroke-width="0.8"/><circle cx="64" cy="17" r="1.7" fill="#D94A6A" stroke="#FFFFFF" stroke-width="0.8"/><circle cx="64" cy="63" r="2.6" fill="#2E9D67" stroke="#FFFFFF" stroke-width="0.8"/><path d="M 37 71 L 91 71" stroke="#D98532" stroke-width="1.4" stroke-dasharray="3 2"/><circle cx="37" cy="71" r="2.2" fill="#D98532" stroke="#FFFFFF" stroke-width="0.8"/><circle cx="91" cy="71" r="2.2" fill="#D98532" stroke="#FFFFFF" stroke-width="0.8"/><path d="M 38 91 L 90 91" stroke="#278AA0" stroke-width="1.4" stroke-dasharray="3 2"/><circle cx="38" cy="91" r="2.2" fill="#278AA0" stroke="#FFFFFF" stroke-width="0.8"/><circle cx="90" cy="91" r="2.2" fill="#278AA0" stroke="#FFFFFF" stroke-width="0.8"/><path d="M 45 111 L 83 111" stroke="#7D62B3" stroke-width="1.4" stroke-dasharray="3 2"/><circle cx="45" cy="111" r="2.2" fill="#7D62B3" stroke="#FFFFFF" stroke-width="0.8"/><circle cx="83" cy="111" r="2.2" fill="#7D62B3" stroke="#FFFFFF" stroke-width="0.8"/><circle cx="64" cy="82" r="2.5" fill="#C79A22" stroke="#FFFFFF" stroke-width="0.8"/><circle cx="64" cy="100" r="2.5" fill="#4169A8" stroke="#FFFFFF" stroke-width="0.8"/><circle cx="64" cy="87" r="1.8" fill="#111111" stroke="#FFFFFF" stroke-width="0.8"/></g><rect x="418" y="100" width="160" height="160" rx="5" fill="#FFFFFF" stroke="#CFC9BC"/><text x="588" y="120" font-family="system-ui, sans-serif" font-size="11" font-weight="600" fill="#68747A">east</text><g transform="translate(418 100) scale(1.25)"><g transform="translate(64 0) scale(1 1) translate(-64 0)"><g transform="translate(64 87)"><path d="M 0 -24 C -9 -24 -17 -22 -20 -16 C -23 -7 -22 4 -20 14 C -18 23 -12 28 -4 29 C 3 30 10 29 15 26 C 21 22 23 14 22 5 C 23 -4 23 -12 20 -17 C 16 -23 9 -24 0 -24 Z" fill="#171A1C"/><path d="M -13 20 a 13 7 0 1 0 26 0 a 13 7 0 1 0 -26 0 Z" fill="#00000012"/></g><g transform="translate(64 87)"><path d="M -9 -17 a 9 4 0 1 0 18 0 a 9 4 0 1 0 -18 0 Z" fill="#00000018"/></g></g></g><g transform="translate(418 100) scale(1.25)"><circle cx="67" cy="49" r="21" fill="none" stroke="#D94A6A" stroke-width="1.2" opacity="0.52"/><circle cx="67" cy="49" r="2.6" fill="#D94A6A" stroke="#FFFFFF" stroke-width="0.8"/><circle cx="67" cy="17" r="1.7" fill="#D94A6A" stroke="#FFFFFF" stroke-width="0.8"/><circle cx="64" cy="63" r="2.6" fill="#2E9D67" stroke="#FFFFFF" stroke-width="0.8"/><path d="M 61 71 L 70 71" stroke="#D98532" stroke-width="1.4" stroke-dasharray="3 2"/><circle cx="61" cy="71" r="2.2" fill="#D98532" stroke="#FFFFFF" stroke-width="0.8"/><circle cx="70" cy="71" r="2.2" fill="#D98532" stroke="#FFFFFF" stroke-width="0.8"/><path d="M 44 91 L 86 91" stroke="#278AA0" stroke-width="1.4" stroke-dasharray="3 2"/><circle cx="44" cy="91" r="2.2" fill="#278AA0" stroke="#FFFFFF" stroke-width="0.8"/><circle cx="86" cy="91" r="2.2" fill="#278AA0" stroke="#FFFFFF" stroke-width="0.8"/><path d="M 50 111 L 80 111" stroke="#7D62B3" stroke-width="1.4" stroke-dasharray="3 2"/><circle cx="50" cy="111" r="2.2" fill="#7D62B3" stroke="#FFFFFF" stroke-width="0.8"/><circle cx="80" cy="111" r="2.2" fill="#7D62B3" stroke="#FFFFFF" stroke-width="0.8"/><circle cx="66" cy="82" r="2.5" fill="#C79A22" stroke="#FFFFFF" stroke-width="0.8"/><circle cx="66" cy="100" r="2.5" fill="#4169A8" stroke="#FFFFFF" stroke-width="0.8"/><circle cx="64" cy="87" r="1.8" fill="#111111" stroke="#FFFFFF" stroke-width="0.8"/></g><text x="20" y="344" font-family="system-ui, sans-serif" font-size="15" font-weight="700" fill="#2F3538">Balanced</text><rect x="180" y="284" width="160" height="160" rx="5" fill="#FFFFFF" stroke="#CFC9BC"/><text x="350" y="304" font-family="system-ui, sans-serif" font-size="11" font-weight="600" fill="#68747A">south</text><g transform="translate(180 284) scale(1.25)"><g transform="translate(64 0) scale(1 1) translate(-64 0)"><g transform="translate(64 87)"><path d="M 0 -29 C -12 -29 -23 -27 -27 -20 C -30 -11 -27 -1 -25 8 C -23 18 -20 26 -11 29 C -4 30 4 30 11 29 C 20 26 23 18 25 8 C 27 -1 30 -11 27 -20 C 23 -27 12 -29 0 -29 Z" fill="#171A1C"/><path d="M -16 20 a 16 7 0 1 0 32 0 a 16 7 0 1 0 -32 0 Z" fill="#00000012"/></g><g transform="translate(64 87)"><path d="M -12 -22 a 12 4 0 1 0 24 0 a 12 4 0 1 0 -24 0 Z" fill="#00000018"/></g></g></g><g transform="translate(180 284) scale(1.25)"><circle cx="64" cy="44" r="21" fill="none" stroke="#D94A6A" stroke-width="1.2" opacity="0.52"/><circle cx="64" cy="44" r="2.6" fill="#D94A6A" stroke="#FFFFFF" stroke-width="0.8"/><circle cx="64" cy="12" r="1.7" fill="#D94A6A" stroke="#FFFFFF" stroke-width="0.8"/><circle cx="64" cy="58" r="2.6" fill="#2E9D67" stroke="#FFFFFF" stroke-width="0.8"/><path d="M 38 67 L 90 67" stroke="#D98532" stroke-width="1.4" stroke-dasharray="3 2"/><circle cx="38" cy="67" r="2.2" fill="#D98532" stroke="#FFFFFF" stroke-width="0.8"/><circle cx="90" cy="67" r="2.2" fill="#D98532" stroke="#FFFFFF" stroke-width="0.8"/><path d="M 39 91 L 89 91" stroke="#278AA0" stroke-width="1.4" stroke-dasharray="3 2"/><circle cx="39" cy="91" r="2.2" fill="#278AA0" stroke="#FFFFFF" stroke-width="0.8"/><circle cx="89" cy="91" r="2.2" fill="#278AA0" stroke="#FFFFFF" stroke-width="0.8"/><path d="M 46 111 L 82 111" stroke="#7D62B3" stroke-width="1.4" stroke-dasharray="3 2"/><circle cx="46" cy="111" r="2.2" fill="#7D62B3" stroke="#FFFFFF" stroke-width="0.8"/><circle cx="82" cy="111" r="2.2" fill="#7D62B3" stroke="#FFFFFF" stroke-width="0.8"/><circle cx="64" cy="80" r="2.5" fill="#C79A22" stroke="#FFFFFF" stroke-width="0.8"/><circle cx="64" cy="100" r="2.5" fill="#4169A8" stroke="#FFFFFF" stroke-width="0.8"/><circle cx="64" cy="87" r="1.8" fill="#111111" stroke="#FFFFFF" stroke-width="0.8"/></g><rect x="418" y="284" width="160" height="160" rx="5" fill="#FFFFFF" stroke="#CFC9BC"/><text x="588" y="304" font-family="system-ui, sans-serif" font-size="11" font-weight="600" fill="#68747A">east</text><g transform="translate(418 284) scale(1.25)"><g transform="translate(64 0) scale(1 1) translate(-64 0)"><g transform="translate(64 87)"><path d="M 1 -29 C -8 -29 -16 -26 -18 -19 C -20 -10 -18 2 -17 12 C -16 22 -11 27 -3 29 C 4 30 11 29 15 26 C 20 21 20 13 19 6 C 21 -2 22 -11 20 -17 C 18 -25 11 -29 1 -29 Z" fill="#171A1C"/><path d="M -11 20 a 11 7 0 1 0 22 0 a 11 7 0 1 0 -22 0 Z" fill="#00000012"/></g><g transform="translate(64 87)"><path d="M -9 -22 a 9 4 0 1 0 18 0 a 9 4 0 1 0 -18 0 Z" fill="#00000018"/></g></g></g><g transform="translate(418 284) scale(1.25)"><circle cx="67" cy="44" r="21" fill="none" stroke="#D94A6A" stroke-width="1.2" opacity="0.52"/><circle cx="67" cy="44" r="2.6" fill="#D94A6A" stroke="#FFFFFF" stroke-width="0.8"/><circle cx="67" cy="12" r="1.7" fill="#D94A6A" stroke="#FFFFFF" stroke-width="0.8"/><circle cx="64" cy="58" r="2.6" fill="#2E9D67" stroke="#FFFFFF" stroke-width="0.8"/><path d="M 61 67 L 70 67" stroke="#D98532" stroke-width="1.4" stroke-dasharray="3 2"/><circle cx="61" cy="67" r="2.2" fill="#D98532" stroke="#FFFFFF" stroke-width="0.8"/><circle cx="70" cy="67" r="2.2" fill="#D98532" stroke="#FFFFFF" stroke-width="0.8"/><path d="M 47 91 L 83 91" stroke="#278AA0" stroke-width="1.4" stroke-dasharray="3 2"/><circle cx="47" cy="91" r="2.2" fill="#278AA0" stroke="#FFFFFF" stroke-width="0.8"/><circle cx="83" cy="91" r="2.2" fill="#278AA0" stroke="#FFFFFF" stroke-width="0.8"/><path d="M 53 111 L 77 111" stroke="#7D62B3" stroke-width="1.4" stroke-dasharray="3 2"/><circle cx="53" cy="111" r="2.2" fill="#7D62B3" stroke="#FFFFFF" stroke-width="0.8"/><circle cx="77" cy="111" r="2.2" fill="#7D62B3" stroke="#FFFFFF" stroke-width="0.8"/><circle cx="66" cy="80" r="2.5" fill="#C79A22" stroke="#FFFFFF" stroke-width="0.8"/><circle cx="66" cy="100" r="2.5" fill="#4169A8" stroke="#FFFFFF" stroke-width="0.8"/><circle cx="64" cy="87" r="1.8" fill="#111111" stroke="#FFFFFF" stroke-width="0.8"/></g><text x="20" y="528" font-family="system-ui, sans-serif" font-size="15" font-weight="700" fill="#2F3538">Large-frame</text><rect x="180" y="468" width="160" height="160" rx="5" fill="#FFFFFF" stroke="#CFC9BC"/><text x="350" y="488" font-family="system-ui, sans-serif" font-size="11" font-weight="600" fill="#68747A">south</text><g transform="translate(180 468) scale(1.25)"><g transform="translate(64 0) scale(1 1) translate(-64 0)"><g transform="translate(64 87)"><path d="M 0 -30 C -15 -30 -28 -28 -34 -22 C -37 -17 -37 -11 -34 -5 C -32 1 -31 7 -29 12 C -27 21 -22 27 -12 29 C -4 30 4 30 12 29 C 22 27 27 21 29 12 C 31 7 32 1 34 -5 C 37 -11 37 -17 34 -22 C 28 -28 15 -30 0 -30 Z" fill="#171A1C"/><path d="M -20 20 a 20 7 0 1 0 40 0 a 20 7 0 1 0 -40 0 Z" fill="#00000012"/></g><g transform="translate(64 87)"><path d="M -12 -23 a 12 4 0 1 0 24 0 a 12 4 0 1 0 -24 0 Z" fill="#00000018"/></g></g></g><g transform="translate(180 468) scale(1.25)"><circle cx="64" cy="43" r="21" fill="none" stroke="#D94A6A" stroke-width="1.2" opacity="0.52"/><circle cx="64" cy="43" r="2.6" fill="#D94A6A" stroke="#FFFFFF" stroke-width="0.8"/><circle cx="64" cy="11" r="1.7" fill="#D94A6A" stroke="#FFFFFF" stroke-width="0.8"/><circle cx="64" cy="57" r="2.6" fill="#2E9D67" stroke="#FFFFFF" stroke-width="0.8"/><path d="M 30 66 L 98 66" stroke="#D98532" stroke-width="1.4" stroke-dasharray="3 2"/><circle cx="30" cy="66" r="2.2" fill="#D98532" stroke="#FFFFFF" stroke-width="0.8"/><circle cx="98" cy="66" r="2.2" fill="#D98532" stroke="#FFFFFF" stroke-width="0.8"/><path d="M 33 91 L 95 91" stroke="#278AA0" stroke-width="1.4" stroke-dasharray="3 2"/><circle cx="33" cy="91" r="2.2" fill="#278AA0" stroke="#FFFFFF" stroke-width="0.8"/><circle cx="95" cy="91" r="2.2" fill="#278AA0" stroke="#FFFFFF" stroke-width="0.8"/><path d="M 42 111 L 86 111" stroke="#7D62B3" stroke-width="1.4" stroke-dasharray="3 2"/><circle cx="42" cy="111" r="2.2" fill="#7D62B3" stroke="#FFFFFF" stroke-width="0.8"/><circle cx="86" cy="111" r="2.2" fill="#7D62B3" stroke="#FFFFFF" stroke-width="0.8"/><circle cx="64" cy="80" r="2.5" fill="#C79A22" stroke="#FFFFFF" stroke-width="0.8"/><circle cx="64" cy="100" r="2.5" fill="#4169A8" stroke="#FFFFFF" stroke-width="0.8"/><circle cx="64" cy="87" r="1.8" fill="#111111" stroke="#FFFFFF" stroke-width="0.8"/></g><rect x="418" y="468" width="160" height="160" rx="5" fill="#FFFFFF" stroke="#CFC9BC"/><text x="588" y="488" font-family="system-ui, sans-serif" font-size="11" font-weight="600" fill="#68747A">east</text><g transform="translate(418 468) scale(1.25)"><g transform="translate(64 0) scale(1 1) translate(-64 0)"><g transform="translate(64 87)"><path d="M 1 -30 C -10 -30 -20 -28 -23 -21 C -26 -12 -24 -1 -22 9 C -22 19 -17 26 -8 29 C 0 31 9 30 16 27 C 24 23 27 15 25 6 C 27 -3 28 -12 25 -19 C 22 -27 13 -30 1 -30 Z" fill="#171A1C"/><path d="M -15 20 a 15 7 0 1 0 30 0 a 15 7 0 1 0 -30 0 Z" fill="#00000012"/></g><g transform="translate(64 87)"><path d="M -9 -23 a 9 4 0 1 0 18 0 a 9 4 0 1 0 -18 0 Z" fill="#00000018"/></g></g></g><g transform="translate(418 468) scale(1.25)"><circle cx="68" cy="43" r="21" fill="none" stroke="#D94A6A" stroke-width="1.2" opacity="0.52"/><circle cx="68" cy="43" r="2.6" fill="#D94A6A" stroke="#FFFFFF" stroke-width="0.8"/><circle cx="68" cy="11" r="1.7" fill="#D94A6A" stroke="#FFFFFF" stroke-width="0.8"/><circle cx="64" cy="57" r="2.6" fill="#2E9D67" stroke="#FFFFFF" stroke-width="0.8"/><path d="M 59 66 L 72 66" stroke="#D98532" stroke-width="1.4" stroke-dasharray="3 2"/><circle cx="59" cy="66" r="2.2" fill="#D98532" stroke="#FFFFFF" stroke-width="0.8"/><circle cx="72" cy="66" r="2.2" fill="#D98532" stroke="#FFFFFF" stroke-width="0.8"/><path d="M 41 91 L 90 91" stroke="#278AA0" stroke-width="1.4" stroke-dasharray="3 2"/><circle cx="41" cy="91" r="2.2" fill="#278AA0" stroke="#FFFFFF" stroke-width="0.8"/><circle cx="90" cy="91" r="2.2" fill="#278AA0" stroke="#FFFFFF" stroke-width="0.8"/><path d="M 49 111 L 82 111" stroke="#7D62B3" stroke-width="1.4" stroke-dasharray="3 2"/><circle cx="49" cy="111" r="2.2" fill="#7D62B3" stroke="#FFFFFF" stroke-width="0.8"/><circle cx="82" cy="111" r="2.2" fill="#7D62B3" stroke="#FFFFFF" stroke-width="0.8"/><circle cx="67" cy="80" r="2.5" fill="#C79A22" stroke="#FFFFFF" stroke-width="0.8"/><circle cx="67" cy="100" r="2.5" fill="#4169A8" stroke="#FFFFFF" stroke-width="0.8"/><circle cx="64" cy="87" r="1.8" fill="#111111" stroke="#FFFFFF" stroke-width="0.8"/></g><text x="20" y="712" font-family="system-ui, sans-serif" font-size="15" font-weight="700" fill="#2F3538">Tall</text><rect x="180" y="652" width="160" height="160" rx="5" fill="#FFFFFF" stroke="#CFC9BC"/><text x="350" y="672" font-family="system-ui, sans-serif" font-size="11" font-weight="600" fill="#68747A">south</text><g transform="translate(180 652) scale(1.25)"><g transform="translate(64 0) scale(1 1) translate(-64 0)"><g transform="translate(64 87)"><path d="M 0 -34 C -10 -34 -21 -32 -24 -25 C -27 -16 -24 -4 -22 7 C -20 18 -17 26 -9 29 C -3 30 3 30 9 29 C 17 26 20 18 22 7 C 24 -4 27 -16 24 -25 C 21 -32 10 -34 0 -34 Z" fill="#171A1C"/><path d="M -13 20 a 13 7 0 1 0 26 0 a 13 7 0 1 0 -26 0 Z" fill="#00000012"/></g><g transform="translate(64 87)"><path d="M -12 -27 a 12 4 0 1 0 24 0 a 12 4 0 1 0 -24 0 Z" fill="#00000018"/></g></g></g><g transform="translate(180 652) scale(1.25)"><circle cx="64" cy="39" r="21" fill="none" stroke="#D94A6A" stroke-width="1.2" opacity="0.52"/><circle cx="64" cy="39" r="2.6" fill="#D94A6A" stroke="#FFFFFF" stroke-width="0.8"/><circle cx="64" cy="7" r="1.7" fill="#D94A6A" stroke="#FFFFFF" stroke-width="0.8"/><circle cx="64" cy="53" r="2.6" fill="#2E9D67" stroke="#FFFFFF" stroke-width="0.8"/><path d="M 41 62 L 87 62" stroke="#D98532" stroke-width="1.4" stroke-dasharray="3 2"/><circle cx="41" cy="62" r="2.2" fill="#D98532" stroke="#FFFFFF" stroke-width="0.8"/><circle cx="87" cy="62" r="2.2" fill="#D98532" stroke="#FFFFFF" stroke-width="0.8"/><path d="M 42 90 L 86 90" stroke="#278AA0" stroke-width="1.4" stroke-dasharray="3 2"/><circle cx="42" cy="90" r="2.2" fill="#278AA0" stroke="#FFFFFF" stroke-width="0.8"/><circle cx="86" cy="90" r="2.2" fill="#278AA0" stroke="#FFFFFF" stroke-width="0.8"/><path d="M 49 111 L 79 111" stroke="#7D62B3" stroke-width="1.4" stroke-dasharray="3 2"/><circle cx="49" cy="111" r="2.2" fill="#7D62B3" stroke="#FFFFFF" stroke-width="0.8"/><circle cx="79" cy="111" r="2.2" fill="#7D62B3" stroke="#FFFFFF" stroke-width="0.8"/><circle cx="64" cy="77" r="2.5" fill="#C79A22" stroke="#FFFFFF" stroke-width="0.8"/><circle cx="64" cy="99" r="2.5" fill="#4169A8" stroke="#FFFFFF" stroke-width="0.8"/><circle cx="64" cy="87" r="1.8" fill="#111111" stroke="#FFFFFF" stroke-width="0.8"/></g><rect x="418" y="652" width="160" height="160" rx="5" fill="#FFFFFF" stroke="#CFC9BC"/><text x="588" y="672" font-family="system-ui, sans-serif" font-size="11" font-weight="600" fill="#68747A">east</text><g transform="translate(418 652) scale(1.25)"><g transform="translate(64 0) scale(1 1) translate(-64 0)"><g transform="translate(64 87)"><path d="M 1 -34 C -7 -34 -14 -31 -16 -25 C -19 -16 -17 -4 -16 8 C -15 19 -11 26 -4 29 C 2 30 8 29 12 26 C 17 22 18 15 17 7 C 19 -3 20 -15 18 -23 C 16 -31 10 -34 1 -34 Z" fill="#171A1C"/><path d="M -10 20 a 10 7 0 1 0 20 0 a 10 7 0 1 0 -20 0 Z" fill="#00000012"/></g><g transform="translate(64 87)"><path d="M -9 -27 a 9 4 0 1 0 18 0 a 9 4 0 1 0 -18 0 Z" fill="#00000018"/></g></g></g><g transform="translate(418 652) scale(1.25)"><circle cx="67" cy="39" r="21" fill="none" stroke="#D94A6A" stroke-width="1.2" opacity="0.52"/><circle cx="67" cy="39" r="2.6" fill="#D94A6A" stroke="#FFFFFF" stroke-width="0.8"/><circle cx="67" cy="7" r="1.7" fill="#D94A6A" stroke="#FFFFFF" stroke-width="0.8"/><circle cx="64" cy="53" r="2.6" fill="#2E9D67" stroke="#FFFFFF" stroke-width="0.8"/><path d="M 61 62 L 69 62" stroke="#D98532" stroke-width="1.4" stroke-dasharray="3 2"/><circle cx="61" cy="62" r="2.2" fill="#D98532" stroke="#FFFFFF" stroke-width="0.8"/><circle cx="69" cy="62" r="2.2" fill="#D98532" stroke="#FFFFFF" stroke-width="0.8"/><path d="M 48 90 L 82 90" stroke="#278AA0" stroke-width="1.4" stroke-dasharray="3 2"/><circle cx="48" cy="90" r="2.2" fill="#278AA0" stroke="#FFFFFF" stroke-width="0.8"/><circle cx="82" cy="90" r="2.2" fill="#278AA0" stroke="#FFFFFF" stroke-width="0.8"/><path d="M 54 111 L 76 111" stroke="#7D62B3" stroke-width="1.4" stroke-dasharray="3 2"/><circle cx="54" cy="111" r="2.2" fill="#7D62B3" stroke="#FFFFFF" stroke-width="0.8"/><circle cx="76" cy="111" r="2.2" fill="#7D62B3" stroke="#FFFFFF" stroke-width="0.8"/><circle cx="65" cy="77" r="2.5" fill="#C79A22" stroke="#FFFFFF" stroke-width="0.8"/><circle cx="65" cy="99" r="2.5" fill="#4169A8" stroke="#FFFFFF" stroke-width="0.8"/><circle cx="64" cy="87" r="1.8" fill="#111111" stroke="#FFFFFF" stroke-width="0.8"/></g><text x="20" y="896" font-family="system-ui, sans-serif" font-size="15" font-weight="700" fill="#2F3538">Soft</text><rect x="180" y="836" width="160" height="160" rx="5" fill="#FFFFFF" stroke="#CFC9BC"/><text x="350" y="856" font-family="system-ui, sans-serif" font-size="11" font-weight="600" fill="#68747A">south</text><g transform="translate(180 836) scale(1.25)"><g transform="translate(64 0) scale(1 1) translate(-64 0)"><g transform="translate(64 87)"><path d="M 0 -28 C -11 -28 -20 -25 -24 -18 C -27 -10 -27 -1 -30 8 C -33 17 -30 25 -22 28 C -15 31 -6 30 0 29 C 6 30 15 31 22 28 C 30 25 33 17 30 8 C 27 -1 27 -10 24 -18 C 20 -25 11 -28 0 -28 Z" fill="#171A1C"/><path d="M -21 20 a 21 7 0 1 0 42 0 a 21 7 0 1 0 -42 0 Z" fill="#00000012"/></g><g transform="translate(64 87)"><path d="M -12 -21 a 12 4 0 1 0 24 0 a 12 4 0 1 0 -24 0 Z" fill="#00000018"/></g></g></g><g transform="translate(180 836) scale(1.25)"><circle cx="64" cy="45" r="21" fill="none" stroke="#D94A6A" stroke-width="1.2" opacity="0.52"/><circle cx="64" cy="45" r="2.6" fill="#D94A6A" stroke="#FFFFFF" stroke-width="0.8"/><circle cx="64" cy="13" r="1.7" fill="#D94A6A" stroke="#FFFFFF" stroke-width="0.8"/><circle cx="64" cy="59" r="2.6" fill="#2E9D67" stroke="#FFFFFF" stroke-width="0.8"/><path d="M 41 69 L 87 69" stroke="#D98532" stroke-width="1.4" stroke-dasharray="3 2"/><circle cx="41" cy="69" r="2.2" fill="#D98532" stroke="#FFFFFF" stroke-width="0.8"/><circle cx="87" cy="69" r="2.2" fill="#D98532" stroke="#FFFFFF" stroke-width="0.8"/><path d="M 34 95 L 94 95" stroke="#278AA0" stroke-width="1.4" stroke-dasharray="3 2"/><circle cx="34" cy="95" r="2.2" fill="#278AA0" stroke="#FFFFFF" stroke-width="0.8"/><circle cx="94" cy="95" r="2.2" fill="#278AA0" stroke="#FFFFFF" stroke-width="0.8"/><path d="M 40 111 L 88 111" stroke="#7D62B3" stroke-width="1.4" stroke-dasharray="3 2"/><circle cx="40" cy="111" r="2.2" fill="#7D62B3" stroke="#FFFFFF" stroke-width="0.8"/><circle cx="88" cy="111" r="2.2" fill="#7D62B3" stroke="#FFFFFF" stroke-width="0.8"/><circle cx="64" cy="81" r="2.5" fill="#C79A22" stroke="#FFFFFF" stroke-width="0.8"/><circle cx="64" cy="101" r="2.5" fill="#4169A8" stroke="#FFFFFF" stroke-width="0.8"/><circle cx="64" cy="87" r="1.8" fill="#111111" stroke="#FFFFFF" stroke-width="0.8"/></g><rect x="418" y="836" width="160" height="160" rx="5" fill="#FFFFFF" stroke="#CFC9BC"/><text x="588" y="856" font-family="system-ui, sans-serif" font-size="11" font-weight="600" fill="#68747A">east</text><g transform="translate(418 836) scale(1.25)"><g transform="translate(64 0) scale(1 1) translate(-64 0)"><g transform="translate(64 87)"><path d="M 1 -28 C -9 -28 -18 -25 -20 -18 C -23 -9 -21 0 -23 9 C -25 18 -21 26 -13 29 C -5 31 5 30 12 29 C 22 27 28 19 28 10 C 29 1 26 -7 24 -15 C 22 -23 13 -28 1 -28 Z" fill="#171A1C"/><path d="M -16 20 a 16 7 0 1 0 32 0 a 16 7 0 1 0 -32 0 Z" fill="#00000012"/></g><g transform="translate(64 87)"><path d="M -9 -21 a 9 4 0 1 0 18 0 a 9 4 0 1 0 -18 0 Z" fill="#00000018"/></g></g></g><g transform="translate(418 836) scale(1.25)"><circle cx="67" cy="45" r="21" fill="none" stroke="#D94A6A" stroke-width="1.2" opacity="0.52"/><circle cx="67" cy="45" r="2.6" fill="#D94A6A" stroke="#FFFFFF" stroke-width="0.8"/><circle cx="67" cy="13" r="1.7" fill="#D94A6A" stroke="#FFFFFF" stroke-width="0.8"/><circle cx="64" cy="59" r="2.6" fill="#2E9D67" stroke="#FFFFFF" stroke-width="0.8"/><path d="M 61 69 L 70 69" stroke="#D98532" stroke-width="1.4" stroke-dasharray="3 2"/><circle cx="61" cy="69" r="2.2" fill="#D98532" stroke="#FFFFFF" stroke-width="0.8"/><circle cx="70" cy="69" r="2.2" fill="#D98532" stroke="#FFFFFF" stroke-width="0.8"/><path d="M 41 95 L 92 95" stroke="#278AA0" stroke-width="1.4" stroke-dasharray="3 2"/><circle cx="41" cy="95" r="2.2" fill="#278AA0" stroke="#FFFFFF" stroke-width="0.8"/><circle cx="92" cy="95" r="2.2" fill="#278AA0" stroke="#FFFFFF" stroke-width="0.8"/><path d="M 49 111 L 84 111" stroke="#7D62B3" stroke-width="1.4" stroke-dasharray="3 2"/><circle cx="49" cy="111" r="2.2" fill="#7D62B3" stroke="#FFFFFF" stroke-width="0.8"/><circle cx="84" cy="111" r="2.2" fill="#7D62B3" stroke="#FFFFFF" stroke-width="0.8"/><circle cx="67" cy="81" r="2.5" fill="#C79A22" stroke="#FFFFFF" stroke-width="0.8"/><circle cx="67" cy="101" r="2.5" fill="#4169A8" stroke="#FFFFFF" stroke-width="0.8"/><circle cx="64" cy="87" r="1.8" fill="#111111" stroke="#FFFFFF" stroke-width="0.8"/></g></svg>