<svg xmlns="http://www.w3.org/2000/svg" viewBox="0 0 128 128" width="128" height="128"><path d="M 51 117 a 13 3.5 0 1 0 26 0 a 13 3.5 0 1 0 -26 0 Z" fill="#000000" opacity="0.12"/><path d="M 55 109 h 18 a 2 2 0 0 1 2 2 v 3 a 2 2 0 0 1 -2 2 h -18 a 2 2 0 0 1 -2 -2 v -3 a 2 2 0 0 1 2 -2 Z" fill="#3A342E" stroke="#3A342E" stroke-width="5" stroke-linejoin="round" stroke-linecap="round"/><path d="M 63 28 h 2 a 3 3 0 0 1 3 3 v 76 a 3 3 0 0 1 -3 3 h -2 a 3 3 0 0 1 -3 -3 v -76 a 3 3 0 0 1 3 -3 Z" fill="#3A342E" stroke="#3A342E" stroke-width="5" stroke-linejoin="round" stroke-linecap="round"/><path d="M 58 24 h 12 a 3 3 0 0 1 3 3 v 3 a 3 3 0 0 1 -3 3 h -12 a 3 3 0 0 1 -3 -3 v -3 a 3 3 0 0 1 3 -3 Z" fill="#3A342E" stroke="#3A342E" stroke-width="5" stroke-linejoin="round" stroke-linecap="round"/><path d="M 42 16 h 44 a 5 5 0 0 1 5 5 v 3 a 5 5 0 0 1 -5 5 h -44 a 5 5 0 0 1 -5 -5 v -3 a 5 5 0 0 1 5 -5 Z" fill="#3A342E" stroke="#3A342E" stroke-width="5" stroke-linejoin="round" stroke-linecap="round"/><path d="M 50 117 a 14 4 0 1 0 28 0 a 14 4 0 1 0 -28 0 Z" fill="#00000022"/><path d="M 55 109 h 18 a 2 2 0 0 1 2 2 v 3 a 2 2 0 0 1 -2 2 h -18 a 2 2 0 0 1 -2 -2 v -3 a 2 2 0 0 1 2 -2 Z" fill="#252B30"/><path d="M 63 28 h 2 a 3 3 0 0 1 3 3 v 76 a 3 3 0 0 1 -3 3 h -2 a 3 3 0 0 1 -3 -3 v -76 a 3 3 0 0 1 3 -3 Z" fill="#3D444A"/><path d="M 58 24 h 12 a 3 3 0 0 1 3 3 v 3 a 3 3 0 0 1 -3 3 h -12 a 3 3 0 0 1 -3 -3 v -3 a 3 3 0 0 1 3 -3 Z" fill="#252B30"/><path d="M 42 16 h 44 a 5 5 0 0 1 5 5 v 3 a 5 5 0 0 1 -5 5 h -44 a 5 5 0 0 1 -5 -5 v -3 a 5 5 0 0 1 5 -5 Z" fill="#3D444A"/><path d="M 45 26 h 38 a 2 2 0 0 1 2 2 v 2 a 2 2 0 0 1 -2 2 h -38 a 2 2 0 0 1 -2 -2 v -2 a 2 2 0 0 1 2 -2 Z" fill="#D8D3C4"/><path d="M 50.5 27 h 27 a 1.5 1.5 0 0 1 1.5 1.5 v 0 a 1.5 1.5 0 0 1 -1.5 1.5 h -27 a 1.5 1.5 0 0 1 -1.5 -1.5 v 0 a 1.5 1.5 0 0 1 1.5 -1.5 Z" fill="#FFF4C4" opacity="0.95"/></svg>