<svg xmlns="http://www.w3.org/2000/svg" viewBox="0 0 128 128" width="128" height="128"><path d="M 18 117 a 46 5 0 1 0 92 0 a 46 5 0 1 0 -92 0 Z" fill="#000000" opacity="0.12"/><path d="M 74 108 V 23 L 84 13 H 116 V 108 Z" fill="#3A342E" stroke="#3A342E" stroke-width="5" stroke-linejoin="round" stroke-linecap="round"/><path d="M 13 108 V 39 L 21 31 H 44 V 108 Z" fill="#3A342E" stroke="#3A342E" stroke-width="5" stroke-linejoin="round" stroke-linecap="round"/><path d="M 44 29 H 74 V 108 H 44 Z" fill="#3A342E" stroke="#3A342E" stroke-width="5" stroke-linejoin="round" stroke-linecap="round"/><path d="M 42 67 H 86 L 93 76 L 82 89 H 46 L 35 78 Z" fill="#3A342E" stroke="#3A342E" stroke-width="5" stroke-linejoin="round" stroke-linecap="round"/><path d="M 58 88 H 72 V 106 H 58 Z" fill="#3A342E" stroke="#3A342E" stroke-width="5" stroke-linejoin="round" stroke-linecap="round"/><path d="M 7 108 H 121 V 116 H 7 Z" fill="#3A342E" stroke="#3A342E" stroke-width="5" stroke-linejoin="round" stroke-linecap="round"/><path d="M 74 108 V 23 L 84 13 H 116 V 108 Z" fill="#DDE2DE"/><path d="M 13 108 V 39 L 21 31 H 44 V 108 Z" fill="#4C5551"/><path d="M 44 29 H 74 V 108 H 44 Z" fill="#18201D"/><path d="M 15 39 L 22 33 H 43" fill="none" stroke="#76807B" stroke-width="2.2" stroke-linecap="round" stroke-linejoin="round"/><path d="M 21 50 H 37 V 98" fill="none" stroke="#77817C" stroke-width="2.2" stroke-linecap="round" stroke-linejoin="round"/><path d="M 50 33 H 68 V 106 H 50 Z" fill="#27302D" stroke="#111714" stroke-width="2.2" stroke-linecap="round" stroke-linejoin="round"/><path d="M 50 33 L 55 28 H 73 L 68 33 Z" fill="#46504B" stroke="#18201D" stroke-width="2" stroke-linecap="round" stroke-linejoin="round"/><path d="M 56 41 H 63 V 99" fill="none" stroke="#5B6560" stroke-width="2.4" stroke-linecap="round" stroke-linejoin="round"/><path d="M 80 64 H 101 L 108 57 H 113" fill="none" stroke="#ABB3AF" stroke-width="1.8" stroke-linecap="round" stroke-linejoin="round"/><path d="M 100 34 h 1 a 2 2 0 0 1 2 2 v 11 a 2 2 0 0 1 -2 2 h -1 a 2 2 0 0 1 -2 -2 v -11 a 2 2 0 0 1 2 -2 Z" fill="#5C6662" stroke="#18201D" stroke-width="1.4" stroke-linecap="round" stroke-linejoin="round"/><path d="M 100.5 37 h 0 a 1 1 0 0 1 1 1 v 6 a 1 1 0 0 1 -1 1 h 0 a 1 1 0 0 1 -1 -1 v -6 a 1 1 0 0 1 1 -1 Z" fill="#5BE08A"/><path d="M 42 67 H 86 L 93 76 L 82 89 H 46 L 35 78 Z" fill="#B8C0BC"/><path d="M 48 71 H 80 L 85 76 L 78 83 H 49 L 43 78 Z" fill="#18211E" stroke="#53605A" stroke-width="1.4" stroke-linecap="round" stroke-linejoin="round"/><path d="M 56 77 H 73" fill="none" stroke="#5BE08A" stroke-width="1.5" stroke-linecap="round" stroke-linejoin="round"/><path d="M 58 88 H 72 V 106 H 58 Z" fill="#18201D"/><path d="M 7 108 H 121 V 116 H 7 Z" fill="#18201D"/></svg>