<svg xmlns="http://www.w3.org/2000/svg" viewBox="0 0 128 128" width="128" height="128">
  <title>Terrarium body-compact east authoring scaffold</title>
  <desc>The importer ignores guide, reference, anchor, and swatch groups. Rig guides are generated from TypeScript-owned anchors; edit art/detail paths only.</desc>
  <path id="reference/canvas-background" d="M 0 0 H 128 V 128 H 0 Z" fill="#FFFEFA" fill-rule="nonzero"/>
  <g id="guide/grid-minor">
    <path id="guide/grid-minor/path" d="M 8 0 V 128 M 0 8 H 128 M 16 0 V 128 M 0 16 H 128 M 24 0 V 128 M 0 24 H 128 M 32 0 V 128 M 0 32 H 128 M 40 0 V 128 M 0 40 H 128 M 48 0 V 128 M 0 48 H 128 M 56 0 V 128 M 0 56 H 128 M 64 0 V 128 M 0 64 H 128 M 72 0 V 128 M 0 72 H 128 M 80 0 V 128 M 0 80 H 128 M 88 0 V 128 M 0 88 H 128 M 96 0 V 128 M 0 96 H 128 M 104 0 V 128 M 0 104 H 128 M 112 0 V 128 M 0 112 H 128 M 120 0 V 128 M 0 120 H 128" fill="none" stroke="#DCE2E3" stroke-width="0.35" stroke-linecap="round" stroke-linejoin="round"/>
  </g>
  <g id="guide/grid-major">
    <path id="guide/grid-major/path" d="M 16 0 V 128 M 0 16 H 128 M 32 0 V 128 M 0 32 H 128 M 48 0 V 128 M 0 48 H 128 M 64 0 V 128 M 0 64 H 128 M 80 0 V 128 M 0 80 H 128 M 96 0 V 128 M 0 96 H 128 M 112 0 V 128 M 0 112 H 128" fill="none" stroke="#BCC7CA" stroke-width="0.6" stroke-linecap="round" stroke-linejoin="round"/>
  </g>
  <g id="guide/canvas">
    <path id="guide/canvas/border" d="M 0.5 0.5 H 127.5 V 127.5 H 0.5 Z" fill="none" stroke="#7E898E" stroke-width="1" stroke-linecap="round" stroke-linejoin="round"/>
    <path id="guide/canvas/outline-safe-area" d="M 4 4 H 124 V 124 H 4 Z" fill="none" stroke="#D68B35" stroke-width="0.8" stroke-linecap="round" stroke-linejoin="round" opacity="0.9"/>
  </g>
  <g id="reference/body-compact" opacity="0.22" transform="translate(64 87)">
    <path id="reference/body-compact/shape-001" d="M 0 -24 C -9 -24 -17 -22 -20 -16 C -23 -7 -22 4 -20 14 C -18 23 -12 28 -4 29 C 3 30 10 29 15 26 C 21 22 23 14 22 5 C 23 -4 23 -12 20 -17 C 16 -23 9 -24 0 -24 Z" fill="#66747A" fill-rule="nonzero"/>
    <path id="reference/body-compact/shape-002" d="M -13 20 a 13 7 0 1 0 26 0 a 13 7 0 1 0 -26 0 Z" fill="#66747A" fill-rule="nonzero"/>
  </g>
  <g id="art" transform="translate(64 87)">
    <path id="art/silhouette" d="M 0 -24 C -9 -24 -17 -22 -20 -16 C -23 -7 -22 4 -20 14 C -18 23 -12 28 -4 29 C 3 30 10 29 15 26 C 21 22 23 14 22 5 C 23 -4 23 -12 20 -17 C 16 -23 9 -24 0 -24 Z" fill="#FF0000" fill-rule="nonzero"/>
    <path id="detail/lower-plane" d="M -13 20 a 13 7 0 1 0 26 0 a 13 7 0 1 0 -26 0 Z" fill="#00000012" fill-rule="nonzero"/>
  </g>
  <g id="guide/head-radius">
    <path id="guide/head-radius/path" d="M 46 49 a 21 21 0 1 0 42 0 a 21 21 0 1 0 -42 0 Z" fill="none" stroke="#4F91A8" stroke-width="0.9" stroke-linecap="round" stroke-linejoin="round" opacity="0.8"/>
  </g>
  <g id="guide/body-rig">
    <path id="guide/body-rig/axis" d="M 67 17 L 67 49 L 64 63 L 66 82 L 66 100 L 65 111" fill="none" stroke="#9C7AB8" stroke-width="0.8" stroke-linecap="round" stroke-linejoin="round" opacity="0.75"/>
    <path id="guide/body-rig/shoulders" d="M 61 71 L 70 71" fill="none" stroke="#9C7AB8" stroke-width="0.9" stroke-linecap="round" stroke-linejoin="round" opacity="0.65"/>
    <path id="guide/body-rig/waist" d="M 44 91 L 86 91" fill="none" stroke="#9C7AB8" stroke-width="0.9" stroke-linecap="round" stroke-linejoin="round" opacity="0.8"/>
    <path id="guide/body-rig/hem" d="M 50 111 L 80 111" fill="none" stroke="#9C7AB8" stroke-width="0.9" stroke-linecap="round" stroke-linejoin="round" opacity="0.8"/>
  </g>
  <g id="anchors">
    <path id="anchors/bodyOrigin" d="M 61.5 87 H 66.5 M 64 84.5 V 89.5" fill="none" stroke="#C84D6F" stroke-width="1.1" stroke-linecap="round" stroke-linejoin="round"/>
    <path id="anchors/headCenter" d="M 64 49 H 70 M 67 46 V 52" fill="none" stroke="#C84D6F" stroke-width="1.1" stroke-linecap="round" stroke-linejoin="round"/>
    <path id="anchors/aboveHead" d="M 64.5 17 H 69.5 M 67 14.5 V 19.5" fill="none" stroke="#C84D6F" stroke-width="1.1" stroke-linecap="round" stroke-linejoin="round"/>
    <path id="anchors/neck" d="M 61 63 H 67 M 64 60 V 66" fill="none" stroke="#C84D6F" stroke-width="1.1" stroke-linecap="round" stroke-linejoin="round"/>
    <path id="anchors/chest" d="M 63 82 H 69 M 66 79 V 85" fill="none" stroke="#C84D6F" stroke-width="1.1" stroke-linecap="round" stroke-linejoin="round"/>
    <path id="anchors/hip" d="M 63 100 H 69 M 66 97 V 103" fill="none" stroke="#C84D6F" stroke-width="1.1" stroke-linecap="round" stroke-linejoin="round"/>
    <path id="anchors/shoulders-left" d="M 58.5 71 H 63.5 M 61 68.5 V 73.5" fill="none" stroke="#C84D6F" stroke-width="1.1" stroke-linecap="round" stroke-linejoin="round"/>
    <path id="anchors/shoulders-right" d="M 67.5 71 H 72.5 M 70 68.5 V 73.5" fill="none" stroke="#C84D6F" stroke-width="1.1" stroke-linecap="round" stroke-linejoin="round"/>
    <path id="anchors/waist-left" d="M 41.5 91 H 46.5 M 44 88.5 V 93.5" fill="none" stroke="#C84D6F" stroke-width="1.1" stroke-linecap="round" stroke-linejoin="round"/>
    <path id="anchors/waist-right" d="M 83.5 91 H 88.5 M 86 88.5 V 93.5" fill="none" stroke="#C84D6F" stroke-width="1.1" stroke-linecap="round" stroke-linejoin="round"/>
    <path id="anchors/hem-left" d="M 47.5 111 H 52.5 M 50 108.5 V 113.5" fill="none" stroke="#C84D6F" stroke-width="1.1" stroke-linecap="round" stroke-linejoin="round"/>
    <path id="anchors/hem-right" d="M 77.5 111 H 82.5 M 80 108.5 V 113.5" fill="none" stroke="#C84D6F" stroke-width="1.1" stroke-linecap="round" stroke-linejoin="round"/>
  </g>
  <g id="swatches">
    <path id="swatches/skin" d="M 4 4 H 12 V 12 H 4 Z" fill="#FF00FF" fill-rule="nonzero" stroke="#FFFFFF" stroke-width="0.75" stroke-linecap="round" stroke-linejoin="round"/>
    <path id="swatches/hair" d="M 4 14 H 12 V 22 H 4 Z" fill="#00FFFF" fill-rule="nonzero" stroke="#FFFFFF" stroke-width="0.75" stroke-linecap="round" stroke-linejoin="round"/>
    <path id="swatches/outfitPrimary" d="M 4 24 H 12 V 32 H 4 Z" fill="#FF0000" fill-rule="nonzero" stroke="#FFFFFF" stroke-width="0.75" stroke-linecap="round" stroke-linejoin="round"/>
    <path id="swatches/outfitSecondary" d="M 4 34 H 12 V 42 H 4 Z" fill="#00FF00" fill-rule="nonzero" stroke="#FFFFFF" stroke-width="0.75" stroke-linecap="round" stroke-linejoin="round"/>
    <path id="swatches/accent" d="M 4 44 H 12 V 52 H 4 Z" fill="#0000FF" fill-rule="nonzero" stroke="#FFFFFF" stroke-width="0.75" stroke-linecap="round" stroke-linejoin="round"/>
  </g>
</svg>
