<svg xmlns="http://www.w3.org/2000/svg" viewBox="0 0 128 128" width="128" height="128">
  <title>Terrarium body-tall north authoring scaffold</title>
  <desc>The importer ignores guide, reference, anchor, and swatch groups. Rig guides are generated from TypeScript-owned anchors; edit art/detail paths only.</desc>
  <path id="reference/canvas-background" d="M 0 0 H 128 V 128 H 0 Z" fill="#FFFEFA" fill-rule="nonzero"/>
  <g id="guide/grid-minor">
    <path id="guide/grid-minor/path" d="M 8 0 V 128 M 0 8 H 128 M 16 0 V 128 M 0 16 H 128 M 24 0 V 128 M 0 24 H 128 M 32 0 V 128 M 0 32 H 128 M 40 0 V 128 M 0 40 H 128 M 48 0 V 128 M 0 48 H 128 M 56 0 V 128 M 0 56 H 128 M 64 0 V 128 M 0 64 H 128 M 72 0 V 128 M 0 72 H 128 M 80 0 V 128 M 0 80 H 128 M 88 0 V 128 M 0 88 H 128 M 96 0 V 128 M 0 96 H 128 M 104 0 V 128 M 0 104 H 128 M 112 0 V 128 M 0 112 H 128 M 120 0 V 128 M 0 120 H 128" fill="none" stroke="#DCE2E3" stroke-width="0.35" stroke-linecap="round" stroke-linejoin="round"/>
  </g>
  <g id="guide/grid-major">
    <path id="guide/grid-major/path" d="M 16 0 V 128 M 0 16 H 128 M 32 0 V 128 M 0 32 H 128 M 48 0 V 128 M 0 48 H 128 M 64 0 V 128 M 0 64 H 128 M 80 0 V 128 M 0 80 H 128 M 96 0 V 128 M 0 96 H 128 M 112 0 V 128 M 0 112 H 128" fill="none" stroke="#BCC7CA" stroke-width="0.6" stroke-linecap="round" stroke-linejoin="round"/>
  </g>
  <g id="guide/canvas">
    <path id="guide/canvas/border" d="M 0.5 0.5 H 127.5 V 127.5 H 0.5 Z" fill="none" stroke="#7E898E" stroke-width="1" stroke-linecap="round" stroke-linejoin="round"/>
    <path id="guide/canvas/outline-safe-area" d="M 4 4 H 124 V 124 H 4 Z" fill="none" stroke="#D68B35" stroke-width="0.8" stroke-linecap="round" stroke-linejoin="round" opacity="0.9"/>
  </g>
  <g id="reference/body-tall" opacity="0.22" transform="translate(64 87)">
    <path id="reference/body-tall/shape-001" d="M 0 -34 C -10 -34 -21 -32 -24 -25 C -27 -16 -24 -4 -22 7 C -20 18 -17 26 -9 29 C -3 30 3 30 9 29 C 17 26 20 18 22 7 C 24 -4 27 -16 24 -25 C 21 -32 10 -34 0 -34 Z" fill="#66747A" fill-rule="nonzero"/>
  </g>
  <g id="art" transform="translate(64 87)">
    <path id="art/silhouette" d="M 0 -34 C -10 -34 -21 -32 -24 -25 C -27 -16 -24 -4 -22 7 C -20 18 -17 26 -9 29 C -3 30 3 30 9 29 C 17 26 20 18 22 7 C 24 -4 27 -16 24 -25 C 21 -32 10 -34 0 -34 Z" fill="#FF0000" fill-rule="nonzero"/>
  </g>
  <g id="guide/head-radius">
    <path id="guide/head-radius/path" d="M 43 39 a 21 21 0 1 0 42 0 a 21 21 0 1 0 -42 0 Z" fill="none" stroke="#4F91A8" stroke-width="0.9" stroke-linecap="round" stroke-linejoin="round" opacity="0.8"/>
  </g>
  <g id="guide/body-rig">
    <path id="guide/body-rig/axis" d="M 64 7 L 64 39 L 64 53 L 64 77 L 64 99 L 64 111" fill="none" stroke="#9C7AB8" stroke-width="0.8" stroke-linecap="round" stroke-linejoin="round" opacity="0.75"/>
    <path id="guide/body-rig/shoulders" d="M 41 62 L 87 62" fill="none" stroke="#9C7AB8" stroke-width="0.9" stroke-linecap="round" stroke-linejoin="round" opacity="0.65"/>
    <path id="guide/body-rig/waist" d="M 42 90 L 86 90" fill="none" stroke="#9C7AB8" stroke-width="0.9" stroke-linecap="round" stroke-linejoin="round" opacity="0.8"/>
    <path id="guide/body-rig/hem" d="M 49 111 L 79 111" fill="none" stroke="#9C7AB8" stroke-width="0.9" stroke-linecap="round" stroke-linejoin="round" opacity="0.8"/>
  </g>
  <g id="anchors">
    <path id="anchors/bodyOrigin" d="M 61.5 87 H 66.5 M 64 84.5 V 89.5" fill="none" stroke="#C84D6F" stroke-width="1.1" stroke-linecap="round" stroke-linejoin="round"/>
    <path id="anchors/headCenter" d="M 61 39 H 67 M 64 36 V 42" fill="none" stroke="#C84D6F" stroke-width="1.1" stroke-linecap="round" stroke-linejoin="round"/>
    <path id="anchors/aboveHead" d="M 61.5 7 H 66.5 M 64 4.5 V 9.5" fill="none" stroke="#C84D6F" stroke-width="1.1" stroke-linecap="round" stroke-linejoin="round"/>
    <path id="anchors/neck" d="M 61 53 H 67 M 64 50 V 56" fill="none" stroke="#C84D6F" stroke-width="1.1" stroke-linecap="round" stroke-linejoin="round"/>
    <path id="anchors/chest" d="M 61 77 H 67 M 64 74 V 80" fill="none" stroke="#C84D6F" stroke-width="1.1" stroke-linecap="round" stroke-linejoin="round"/>
    <path id="anchors/hip" d="M 61 99 H 67 M 64 96 V 102" fill="none" stroke="#C84D6F" stroke-width="1.1" stroke-linecap="round" stroke-linejoin="round"/>
    <path id="anchors/shoulders-left" d="M 38.5 62 H 43.5 M 41 59.5 V 64.5" fill="none" stroke="#C84D6F" stroke-width="1.1" stroke-linecap="round" stroke-linejoin="round"/>
    <path id="anchors/shoulders-right" d="M 84.5 62 H 89.5 M 87 59.5 V 64.5" fill="none" stroke="#C84D6F" stroke-width="1.1" stroke-linecap="round" stroke-linejoin="round"/>
    <path id="anchors/waist-left" d="M 39.5 90 H 44.5 M 42 87.5 V 92.5" fill="none" stroke="#C84D6F" stroke-width="1.1" stroke-linecap="round" stroke-linejoin="round"/>
    <path id="anchors/waist-right" d="M 83.5 90 H 88.5 M 86 87.5 V 92.5" fill="none" stroke="#C84D6F" stroke-width="1.1" stroke-linecap="round" stroke-linejoin="round"/>
    <path id="anchors/hem-left" d="M 46.5 111 H 51.5 M 49 108.5 V 113.5" fill="none" stroke="#C84D6F" stroke-width="1.1" stroke-linecap="round" stroke-linejoin="round"/>
    <path id="anchors/hem-right" d="M 76.5 111 H 81.5 M 79 108.5 V 113.5" fill="none" stroke="#C84D6F" stroke-width="1.1" stroke-linecap="round" stroke-linejoin="round"/>
  </g>
  <g id="swatches">
    <path id="swatches/skin" d="M 4 4 H 12 V 12 H 4 Z" fill="#FF00FF" fill-rule="nonzero" stroke="#FFFFFF" stroke-width="0.75" stroke-linecap="round" stroke-linejoin="round"/>
    <path id="swatches/hair" d="M 4 14 H 12 V 22 H 4 Z" fill="#00FFFF" fill-rule="nonzero" stroke="#FFFFFF" stroke-width="0.75" stroke-linecap="round" stroke-linejoin="round"/>
    <path id="swatches/outfitPrimary" d="M 4 24 H 12 V 32 H 4 Z" fill="#FF0000" fill-rule="nonzero" stroke="#FFFFFF" stroke-width="0.75" stroke-linecap="round" stroke-linejoin="round"/>
    <path id="swatches/outfitSecondary" d="M 4 34 H 12 V 42 H 4 Z" fill="#00FF00" fill-rule="nonzero" stroke="#FFFFFF" stroke-width="0.75" stroke-linecap="round" stroke-linejoin="round"/>
    <path id="swatches/accent" d="M 4 44 H 12 V 52 H 4 Z" fill="#0000FF" fill-rule="nonzero" stroke="#FFFFFF" stroke-width="0.75" stroke-linecap="round" stroke-linejoin="round"/>
  </g>
</svg>
