<svg xmlns="http://www.w3.org/2000/svg" viewBox="0 0 128 128" width="128" height="128">
  <title>Terrarium hair-bun east authored art</title>
  <desc>Current production compact bun profile with rear placement.</desc>
  <g id="art" transform="translate(64 44)">
    <path id="art/cap" d="M -19.4164878389476 -8 A 21 21 0 0 1 19.4164878389476 -8 Z" fill="#00FFFF" fill-rule="nonzero"/>
    <path id="art/back" d="M -17 -9 h 0 a 4 4 0 0 1 4 4 v 7 a 4 4 0 0 1 -4 4 h 0 a 4 4 0 0 1 -4 -4 v -7 a 4 4 0 0 1 4 -4 Z" fill="#00FFFF" fill-rule="nonzero"/>
    <path id="art/bun" d="M -28 -12 a 8 7 0 1 0 16 0 a 8 7 0 1 0 -16 0 Z" fill="#00FFFF" fill-rule="nonzero"/>
  </g>
</svg>
