<svg xmlns="http://www.w3.org/2000/svg" viewBox="0 0 128 128" width="128" height="128">
  <title>Terrarium hair-coils east authored art</title>
  <desc>Current production dense coils profile with rear-weighted cloud volume.</desc>
  <g id="art" transform="translate(64 44)">
    <path id="art/silhouette" d="M -27 6 C -32 1 -31 -9 -26 -13 C -29 -20 -21 -25 -13 -24 C -8 -29 2 -29 7 -24 C 14 -26 21 -20 19 -14 C 24 -11 25 -5 21 0 C 23 6 19 11 14 8 C 14 0 9 -7 2 -9 C -6 -9 -11 -4 -12 3 C -13 9 -18 12 -22 9 C -25 8 -27 7 -27 6 Z" fill="#00FFFF" fill-rule="nonzero"/>
  </g>
</svg>
