<svg xmlns="http://www.w3.org/2000/svg" viewBox="0 0 128 128" width="128" height="128">
  <title>Terrarium hair-coils south authored art</title>
  <desc>Current production dense coils front silhouette with a wide cloud crown.</desc>
  <g id="art" transform="translate(64 44)">
    <path id="art/silhouette" d="M -24 5 C -29 1 -28 -7 -24 -11 C -27 -17 -21 -22 -15 -22 C -12 -27 -4 -29 1 -25 C 7 -29 15 -25 16 -20 C 24 -19 28 -14 24 -9 C 29 -4 27 4 22 7 C 18 10 15 9 13 5 C 10 1 8 -3 7 -7 C 2 -10 -3 -10 -8 -7 C -9 -2 -11 2 -14 6 C -17 10 -21 10 -24 5 Z" fill="#00FFFF" fill-rule="nonzero"/>
  </g>
</svg>
