<svg xmlns="http://www.w3.org/2000/svg" viewBox="0 0 128 128" width="128" height="128">
  <title>Terrarium hair-pixie east authored art</title>
  <desc>Current production pixie profile with a clean swept fringe.</desc>
  <g id="art" transform="translate(64 44)">
    <path id="art/cap" d="M -20.396078054371138 -5 A 21 21 0 0 1 20.396078054371138 -5 Z" fill="#00FFFF" fill-rule="nonzero"/>
    <path id="art/back" d="M -16 -7 h 0 a 4 4 0 0 1 4 4 v 7 a 4 4 0 0 1 -4 4 h 0 a 4 4 0 0 1 -4 -4 v -7 a 4 4 0 0 1 4 -4 Z" fill="#00FFFF" fill-rule="nonzero"/>
    <path id="art/fringe" d="M -5 -11 C 5 -12 14 -8 19 -2 L 13 4 L 7 -1 L 1 3 L -4 -2 Z" fill="#00FFFF" fill-rule="nonzero"/>
  </g>
</svg>
