<svg xmlns="http://www.w3.org/2000/svg" viewBox="0 0 128 128" width="128" height="128">
  <title>Terrarium body-balanced south authored art</title>
  <desc>Production Balanced body silhouette and lower-plane detail.</desc>
  <g id="art" transform="translate(64 87)">
    <path id="art/silhouette" d="M 0 -29 C -12 -29 -23 -27 -27 -20 C -30 -11 -27 -1 -25 8 C -23 18 -20 26 -11 29 C -4 30 4 30 11 29 C 20 26 23 18 25 8 C 27 -1 30 -11 27 -20 C 23 -27 12 -29 0 -29 Z" fill="#FF0000" fill-rule="nonzero"/>
    <path id="detail/lower-plane" d="M -16 20 a 16 7 0 1 0 32 0 a 16 7 0 1 0 -32 0 Z" fill="#00000012" fill-rule="nonzero"/>
  </g>
</svg>
