<svg xmlns="http://www.w3.org/2000/svg" viewBox="0 0 128 128" width="128" height="128">
  <title>Terrarium body-compact east authored art</title>
  <desc>Production Compact profile silhouette and lower-plane detail.</desc>
  <g id="art" transform="translate(64 87)">
    <path id="art/silhouette" d="M 0 -24 C -9 -24 -17 -22 -20 -16 C -23 -7 -22 4 -20 14 C -18 23 -12 28 -4 29 C 3 30 10 29 15 26 C 21 22 23 14 22 5 C 23 -4 23 -12 20 -17 C 16 -23 9 -24 0 -24 Z" fill="#FF0000" fill-rule="nonzero"/>
    <path id="detail/lower-plane" d="M -13 20 a 13 7 0 1 0 26 0 a 13 7 0 1 0 -26 0 Z" fill="#00000012" fill-rule="nonzero"/>
  </g>
</svg>
