<svg xmlns="http://www.w3.org/2000/svg" viewBox="0 0 128 128" width="128" height="128">
  <title>Terrarium body-large-frame north authored art</title>
  <desc>Production Large-frame rear silhouette.</desc>
  <g id="art" transform="translate(64 87)">
    <path id="art/silhouette" d="M 0 -30 C -15 -30 -28 -28 -34 -22 C -37 -17 -37 -11 -34 -5 C -32 1 -31 7 -29 12 C -27 21 -22 27 -12 29 C -4 30 4 30 12 29 C 22 27 27 21 29 12 C 31 7 32 1 34 -5 C 37 -11 37 -17 34 -22 C 28 -28 15 -30 0 -30 Z" fill="#FF0000" fill-rule="nonzero"/>
  </g>
</svg>
