<svg xmlns="http://www.w3.org/2000/svg" width="128" height="128" viewBox="0 0 128 128" data-prop-id="ledger_engine" data-projection="elevation">
  <title>Ledger Engine</title>
  <desc>QuotaCo Certified Ledger Engine. Administrative Percussion family; standardized SKU.</desc>
  <metadata>{"family":"quota-co-administrative-percussion-v1","id":"ledger_engine","source":"owner-accepted-internal-services-calibration-v1"}</metadata>
  <g id="approved-sku"><path id="catalog-contour" d="M 13 30 Q 13 23 10 23 H 108 Q 115 23 115 30 L 120 36 V 113 Q 120 119 114 119 H 14 Q 8 119 8 113 V 36 Z" fill="#252A28"/><path id="catalog-shell" d="M 16 32 Q 16 28 12 28 H 106 Q 112 28 112 32 L 115 38 V 101 H 13 V 38 Z" fill="#D9D0B9"/><path id="top-plane-light" d="M 13 29 H 105" stroke="#FFFFFF" stroke-width="2" stroke-linecap="round" opacity=".18"/><rect id="stepped-green-base" x="8" y="101" width="112" height="14" rx="4" fill="#294B3C"/><rect id="base-service-register" x="18" y="106" width="92" height="3" rx="1.5" fill="#4E7D79"/><path id="posting-carriage-rail" d="M 17 40 H 111" stroke="#252A28" stroke-width="9" stroke-linecap="round"/><g id="twin-posting-drums"><circle id="shape-7" cx="39" cy="54" r="17" fill="#4E7D79" stroke="#252A28" stroke-width="4"/><circle id="shape-8" cx="89" cy="54" r="17" fill="#4E7D79" stroke="#252A28" stroke-width="4"/><path id="shape-9" d="M 39 40 V 68 M 89 40 V 68" stroke="#979A91" stroke-width="5" stroke-linecap="round"/></g><g id="travelling-posting-carriage"><path id="shape-10" d="M 49 32 H 79 V 59 H 49 Z" fill="#979A91" stroke="#252A28" stroke-width="3"/><path id="shape-11" d="M 64 57 V 76" stroke="#252A28" stroke-width="7" stroke-linecap="round"/></g><path id="open-folio-bed" d="M 23 74 Q 44 69 62 78 Q 81 69 105 74 L 99 97 Q 80 92 62 99 Q 44 92 28 97 Z" fill="#D9D0B9" stroke="#252A28" stroke-width="3"/><path id="folio-center-fold" d="M 62 78 V 98" stroke="#4E7D79" stroke-width="2"/><path id="folio-feed-bar" d="M 30 82 Q 45 78 57 84 M 67 84 Q 83 78 98 82" fill="none" stroke="#979A91" stroke-width="2" stroke-linecap="round"/></g>
</svg>
