<svg xmlns="http://www.w3.org/2000/svg" width="128" height="128" viewBox="0 0 128 128" data-prop-id="door" data-projection="plan" data-runtime-grid-scale="0.5">
  <title>QuotaCo horizontal sliding auto-door, open</title>
  <desc>Canonical production source with a transparent passage in the 64-unit Unity wall-slot envelope.</desc>
  <g id="horizontal-door-runtime-slot-envelope" transform="translate(32 32) scale(.5)">
  <g id="horizontal-door-wall-break">
    <path id="horizontal-wall-outer" d="M0 11.5H26V123.5H0ZM102 11.5H128V123.5H102Z" fill="#252A28"/>
    <path id="horizontal-wall-cream" d="M0 14.8H23V112.7H0ZM105 14.8H128V112.7H105Z" fill="#D9D0B9"/>
    <path id="horizontal-wall-rust" d="M0 64.6H23V74.6H0ZM105 64.6H128V74.6H105Z" fill="#B65F4D"/>
    <path id="horizontal-wall-green" d="M0 74.6H23V117.7H0ZM105 74.6H128V117.7H105Z" fill="#294B3C"/>
    <path id="horizontal-wall-highlight" d="M0 14.8H23V23.1H0ZM105 14.8H128V23.1H105Z" fill="#FFFFFF" opacity=".28"/>
  </g>
  <g id="horizontal-door-header-threshold">
    <path id="horizontal-header-outer" d="M23 11.5H105V39H23Z" fill="#252A28"/>
    <path id="horizontal-header-cream" d="M26 14.8H102V34H26Z" fill="#D9D0B9"/>
    <path id="horizontal-header-highlight" d="M26 14.8H102V20H26Z" fill="#FFFFFF" opacity=".28"/>
    <path id="horizontal-header-track" d="M27 34H101V39H27Z" fill="#252A28"/>
    <path id="horizontal-threshold-outer" d="M24 113H104V122H24Z" fill="#252A28"/>
    <path id="horizontal-threshold-teal" d="M27 115H101V119H27Z" fill="#547B78"/>
    <path id="horizontal-threshold-metal" d="M31 119H97V121H31Z" fill="#979A91" opacity=".82"/>
    <circle id="horizontal-mode-lens" cx="64" cy="36.5" r="2" fill="#B65F4D"/>
  </g>
  <g id="horizontal-door-open-leaves">
    <path id="horizontal-open-pocket-outer" d="M28 39H37V114H28ZM91 39H100V114H91Z" fill="#252A28"/>
    <path id="horizontal-open-pocket-leaves" d="M31 42H37V111H31ZM91 42H97V111H91Z" fill="#294B3C"/>
    <path id="horizontal-open-pocket-glazing" d="M32 49H37V84H32ZM91 49H96V84H91Z" fill="#83A9A6" opacity=".82"/>
  </g>
  </g>
</svg>
