<svg xmlns="http://www.w3.org/2000/svg" width="128" height="128" viewBox="0 0 128 128" data-prop-id="window" data-projection="plan" data-runtime-grid-scale="0.5" data-wall-material-id="slat-wall" data-axis="horizontal">
  <title>QuotaCo wood slat horizontal office window</title>
  <desc>Wood slat wall-owned window opening with shared frame, glazing, blinds, and mullion, compensated to the 64-unit Unity wall-slot envelope.</desc>
  <g id="horizontal-window-slat" transform="translate(32 32) scale(.5)">
    <path id="horizontal-window-slat-part-01" d="M0 2H12V126H0ZM116 2H128V126H116Z" fill="#323431"/>
    <path id="horizontal-window-slat-part-02" d="M0 8H12V120H0ZM116 8H128V120H116Z" fill="#705643"/>
    <path id="horizontal-window-slat-part-03" d="M0 8H12V16H0ZM116 8H128V16H116Z" fill="#83654E"/>
    <path id="horizontal-window-slat-part-04" d="M0 82H12V120H0ZM116 82H128V120H116Z" fill="#9C7658"/>
    <path id="horizontal-window-slat-part-05" d="M4 2H124V34H4Z" fill="#323431"/>
    <path id="horizontal-window-slat-part-06" d="M8 8H120V30H8Z" fill="#705643"/>
    <path id="horizontal-window-slat-part-07" d="M8 8H120V15H8Z" fill="#83654E"/>
    <path id="horizontal-window-slat-part-08" d="M8 24H120V30H8Z" fill="#9C7658"/>
    <path id="horizontal-window-slat-part-09" d="M0 98H128V126H0Z" fill="#323431"/>
    <path id="horizontal-window-slat-part-10" d="M0 102H128V120H0Z" fill="#705643"/>
    <path id="horizontal-window-slat-part-11" d="M0 110H128V120H0Z" fill="#9C7658"/>
    <path id="horizontal-window-slat-part-12" d="M0 102H128V106H0Z" fill="#83654E"/>
    <path id="horizontal-window-slat-part-13" d="M10 102V120M20 102V120M108 102V120M118 102V120" stroke="#503E33" stroke-width="1.2" opacity=".5"/>
    <path id="horizontal-window-slat-part-14" d="M12 28H116V103H12Z" fill="#323431"/>
    <path id="horizontal-window-slat-part-15" d="M18 34H110V96H18Z" fill="#83A9A6"/>
    <path id="horizontal-window-slat-part-16" d="M18 70L110 51V96H18Z" fill="#648B89" opacity=".24"/>
    <path id="horizontal-window-slat-part-17" d="M18 34H110V55H18Z" fill="#C3C0B6" opacity=".94"/>
    <path id="horizontal-window-slat-part-18" d="M19 40H109M19 47H109M19 54H109" stroke="#858A84" stroke-width="1.4" opacity=".75"/>
    <path id="horizontal-window-slat-part-19" d="M63 55H66V96H63Z" fill="#535A56"/>
    <path id="horizontal-window-slat-part-20" d="M22 36H25V94H22Z" fill="#FFFFFF" opacity=".13"/>
    <path id="horizontal-window-slat-part-21" d="M10 96H118V105H10Z" fill="#323431"/>
    <path id="horizontal-window-slat-part-22" d="M16 96H112V101H16Z" fill="#9C7658"/>
  </g>
</svg>
